<?xml version="1.0" encoding="utf-8" standalone="no"?>
<!DOCTYPE svg PUBLIC "-//W3C//DTD SVG 1.1//EN"
  "http://www.w3.org/Graphics/SVG/1.1/DTD/svg11.dtd">
<svg xmlns:xlink="http://www.w3.org/1999/xlink" width="421.551094pt" height="291.1487pt" viewBox="0 0 421.551094 291.1487" xmlns="http://www.w3.org/2000/svg" version="1.1">
 <metadata>
  <rdf:RDF xmlns:dc="http://purl.org/dc/elements/1.1/" xmlns:cc="http://creativecommons.org/ns#" xmlns:rdf="http://www.w3.org/1999/02/22-rdf-syntax-ns#">
   <cc:Work>
    <dc:type rdf:resource="http://purl.org/dc/dcmitype/StillImage"/>
    <dc:date>2026-07-21T10:07:48.363625</dc:date>
    <dc:format>image/svg+xml</dc:format>
    <dc:creator>
     <cc:Agent>
      <dc:title>Matplotlib v3.11.1, https://matplotlib.org/</dc:title>
     </cc:Agent>
    </dc:creator>
   </cc:Work>
  </rdf:RDF>
 </metadata>
 <defs>
  <style type="text/css">*{stroke-linejoin: round; stroke-linecap: butt}</style>
 </defs>
 <g id="figure_1">
  <g id="patch_1">
   <path d="M 0 291.1487 
L 421.551094 291.1487 
L 421.551094 0 
L 0 0 
z
" style="fill: #ffffff"/>
  </g>
  <g id="axes_1">
   <g id="patch_2">
    <path d="M 35.051094 264.125458 
L 414.351094 264.125458 
L 414.351094 7.2 
L 35.051094 7.2 
z
" style="fill: #ffffff"/>
   </g>
   <g id="matplotlib.axis_1">
    <g id="xtick_1">
     <g id="line2d_1">
      <path d="M 65.109053 264.125458 
L 65.109053 7.2 
" clip-path="url(#pb9bb84b513)" style="fill: none; stroke: #cccccc; stroke-linecap: round"/>
     </g>
     <g id="text_1">
      <!-- 200 -->
      <g style="fill: #262626" transform="translate(55.933506 281.633759) scale(0.11 -0.11)">
       <defs>
        <path id="ArialMT-15" d="M 3222 541 
L 3222 0 
L 194 0 
Q 188 203 259 391 
Q 375 700 629 1000 
Q 884 1300 1366 1694 
Q 2113 2306 2375 2664 
Q 2638 3022 2638 3341 
Q 2638 3675 2398 3904 
Q 2159 4134 1775 4134 
Q 1369 4134 1125 3890 
Q 881 3647 878 3216 
L 300 3275 
Q 359 3922 746 4261 
Q 1134 4600 1788 4600 
Q 2447 4600 2831 4234 
Q 3216 3869 3216 3328 
Q 3216 3053 3103 2787 
Q 2991 2522 2730 2228 
Q 2469 1934 1863 1422 
Q 1356 997 1212 845 
Q 1069 694 975 541 
L 3222 541 
z
" transform="scale(0.015625)"/>
        <path id="ArialMT-13" d="M 266 2259 
Q 266 3072 433 3567 
Q 600 4063 929 4331 
Q 1259 4600 1759 4600 
Q 2128 4600 2406 4451 
Q 2684 4303 2865 4023 
Q 3047 3744 3150 3342 
Q 3253 2941 3253 2259 
Q 3253 1453 3087 958 
Q 2922 463 2592 192 
Q 2263 -78 1759 -78 
Q 1097 -78 719 397 
Q 266 969 266 2259 
z
M 844 2259 
Q 844 1131 1108 757 
Q 1372 384 1759 384 
Q 2147 384 2411 759 
Q 2675 1134 2675 2259 
Q 2675 3391 2411 3762 
Q 2147 4134 1753 4134 
Q 1366 4134 1134 3806 
Q 844 3388 844 2259 
z
" transform="scale(0.015625)"/>
       </defs>
       <use xlink:href="#ArialMT-15"/>
       <use xlink:href="#ArialMT-13" transform="translate(55.609375 0)"/>
       <use xlink:href="#ArialMT-13" transform="translate(111.21875 0)"/>
      </g>
     </g>
    </g>
    <g id="xtick_2">
     <g id="line2d_2">
      <path d="M 126.561009 264.125458 
L 126.561009 7.2 
" clip-path="url(#pb9bb84b513)" style="fill: none; stroke: #cccccc; stroke-linecap: round"/>
     </g>
     <g id="text_2">
      <!-- 400 -->
      <g style="fill: #262626" transform="translate(117.385462 281.633759) scale(0.11 -0.11)">
       <defs>
        <path id="ArialMT-17" d="M 2069 0 
L 2069 1097 
L 81 1097 
L 81 1613 
L 2172 4581 
L 2631 4581 
L 2631 1613 
L 3250 1613 
L 3250 1097 
L 2631 1097 
L 2631 0 
L 2069 0 
z
M 2069 1613 
L 2069 3678 
L 634 1613 
L 2069 1613 
z
" transform="scale(0.015625)"/>
       </defs>
       <use xlink:href="#ArialMT-17"/>
       <use xlink:href="#ArialMT-13" transform="translate(55.609375 0)"/>
       <use xlink:href="#ArialMT-13" transform="translate(111.21875 0)"/>
      </g>
     </g>
    </g>
    <g id="xtick_3">
     <g id="line2d_3">
      <path d="M 188.012965 264.125458 
L 188.012965 7.2 
" clip-path="url(#pb9bb84b513)" style="fill: none; stroke: #cccccc; stroke-linecap: round"/>
     </g>
     <g id="text_3">
      <!-- 600 -->
      <g style="fill: #262626" transform="translate(178.837418 281.633759) scale(0.11 -0.11)">
       <defs>
        <path id="ArialMT-19" d="M 3184 3459 
L 2625 3416 
Q 2550 3747 2413 3897 
Q 2184 4138 1850 4138 
Q 1581 4138 1378 3988 
Q 1113 3794 959 3422 
Q 806 3050 800 2363 
Q 1003 2672 1297 2822 
Q 1591 2972 1913 2972 
Q 2475 2972 2870 2558 
Q 3266 2144 3266 1488 
Q 3266 1056 3080 686 
Q 2894 316 2569 119 
Q 2244 -78 1831 -78 
Q 1128 -78 684 439 
Q 241 956 241 2144 
Q 241 3472 731 4075 
Q 1159 4600 1884 4600 
Q 2425 4600 2770 4297 
Q 3116 3994 3184 3459 
z
M 888 1484 
Q 888 1194 1011 928 
Q 1134 663 1356 523 
Q 1578 384 1822 384 
Q 2178 384 2434 671 
Q 2691 959 2691 1453 
Q 2691 1928 2437 2201 
Q 2184 2475 1800 2475 
Q 1419 2475 1153 2201 
Q 888 1928 888 1484 
z
" transform="scale(0.015625)"/>
       </defs>
       <use xlink:href="#ArialMT-19"/>
       <use xlink:href="#ArialMT-13" transform="translate(55.609375 0)"/>
       <use xlink:href="#ArialMT-13" transform="translate(111.21875 0)"/>
      </g>
     </g>
    </g>
    <g id="xtick_4">
     <g id="line2d_4">
      <path d="M 249.464921 264.125458 
L 249.464921 7.2 
" clip-path="url(#pb9bb84b513)" style="fill: none; stroke: #cccccc; stroke-linecap: round"/>
     </g>
     <g id="text_4">
      <!-- 800 -->
      <g style="fill: #262626" transform="translate(240.289374 281.633759) scale(0.11 -0.11)">
       <defs>
        <path id="ArialMT-1b" d="M 1131 2484 
Q 781 2613 612 2850 
Q 444 3088 444 3419 
Q 444 3919 803 4259 
Q 1163 4600 1759 4600 
Q 2359 4600 2725 4251 
Q 3091 3903 3091 3403 
Q 3091 3084 2923 2848 
Q 2756 2613 2416 2484 
Q 2838 2347 3058 2040 
Q 3278 1734 3278 1309 
Q 3278 722 2862 322 
Q 2447 -78 1769 -78 
Q 1091 -78 675 323 
Q 259 725 259 1325 
Q 259 1772 486 2073 
Q 713 2375 1131 2484 
z
M 1019 3438 
Q 1019 3113 1228 2906 
Q 1438 2700 1772 2700 
Q 2097 2700 2305 2904 
Q 2513 3109 2513 3406 
Q 2513 3716 2298 3927 
Q 2084 4138 1766 4138 
Q 1444 4138 1231 3931 
Q 1019 3725 1019 3438 
z
M 838 1322 
Q 838 1081 952 856 
Q 1066 631 1291 507 
Q 1516 384 1775 384 
Q 2178 384 2440 643 
Q 2703 903 2703 1303 
Q 2703 1709 2433 1975 
Q 2163 2241 1756 2241 
Q 1359 2241 1098 1978 
Q 838 1716 838 1322 
z
" transform="scale(0.015625)"/>
       </defs>
       <use xlink:href="#ArialMT-1b"/>
       <use xlink:href="#ArialMT-13" transform="translate(55.609375 0)"/>
       <use xlink:href="#ArialMT-13" transform="translate(111.21875 0)"/>
      </g>
     </g>
    </g>
    <g id="xtick_5">
     <g id="line2d_5">
      <path d="M 310.916877 264.125458 
L 310.916877 7.2 
" clip-path="url(#pb9bb84b513)" style="fill: none; stroke: #cccccc; stroke-linecap: round"/>
     </g>
     <g id="text_5">
      <!-- 1000 -->
      <g style="fill: #262626" transform="translate(298.682815 281.633759) scale(0.11 -0.11)">
       <defs>
        <path id="ArialMT-14" d="M 2384 0 
L 1822 0 
L 1822 3584 
Q 1619 3391 1289 3197 
Q 959 3003 697 2906 
L 697 3450 
Q 1169 3672 1522 3987 
Q 1875 4303 2022 4600 
L 2384 4600 
L 2384 0 
z
" transform="scale(0.015625)"/>
       </defs>
       <use xlink:href="#ArialMT-14"/>
       <use xlink:href="#ArialMT-13" transform="translate(55.609375 0)"/>
       <use xlink:href="#ArialMT-13" transform="translate(111.21875 0)"/>
       <use xlink:href="#ArialMT-13" transform="translate(166.828125 0)"/>
      </g>
     </g>
    </g>
    <g id="xtick_6">
     <g id="line2d_6">
      <path d="M 372.368833 264.125458 
L 372.368833 7.2 
" clip-path="url(#pb9bb84b513)" style="fill: none; stroke: #cccccc; stroke-linecap: round"/>
     </g>
     <g id="text_6">
      <!-- 1200 -->
      <g style="fill: #262626" transform="translate(360.134771 281.633759) scale(0.11 -0.11)">
       <use xlink:href="#ArialMT-14"/>
       <use xlink:href="#ArialMT-15" transform="translate(55.609375 0)"/>
       <use xlink:href="#ArialMT-13" transform="translate(111.21875 0)"/>
       <use xlink:href="#ArialMT-13" transform="translate(166.828125 0)"/>
      </g>
     </g>
    </g>
   </g>
   <g id="matplotlib.axis_2">
    <g id="ytick_1">
     <g id="line2d_7">
      <path d="M 35.051094 252.478979 
L 414.351094 252.478979 
" clip-path="url(#pb9bb84b513)" style="fill: none; stroke: #cccccc; stroke-linecap: round"/>
     </g>
     <g id="text_7">
      <!-- 100 -->
      <g style="fill: #262626" transform="translate(7.2 256.48313) scale(0.11 -0.11)">
       <use xlink:href="#ArialMT-14"/>
       <use xlink:href="#ArialMT-13" transform="translate(55.609375 0)"/>
       <use xlink:href="#ArialMT-13" transform="translate(111.21875 0)"/>
      </g>
     </g>
    </g>
    <g id="ytick_2">
     <g id="line2d_8">
      <path d="M 35.051094 221.753001 
L 414.351094 221.753001 
" clip-path="url(#pb9bb84b513)" style="fill: none; stroke: #cccccc; stroke-linecap: round"/>
     </g>
     <g id="text_8">
      <!-- 200 -->
      <g style="fill: #262626" transform="translate(7.2 225.757152) scale(0.11 -0.11)">
       <use xlink:href="#ArialMT-15"/>
       <use xlink:href="#ArialMT-13" transform="translate(55.609375 0)"/>
       <use xlink:href="#ArialMT-13" transform="translate(111.21875 0)"/>
      </g>
     </g>
    </g>
    <g id="ytick_3">
     <g id="line2d_9">
      <path d="M 35.051094 191.027023 
L 414.351094 191.027023 
" clip-path="url(#pb9bb84b513)" style="fill: none; stroke: #cccccc; stroke-linecap: round"/>
     </g>
     <g id="text_9">
      <!-- 300 -->
      <g style="fill: #262626" transform="translate(7.2 195.031174) scale(0.11 -0.11)">
       <defs>
        <path id="ArialMT-16" d="M 269 1209 
L 831 1284 
Q 928 806 1161 595 
Q 1394 384 1728 384 
Q 2125 384 2398 659 
Q 2672 934 2672 1341 
Q 2672 1728 2419 1979 
Q 2166 2231 1775 2231 
Q 1616 2231 1378 2169 
L 1441 2663 
Q 1497 2656 1531 2656 
Q 1891 2656 2178 2843 
Q 2466 3031 2466 3422 
Q 2466 3731 2256 3934 
Q 2047 4138 1716 4138 
Q 1388 4138 1169 3931 
Q 950 3725 888 3313 
L 325 3413 
Q 428 3978 793 4289 
Q 1159 4600 1703 4600 
Q 2078 4600 2393 4439 
Q 2709 4278 2876 4000 
Q 3044 3722 3044 3409 
Q 3044 3113 2884 2869 
Q 2725 2625 2413 2481 
Q 2819 2388 3044 2092 
Q 3269 1797 3269 1353 
Q 3269 753 2831 336 
Q 2394 -81 1725 -81 
Q 1122 -81 723 278 
Q 325 638 269 1209 
z
" transform="scale(0.015625)"/>
       </defs>
       <use xlink:href="#ArialMT-16"/>
       <use xlink:href="#ArialMT-13" transform="translate(55.609375 0)"/>
       <use xlink:href="#ArialMT-13" transform="translate(111.21875 0)"/>
      </g>
     </g>
    </g>
    <g id="ytick_4">
     <g id="line2d_10">
      <path d="M 35.051094 160.301045 
L 414.351094 160.301045 
" clip-path="url(#pb9bb84b513)" style="fill: none; stroke: #cccccc; stroke-linecap: round"/>
     </g>
     <g id="text_10">
      <!-- 400 -->
      <g style="fill: #262626" transform="translate(7.2 164.305196) scale(0.11 -0.11)">
       <use xlink:href="#ArialMT-17"/>
       <use xlink:href="#ArialMT-13" transform="translate(55.609375 0)"/>
       <use xlink:href="#ArialMT-13" transform="translate(111.21875 0)"/>
      </g>
     </g>
    </g>
    <g id="ytick_5">
     <g id="line2d_11">
      <path d="M 35.051094 129.575067 
L 414.351094 129.575067 
" clip-path="url(#pb9bb84b513)" style="fill: none; stroke: #cccccc; stroke-linecap: round"/>
     </g>
     <g id="text_11">
      <!-- 500 -->
      <g style="fill: #262626" transform="translate(7.2 133.579218) scale(0.11 -0.11)">
       <defs>
        <path id="ArialMT-18" d="M 266 1200 
L 856 1250 
Q 922 819 1161 601 
Q 1400 384 1738 384 
Q 2144 384 2425 690 
Q 2706 997 2706 1503 
Q 2706 1984 2436 2262 
Q 2166 2541 1728 2541 
Q 1456 2541 1237 2417 
Q 1019 2294 894 2097 
L 366 2166 
L 809 4519 
L 3088 4519 
L 3088 3981 
L 1259 3981 
L 1013 2750 
Q 1425 3038 1878 3038 
Q 2478 3038 2890 2622 
Q 3303 2206 3303 1553 
Q 3303 931 2941 478 
Q 2500 -78 1738 -78 
Q 1113 -78 717 272 
Q 322 622 266 1200 
z
" transform="scale(0.015625)"/>
       </defs>
       <use xlink:href="#ArialMT-18"/>
       <use xlink:href="#ArialMT-13" transform="translate(55.609375 0)"/>
       <use xlink:href="#ArialMT-13" transform="translate(111.21875 0)"/>
      </g>
     </g>
    </g>
    <g id="ytick_6">
     <g id="line2d_12">
      <path d="M 35.051094 98.849089 
L 414.351094 98.849089 
" clip-path="url(#pb9bb84b513)" style="fill: none; stroke: #cccccc; stroke-linecap: round"/>
     </g>
     <g id="text_12">
      <!-- 600 -->
      <g style="fill: #262626" transform="translate(7.2 102.853239) scale(0.11 -0.11)">
       <use xlink:href="#ArialMT-19"/>
       <use xlink:href="#ArialMT-13" transform="translate(55.609375 0)"/>
       <use xlink:href="#ArialMT-13" transform="translate(111.21875 0)"/>
      </g>
     </g>
    </g>
    <g id="ytick_7">
     <g id="line2d_13">
      <path d="M 35.051094 68.123111 
L 414.351094 68.123111 
" clip-path="url(#pb9bb84b513)" style="fill: none; stroke: #cccccc; stroke-linecap: round"/>
     </g>
     <g id="text_13">
      <!-- 700 -->
      <g style="fill: #262626" transform="translate(7.2 72.127261) scale(0.11 -0.11)">
       <defs>
        <path id="ArialMT-1a" d="M 303 3981 
L 303 4522 
L 3269 4522 
L 3269 4084 
Q 2831 3619 2401 2847 
Q 1972 2075 1738 1259 
Q 1569 684 1522 0 
L 944 0 
Q 953 541 1156 1306 
Q 1359 2072 1739 2783 
Q 2119 3494 2547 3981 
L 303 3981 
z
" transform="scale(0.015625)"/>
       </defs>
       <use xlink:href="#ArialMT-1a"/>
       <use xlink:href="#ArialMT-13" transform="translate(55.609375 0)"/>
       <use xlink:href="#ArialMT-13" transform="translate(111.21875 0)"/>
      </g>
     </g>
    </g>
    <g id="ytick_8">
     <g id="line2d_14">
      <path d="M 35.051094 37.397133 
L 414.351094 37.397133 
" clip-path="url(#pb9bb84b513)" style="fill: none; stroke: #cccccc; stroke-linecap: round"/>
     </g>
     <g id="text_14">
      <!-- 800 -->
      <g style="fill: #262626" transform="translate(7.2 41.401283) scale(0.11 -0.11)">
       <use xlink:href="#ArialMT-1b"/>
       <use xlink:href="#ArialMT-13" transform="translate(55.609375 0)"/>
       <use xlink:href="#ArialMT-13" transform="translate(111.21875 0)"/>
      </g>
     </g>
    </g>
   </g>
   <g id="patch_3">
    <path d="M 356.355055 252.447028 
L 52.292003 170.967811 
L 93.047113 18.87843 
L 397.110185 100.357651 
L 356.355055 252.447028 
z
" clip-path="url(#pb9bb84b513)" style="fill: none; stroke: #008000; stroke-width: 2; stroke-linejoin: miter"/>
   </g>
   <g id="line2d_15">
    <defs>
     <path id="m9a3341318d" d="M 0 3 
C 0.795609 3 1.55874 2.683901 2.12132 2.12132 
C 2.683901 1.55874 3 0.795609 3 0 
C 3 -0.795609 2.683901 -1.55874 2.12132 -2.12132 
C 1.55874 -2.683901 0.795609 -3 0 -3 
C -0.795609 -3 -1.55874 -2.683901 -2.12132 -2.12132 
C -2.683901 -1.55874 -3 -0.795609 -3 0 
C -3 0.795609 -2.683901 1.55874 -2.12132 2.12132 
C -1.55874 2.683901 -0.795609 3 0 3 
z
" style="stroke: #2b8cbe"/>
    </defs>
    <g clip-path="url(#pb9bb84b513)">
     <use xlink:href="#m9a3341318d" x="131.163361" y="29.132137" style="fill: #2b8cbe; stroke: #2b8cbe"/>
     <use xlink:href="#m9a3341318d" x="168.990952" y="39.259164" style="fill: #2b8cbe; stroke: #2b8cbe"/>
     <use xlink:href="#m9a3341318d" x="207.065734" y="49.431781" style="fill: #2b8cbe; stroke: #2b8cbe"/>
     <use xlink:href="#m9a3341318d" x="82.923425" y="57.015925" style="fill: #2b8cbe; stroke: #2b8cbe"/>
     <use xlink:href="#m9a3341318d" x="164.054747" y="58.298843" style="fill: #2b8cbe; stroke: #2b8cbe"/>
     <use xlink:href="#m9a3341318d" x="245.120282" y="59.797766" style="fill: #2b8cbe; stroke: #2b8cbe"/>
     <use xlink:href="#m9a3341318d" x="120.979276" y="67.178696" style="fill: #2b8cbe; stroke: #2b8cbe"/>
     <use xlink:href="#m9a3341318d" x="77.750015" y="76.048384" style="fill: #2b8cbe; stroke: #2b8cbe"/>
     <use xlink:href="#m9a3341318d" x="239.915094" y="78.631268" style="fill: #2b8cbe; stroke: #2b8cbe"/>
     <use xlink:href="#m9a3341318d" x="153.860302" y="96.37402" style="fill: #2b8cbe; stroke: #2b8cbe"/>
     <use xlink:href="#m9a3341318d" x="315.880049" y="99.127168" style="fill: #2b8cbe; stroke: #2b8cbe"/>
     <use xlink:href="#m9a3341318d" x="396.953929" y="100.38777" style="fill: #2b8cbe; stroke: #2b8cbe"/>
     <use xlink:href="#m9a3341318d" x="191.715929" y="106.539285" style="fill: #2b8cbe; stroke: #2b8cbe"/>
     <use xlink:href="#m9a3341318d" x="353.944724" y="109.272367" style="fill: #2b8cbe; stroke: #2b8cbe"/>
     <use xlink:href="#m9a3341318d" x="67.581435" y="113.910913" style="fill: #2b8cbe; stroke: #2b8cbe"/>
     <use xlink:href="#m9a3341318d" x="148.686657" y="115.426114" style="fill: #2b8cbe; stroke: #2b8cbe"/>
     <use xlink:href="#m9a3341318d" x="105.644099" y="124.07631" style="fill: #2b8cbe; stroke: #2b8cbe"/>
     <use xlink:href="#m9a3341318d" x="186.760859" y="125.541289" style="fill: #2b8cbe; stroke: #2b8cbe"/>
     <use xlink:href="#m9a3341318d" x="267.86994" y="126.817277" style="fill: #2b8cbe; stroke: #2b8cbe"/>
     <use xlink:href="#m9a3341318d" x="62.603209" y="132.953996" style="fill: #2b8cbe; stroke: #2b8cbe"/>
     <use xlink:href="#m9a3341318d" x="305.731962" y="136.968421" style="fill: #2b8cbe; stroke: #2b8cbe"/>
     <use xlink:href="#m9a3341318d" x="386.802054" y="138.460808" style="fill: #2b8cbe; stroke: #2b8cbe"/>
     <use xlink:href="#m9a3341318d" x="181.60053" y="144.576664" style="fill: #2b8cbe; stroke: #2b8cbe"/>
     <use xlink:href="#m9a3341318d" x="262.673341" y="145.87361" style="fill: #2b8cbe; stroke: #2b8cbe"/>
     <use xlink:href="#m9a3341318d" x="343.771507" y="147.119856" style="fill: #2b8cbe; stroke: #2b8cbe"/>
     <use xlink:href="#m9a3341318d" x="57.437624" y="151.972343" style="fill: #2b8cbe; stroke: #2b8cbe"/>
     <use xlink:href="#m9a3341318d" x="138.567179" y="153.274794" style="fill: #2b8cbe; stroke: #2b8cbe"/>
     <use xlink:href="#m9a3341318d" x="381.619108" y="157.494562" style="fill: #2b8cbe; stroke: #2b8cbe"/>
     <use xlink:href="#m9a3341318d" x="338.562681" y="166.173816" style="fill: #2b8cbe; stroke: #2b8cbe"/>
     <use xlink:href="#m9a3341318d" x="133.358541" y="172.290844" style="fill: #2b8cbe; stroke: #2b8cbe"/>
     <use xlink:href="#m9a3341318d" x="295.528496" y="175.03739" style="fill: #2b8cbe; stroke: #2b8cbe"/>
     <use xlink:href="#m9a3341318d" x="90.332785" y="181.161526" style="fill: #2b8cbe; stroke: #2b8cbe"/>
     <use xlink:href="#m9a3341318d" x="171.416999" y="182.449001" style="fill: #2b8cbe; stroke: #2b8cbe"/>
     <use xlink:href="#m9a3341318d" x="333.610255" y="185.198633" style="fill: #2b8cbe; stroke: #2b8cbe"/>
     <use xlink:href="#m9a3341318d" x="128.348851" y="191.288768" style="fill: #2b8cbe; stroke: #2b8cbe"/>
     <use xlink:href="#m9a3341318d" x="290.375912" y="194.078589" style="fill: #2b8cbe; stroke: #2b8cbe"/>
     <use xlink:href="#m9a3341318d" x="371.484636" y="195.354756" style="fill: #2b8cbe; stroke: #2b8cbe"/>
     <use xlink:href="#m9a3341318d" x="166.245642" y="201.464254" style="fill: #2b8cbe; stroke: #2b8cbe"/>
     <use xlink:href="#m9a3341318d" x="328.433235" y="204.23473" style="fill: #2b8cbe; stroke: #2b8cbe"/>
     <use xlink:href="#m9a3341318d" x="361.320271" y="233.413743" style="fill: #2b8cbe; stroke: #2b8cbe"/>
     <use xlink:href="#m9a3341318d" x="318.28226" y="242.100466" style="fill: #2b8cbe; stroke: #2b8cbe"/>
     <use xlink:href="#m9a3341318d" x="356.355093" y="252.447028" style="fill: #2b8cbe; stroke: #2b8cbe"/>
    </g>
   </g>
   <g id="patch_4">
    <path d="M 35.051094 264.125458 
L 35.051094 7.2 
" style="fill: none; stroke: #cccccc; stroke-width: 1.25; stroke-linejoin: miter; stroke-linecap: square"/>
   </g>
   <g id="patch_5">
    <path d="M 414.351094 264.125458 
L 414.351094 7.2 
" style="fill: none; stroke: #cccccc; stroke-width: 1.25; stroke-linejoin: miter; stroke-linecap: square"/>
   </g>
   <g id="patch_6">
    <path d="M 35.051094 264.125458 
L 414.351094 264.125458 
" style="fill: none; stroke: #cccccc; stroke-width: 1.25; stroke-linejoin: miter; stroke-linecap: square"/>
   </g>
   <g id="patch_7">
    <path d="M 35.051094 7.2 
L 414.351094 7.2 
" style="fill: none; stroke: #cccccc; stroke-width: 1.25; stroke-linejoin: miter; stroke-linecap: square"/>
   </g>
  </g>
 </g>
 <defs>
  <clipPath id="pb9bb84b513">
   <rect x="35.051094" y="7.2" width="379.3" height="256.925458"/>
  </clipPath>
 </defs>
</svg>
