<?xml version="1.0" encoding="utf-8" standalone="no"?>
<!DOCTYPE svg PUBLIC "-//W3C//DTD SVG 1.1//EN"
  "http://www.w3.org/Graphics/SVG/1.1/DTD/svg11.dtd">
<svg xmlns:xlink="http://www.w3.org/1999/xlink" width="421.496016pt" height="265.875026pt" viewBox="0 0 421.496016 265.875026" xmlns="http://www.w3.org/2000/svg" version="1.1">
 <metadata>
  <rdf:RDF xmlns:dc="http://purl.org/dc/elements/1.1/" xmlns:cc="http://creativecommons.org/ns#" xmlns:rdf="http://www.w3.org/1999/02/22-rdf-syntax-ns#">
   <cc:Work>
    <dc:type rdf:resource="http://purl.org/dc/dcmitype/StillImage"/>
    <dc:date>2026-07-21T10:06:54.795425</dc:date>
    <dc:format>image/svg+xml</dc:format>
    <dc:creator>
     <cc:Agent>
      <dc:title>Matplotlib v3.11.1, https://matplotlib.org/</dc:title>
     </cc:Agent>
    </dc:creator>
   </cc:Work>
  </rdf:RDF>
 </metadata>
 <defs>
  <style type="text/css">*{stroke-linejoin: round; stroke-linecap: butt}</style>
 </defs>
 <g id="figure_1">
  <g id="patch_1">
   <path d="M 0 265.875026 
L 421.496016 265.875026 
L 421.496016 0 
L 0 0 
z
" style="fill: #ffffff"/>
  </g>
  <g id="axes_1">
   <g id="patch_2">
    <path d="M 56.737734 223.590065 
L 414.296016 223.590065 
L 414.296016 21.936328 
L 56.737734 21.936328 
z
" style="fill: #ffffff"/>
   </g>
   <g id="matplotlib.axis_1">
    <g id="xtick_1">
     <g id="line2d_1">
      <path d="M 73.141255 223.590065 
L 73.141255 21.936328 
" clip-path="url(#p3a5e839b4b)" style="fill: none; stroke: #cccccc; stroke-linecap: round"/>
     </g>
     <g id="text_1">
      <!-- −1000 -->
      <g style="fill: #262626" transform="translate(57.694849 241.098366) scale(0.11 -0.11)">
       <defs>
        <path id="ArialMT-ed" d="M 3381 1997 
L 356 1997 
L 356 2522 
L 3381 2522 
L 3381 1997 
z
" transform="scale(0.015625)"/>
        <path id="ArialMT-14" d="M 2384 0 
L 1822 0 
L 1822 3584 
Q 1619 3391 1289 3197 
Q 959 3003 697 2906 
L 697 3450 
Q 1169 3672 1522 3987 
Q 1875 4303 2022 4600 
L 2384 4600 
L 2384 0 
z
" transform="scale(0.015625)"/>
        <path id="ArialMT-13" d="M 266 2259 
Q 266 3072 433 3567 
Q 600 4063 929 4331 
Q 1259 4600 1759 4600 
Q 2128 4600 2406 4451 
Q 2684 4303 2865 4023 
Q 3047 3744 3150 3342 
Q 3253 2941 3253 2259 
Q 3253 1453 3087 958 
Q 2922 463 2592 192 
Q 2263 -78 1759 -78 
Q 1097 -78 719 397 
Q 266 969 266 2259 
z
M 844 2259 
Q 844 1131 1108 757 
Q 1372 384 1759 384 
Q 2147 384 2411 759 
Q 2675 1134 2675 2259 
Q 2675 3391 2411 3762 
Q 2147 4134 1753 4134 
Q 1366 4134 1134 3806 
Q 844 3388 844 2259 
z
" transform="scale(0.015625)"/>
       </defs>
       <use xlink:href="#ArialMT-ed"/>
       <use xlink:href="#ArialMT-14" transform="translate(58.40625 0)"/>
       <use xlink:href="#ArialMT-13" transform="translate(114.015625 0)"/>
       <use xlink:href="#ArialMT-13" transform="translate(169.625 0)"/>
       <use xlink:href="#ArialMT-13" transform="translate(225.234375 0)"/>
      </g>
     </g>
    </g>
    <g id="xtick_2">
     <g id="line2d_2">
      <path d="M 146.122527 223.590065 
L 146.122527 21.936328 
" clip-path="url(#p3a5e839b4b)" style="fill: none; stroke: #cccccc; stroke-linecap: round"/>
     </g>
     <g id="text_2">
      <!-- −500 -->
      <g style="fill: #262626" transform="translate(133.734636 241.098366) scale(0.11 -0.11)">
       <defs>
        <path id="ArialMT-18" d="M 266 1200 
L 856 1250 
Q 922 819 1161 601 
Q 1400 384 1738 384 
Q 2144 384 2425 690 
Q 2706 997 2706 1503 
Q 2706 1984 2436 2262 
Q 2166 2541 1728 2541 
Q 1456 2541 1237 2417 
Q 1019 2294 894 2097 
L 366 2166 
L 809 4519 
L 3088 4519 
L 3088 3981 
L 1259 3981 
L 1013 2750 
Q 1425 3038 1878 3038 
Q 2478 3038 2890 2622 
Q 3303 2206 3303 1553 
Q 3303 931 2941 478 
Q 2500 -78 1738 -78 
Q 1113 -78 717 272 
Q 322 622 266 1200 
z
" transform="scale(0.015625)"/>
       </defs>
       <use xlink:href="#ArialMT-ed"/>
       <use xlink:href="#ArialMT-18" transform="translate(58.40625 0)"/>
       <use xlink:href="#ArialMT-13" transform="translate(114.015625 0)"/>
       <use xlink:href="#ArialMT-13" transform="translate(169.625 0)"/>
      </g>
     </g>
    </g>
    <g id="xtick_3">
     <g id="line2d_3">
      <path d="M 219.103799 223.590065 
L 219.103799 21.936328 
" clip-path="url(#p3a5e839b4b)" style="fill: none; stroke: #cccccc; stroke-linecap: round"/>
     </g>
     <g id="text_3">
      <!-- 0 -->
      <g style="fill: #262626" transform="translate(216.045284 241.098366) scale(0.11 -0.11)">
       <use xlink:href="#ArialMT-13"/>
      </g>
     </g>
    </g>
    <g id="xtick_4">
     <g id="line2d_4">
      <path d="M 292.085072 223.590065 
L 292.085072 21.936328 
" clip-path="url(#p3a5e839b4b)" style="fill: none; stroke: #cccccc; stroke-linecap: round"/>
     </g>
     <g id="text_4">
      <!-- 500 -->
      <g style="fill: #262626" transform="translate(282.909525 241.098366) scale(0.11 -0.11)">
       <use xlink:href="#ArialMT-18"/>
       <use xlink:href="#ArialMT-13" transform="translate(55.609375 0)"/>
       <use xlink:href="#ArialMT-13" transform="translate(111.21875 0)"/>
      </g>
     </g>
    </g>
    <g id="xtick_5">
     <g id="line2d_5">
      <path d="M 365.066344 223.590065 
L 365.066344 21.936328 
" clip-path="url(#p3a5e839b4b)" style="fill: none; stroke: #cccccc; stroke-linecap: round"/>
     </g>
     <g id="text_5">
      <!-- 1000 -->
      <g style="fill: #262626" transform="translate(352.832281 241.098366) scale(0.11 -0.11)">
       <use xlink:href="#ArialMT-14"/>
       <use xlink:href="#ArialMT-13" transform="translate(55.609375 0)"/>
       <use xlink:href="#ArialMT-13" transform="translate(111.21875 0)"/>
       <use xlink:href="#ArialMT-13" transform="translate(166.828125 0)"/>
      </g>
     </g>
    </g>
    <g id="text_6">
     <!-- Δx -->
     <g style="fill: #262626" transform="translate(228.509062 256.149636) scale(0.12 -0.12)">
      <defs>
       <path id="ArialMT-1fb" d="M -6 0 
L 1753 4581 
L 2406 4581 
L 4281 0 
L -6 0 
z
M 834 541 
L 3381 541 
L 2391 3150 
Q 2169 3738 2066 4100 
Q 1981 3675 1819 3225 
L 834 541 
z
" transform="scale(0.015625)"/>
       <path id="ArialMT-5b" d="M 47 0 
L 1259 1725 
L 138 3319 
L 841 3319 
L 1350 2541 
Q 1494 2319 1581 2169 
Q 1719 2375 1834 2534 
L 2394 3319 
L 3066 3319 
L 1919 1756 
L 3153 0 
L 2463 0 
L 1781 1031 
L 1600 1309 
L 728 0 
L 47 0 
z
" transform="scale(0.015625)"/>
      </defs>
      <use xlink:href="#ArialMT-1fb"/>
      <use xlink:href="#ArialMT-5b" transform="translate(66.796875 0)"/>
     </g>
    </g>
   </g>
   <g id="matplotlib.axis_2">
    <g id="ytick_1">
     <g id="line2d_6">
      <path d="M 56.737734 195.738723 
L 414.296016 195.738723 
" clip-path="url(#p3a5e839b4b)" style="fill: none; stroke: #cccccc; stroke-linecap: round"/>
     </g>
     <g id="text_7">
      <!-- −400 -->
      <g style="fill: #262626" transform="translate(22.461953 199.742873) scale(0.11 -0.11)">
       <defs>
        <path id="ArialMT-17" d="M 2069 0 
L 2069 1097 
L 81 1097 
L 81 1613 
L 2172 4581 
L 2631 4581 
L 2631 1613 
L 3250 1613 
L 3250 1097 
L 2631 1097 
L 2631 0 
L 2069 0 
z
M 2069 1613 
L 2069 3678 
L 634 1613 
L 2069 1613 
z
" transform="scale(0.015625)"/>
       </defs>
       <use xlink:href="#ArialMT-ed"/>
       <use xlink:href="#ArialMT-17" transform="translate(58.40625 0)"/>
       <use xlink:href="#ArialMT-13" transform="translate(114.015625 0)"/>
       <use xlink:href="#ArialMT-13" transform="translate(169.625 0)"/>
      </g>
     </g>
    </g>
    <g id="ytick_2">
     <g id="line2d_7">
      <path d="M 56.737734 166.546214 
L 414.296016 166.546214 
" clip-path="url(#p3a5e839b4b)" style="fill: none; stroke: #cccccc; stroke-linecap: round"/>
     </g>
     <g id="text_8">
      <!-- −200 -->
      <g style="fill: #262626" transform="translate(22.461953 170.550364) scale(0.11 -0.11)">
       <defs>
        <path id="ArialMT-15" d="M 3222 541 
L 3222 0 
L 194 0 
Q 188 203 259 391 
Q 375 700 629 1000 
Q 884 1300 1366 1694 
Q 2113 2306 2375 2664 
Q 2638 3022 2638 3341 
Q 2638 3675 2398 3904 
Q 2159 4134 1775 4134 
Q 1369 4134 1125 3890 
Q 881 3647 878 3216 
L 300 3275 
Q 359 3922 746 4261 
Q 1134 4600 1788 4600 
Q 2447 4600 2831 4234 
Q 3216 3869 3216 3328 
Q 3216 3053 3103 2787 
Q 2991 2522 2730 2228 
Q 2469 1934 1863 1422 
Q 1356 997 1212 845 
Q 1069 694 975 541 
L 3222 541 
z
" transform="scale(0.015625)"/>
       </defs>
       <use xlink:href="#ArialMT-ed"/>
       <use xlink:href="#ArialMT-15" transform="translate(58.40625 0)"/>
       <use xlink:href="#ArialMT-13" transform="translate(114.015625 0)"/>
       <use xlink:href="#ArialMT-13" transform="translate(169.625 0)"/>
      </g>
     </g>
    </g>
    <g id="ytick_3">
     <g id="line2d_8">
      <path d="M 56.737734 137.353705 
L 414.296016 137.353705 
" clip-path="url(#p3a5e839b4b)" style="fill: none; stroke: #cccccc; stroke-linecap: round"/>
     </g>
     <g id="text_9">
      <!-- 0 -->
      <g style="fill: #262626" transform="translate(41.120703 141.357855) scale(0.11 -0.11)">
       <use xlink:href="#ArialMT-13"/>
      </g>
     </g>
    </g>
    <g id="ytick_4">
     <g id="line2d_9">
      <path d="M 56.737734 108.161196 
L 414.296016 108.161196 
" clip-path="url(#p3a5e839b4b)" style="fill: none; stroke: #cccccc; stroke-linecap: round"/>
     </g>
     <g id="text_10">
      <!-- 200 -->
      <g style="fill: #262626" transform="translate(28.886641 112.165347) scale(0.11 -0.11)">
       <use xlink:href="#ArialMT-15"/>
       <use xlink:href="#ArialMT-13" transform="translate(55.609375 0)"/>
       <use xlink:href="#ArialMT-13" transform="translate(111.21875 0)"/>
      </g>
     </g>
    </g>
    <g id="ytick_5">
     <g id="line2d_10">
      <path d="M 56.737734 78.968687 
L 414.296016 78.968687 
" clip-path="url(#p3a5e839b4b)" style="fill: none; stroke: #cccccc; stroke-linecap: round"/>
     </g>
     <g id="text_11">
      <!-- 400 -->
      <g style="fill: #262626" transform="translate(28.886641 82.972838) scale(0.11 -0.11)">
       <use xlink:href="#ArialMT-17"/>
       <use xlink:href="#ArialMT-13" transform="translate(55.609375 0)"/>
       <use xlink:href="#ArialMT-13" transform="translate(111.21875 0)"/>
      </g>
     </g>
    </g>
    <g id="ytick_6">
     <g id="line2d_11">
      <path d="M 56.737734 49.776178 
L 414.296016 49.776178 
" clip-path="url(#p3a5e839b4b)" style="fill: none; stroke: #cccccc; stroke-linecap: round"/>
     </g>
     <g id="text_12">
      <!-- 600 -->
      <g style="fill: #262626" transform="translate(28.886641 53.780329) scale(0.11 -0.11)">
       <defs>
        <path id="ArialMT-19" d="M 3184 3459 
L 2625 3416 
Q 2550 3747 2413 3897 
Q 2184 4138 1850 4138 
Q 1581 4138 1378 3988 
Q 1113 3794 959 3422 
Q 806 3050 800 2363 
Q 1003 2672 1297 2822 
Q 1591 2972 1913 2972 
Q 2475 2972 2870 2558 
Q 3266 2144 3266 1488 
Q 3266 1056 3080 686 
Q 2894 316 2569 119 
Q 2244 -78 1831 -78 
Q 1128 -78 684 439 
Q 241 956 241 2144 
Q 241 3472 731 4075 
Q 1159 4600 1884 4600 
Q 2425 4600 2770 4297 
Q 3116 3994 3184 3459 
z
M 888 1484 
Q 888 1194 1011 928 
Q 1134 663 1356 523 
Q 1578 384 1822 384 
Q 2178 384 2434 671 
Q 2691 959 2691 1453 
Q 2691 1928 2437 2201 
Q 2184 2475 1800 2475 
Q 1419 2475 1153 2201 
Q 888 1928 888 1484 
z
" transform="scale(0.015625)"/>
       </defs>
       <use xlink:href="#ArialMT-19"/>
       <use xlink:href="#ArialMT-13" transform="translate(55.609375 0)"/>
       <use xlink:href="#ArialMT-13" transform="translate(111.21875 0)"/>
      </g>
     </g>
    </g>
    <g id="text_13">
     <!-- Δy -->
     <g style="fill: #262626" transform="translate(15.936328 129.771009) rotate(-90) scale(0.12 -0.12)">
      <defs>
       <path id="ArialMT-5c" d="M 397 -1278 
L 334 -750 
Q 519 -800 656 -800 
Q 844 -800 956 -737 
Q 1069 -675 1141 -563 
Q 1194 -478 1313 -144 
Q 1328 -97 1363 -6 
L 103 3319 
L 709 3319 
L 1400 1397 
Q 1534 1031 1641 628 
Q 1738 1016 1872 1384 
L 2581 3319 
L 3144 3319 
L 1881 -56 
Q 1678 -603 1566 -809 
Q 1416 -1088 1222 -1217 
Q 1028 -1347 759 -1347 
Q 597 -1347 397 -1278 
z
" transform="scale(0.015625)"/>
      </defs>
      <use xlink:href="#ArialMT-1fb"/>
      <use xlink:href="#ArialMT-5c" transform="translate(66.796875 0)"/>
     </g>
    </g>
   </g>
   <g id="PathCollection_1">
    <defs>
     <path id="m0ff9639186" d="M 0 2.236068 
C 0.593012 2.236068 1.161816 2.000462 1.581139 1.581139 
C 2.000462 1.161816 2.236068 0.593012 2.236068 0 
C 2.236068 -0.593012 2.000462 -1.161816 1.581139 -1.581139 
C 1.161816 -2.000462 0.593012 -2.236068 0 -2.236068 
C -0.593012 -2.236068 -1.161816 -2.000462 -1.581139 -1.581139 
C -2.000462 -1.161816 -2.236068 -0.593012 -2.236068 0 
C -2.236068 0.593012 -2.000462 1.161816 -1.581139 1.581139 
C -1.161816 2.000462 -0.593012 2.236068 0 2.236068 
z
" style="stroke: #2b8cbe; stroke-opacity: 0.6"/>
    </defs>
    <g clip-path="url(#p3a5e839b4b)">
     <use xlink:href="#m0ff9639186" x="283.048263" y="31.102407" style="fill: #2b8cbe; fill-opacity: 0.6; stroke: #2b8cbe; stroke-opacity: 0.6"/>
     <use xlink:href="#m0ff9639186" x="258.052319" y="38.540546" style="fill: #2b8cbe; fill-opacity: 0.6; stroke: #2b8cbe; stroke-opacity: 0.6"/>
     <use xlink:href="#m0ff9639186" x="329.044465" y="39.250305" style="fill: #2b8cbe; fill-opacity: 0.6; stroke: #2b8cbe; stroke-opacity: 0.6"/>
     <use xlink:href="#m0ff9639186" x="375.010648" y="47.304178" style="fill: #2b8cbe; fill-opacity: 0.6; stroke: #2b8cbe; stroke-opacity: 0.6"/>
     <use xlink:href="#m0ff9639186" x="256.027938" y="50.064237" style="fill: #2b8cbe; fill-opacity: 0.6; stroke: #2b8cbe; stroke-opacity: 0.6"/>
     <use xlink:href="#m0ff9639186" x="326.998699" y="50.671553" style="fill: #2b8cbe; fill-opacity: 0.6; stroke: #2b8cbe; stroke-opacity: 0.6"/>
     <use xlink:href="#m0ff9639186" x="398.043366" y="51.384341" style="fill: #2b8cbe; fill-opacity: 0.6; stroke: #2b8cbe; stroke-opacity: 0.6"/>
     <use xlink:href="#m0ff9639186" x="350.022847" y="54.742762" style="fill: #2b8cbe; fill-opacity: 0.6; stroke: #2b8cbe; stroke-opacity: 0.6"/>
     <use xlink:href="#m0ff9639186" x="302.011309" y="58.116997" style="fill: #2b8cbe; fill-opacity: 0.6; stroke: #2b8cbe; stroke-opacity: 0.6"/>
     <use xlink:href="#m0ff9639186" x="396.013147" y="62.894807" style="fill: #2b8cbe; fill-opacity: 0.6; stroke: #2b8cbe; stroke-opacity: 0.6"/>
     <use xlink:href="#m0ff9639186" x="371.043343" y="70.340892" style="fill: #2b8cbe; fill-opacity: 0.6; stroke: #2b8cbe; stroke-opacity: 0.6"/>
     <use xlink:href="#m0ff9639186" x="323.001451" y="73.709546" style="fill: #2b8cbe; fill-opacity: 0.6; stroke: #2b8cbe; stroke-opacity: 0.6"/>
     <use xlink:href="#m0ff9639186" x="393.97687" y="74.426271" style="fill: #2b8cbe; fill-opacity: 0.6; stroke: #2b8cbe; stroke-opacity: 0.6"/>
     <use xlink:href="#m0ff9639186" x="345.947184" y="77.79582" style="fill: #2b8cbe; fill-opacity: 0.6; stroke: #2b8cbe; stroke-opacity: 0.6"/>
     <use xlink:href="#m0ff9639186" x="249.899734" y="84.524182" style="fill: #2b8cbe; fill-opacity: 0.6; stroke: #2b8cbe; stroke-opacity: 0.6"/>
     <use xlink:href="#m0ff9639186" x="320.978306" y="85.237607" style="fill: #2b8cbe; fill-opacity: 0.6; stroke: #2b8cbe; stroke-opacity: 0.6"/>
     <use xlink:href="#m0ff9639186" x="391.93539" y="85.849845" style="fill: #2b8cbe; fill-opacity: 0.6; stroke: #2b8cbe; stroke-opacity: 0.6"/>
     <use xlink:href="#m0ff9639186" x="272.943341" y="88.602371" style="fill: #2b8cbe; fill-opacity: 0.6; stroke: #2b8cbe; stroke-opacity: 0.6"/>
     <use xlink:href="#m0ff9639186" x="343.904911" y="89.308611" style="fill: #2b8cbe; fill-opacity: 0.6; stroke: #2b8cbe; stroke-opacity: 0.6"/>
     <use xlink:href="#m0ff9639186" x="295.900018" y="92.67742" style="fill: #2b8cbe; fill-opacity: 0.6; stroke: #2b8cbe; stroke-opacity: 0.6"/>
     <use xlink:href="#m0ff9639186" x="389.903157" y="97.364373" style="fill: #2b8cbe; fill-opacity: 0.6; stroke: #2b8cbe; stroke-opacity: 0.6"/>
     <use xlink:href="#m0ff9639186" x="270.90558" y="100.128681" style="fill: #2b8cbe; fill-opacity: 0.6; stroke: #2b8cbe; stroke-opacity: 0.6"/>
     <use xlink:href="#m0ff9639186" x="341.889088" y="100.730846" style="fill: #2b8cbe; fill-opacity: 0.6; stroke: #2b8cbe; stroke-opacity: 0.6"/>
     <use xlink:href="#m0ff9639186" x="293.85272" y="104.195109" style="fill: #2b8cbe; fill-opacity: 0.6; stroke: #2b8cbe; stroke-opacity: 0.6"/>
     <use xlink:href="#m0ff9639186" x="364.914395" y="104.814162" style="fill: #2b8cbe; fill-opacity: 0.6; stroke: #2b8cbe; stroke-opacity: 0.6"/>
     <use xlink:href="#m0ff9639186" x="316.89621" y="108.172689" style="fill: #2b8cbe; fill-opacity: 0.6; stroke: #2b8cbe; stroke-opacity: 0.6"/>
    </g>
   </g>
   <g id="patch_3">
    <path d="M 143.960475 159.690233 
L 144.055012 159.624063 
L 144.065388 159.658971 
L 219.103777 137.353634 
L 219.103818 137.353774 
L 144.06543 159.659111 
L 144.075806 159.694019 
z
" clip-path="url(#p3a5e839b4b)" style="fill: #808080; opacity: 0.08; stroke: #808080; stroke-linejoin: miter"/>
   </g>
   <g id="patch_4">
    <path d="M 263.056668 156.924022 
L 262.941819 156.912829 
L 262.956632 156.879561 
L 219.10377 137.353771 
L 219.103829 137.353638 
L 262.956691 156.879427 
L 262.971504 156.846158 
z
" clip-path="url(#p3a5e839b4b)" style="fill: #808080; opacity: 0.08; stroke: #808080; stroke-linejoin: miter"/>
   </g>
   <g id="patch_5">
    <path d="M 237.963614 164.377186 
L 237.871039 164.308299 
L 237.900902 164.287457 
L 219.10374 137.353747 
L 219.10386 137.353664 
L 237.901022 164.287373 
L 237.930886 164.266531 
z
" clip-path="url(#p3a5e839b4b)" style="fill: #808080; opacity: 0.08; stroke: #808080; stroke-linejoin: miter"/>
   </g>
   <g id="patch_6">
    <path d="M 357.064632 161.707966 
L 356.950483 161.72487 
L 356.956814 161.689007 
L 219.10379 137.353778 
L 219.103816 137.353634 
L 356.956839 161.688864 
L 356.96317 161.653 
z
" clip-path="url(#p3a5e839b4b)" style="fill: #808080; opacity: 0.08; stroke: #808080; stroke-linejoin: miter"/>
   </g>
   <g id="patch_7">
    <path d="M 261.016342 168.460787 
L 260.906688 168.424846 
L 260.928392 168.395603 
L 219.103755 137.353764 
L 219.103842 137.353647 
L 260.928479 168.395486 
L 260.950183 168.366243 
z
" clip-path="url(#p3a5e839b4b)" style="fill: #808080; opacity: 0.08; stroke: #808080; stroke-linejoin: miter"/>
   </g>
   <g id="patch_8">
    <path d="M 242.147407 141.431894 
L 242.033251 141.448749 
L 242.039597 141.412889 
L 219.103787 137.353777 
L 219.103812 137.353633 
L 242.039623 141.412745 
L 242.045969 141.376885 
z
" clip-path="url(#p3a5e839b4b)" style="fill: #808080; opacity: 0.08; stroke: #808080; stroke-linejoin: miter"/>
   </g>
   <g id="patch_9">
    <path d="M 265.09287 145.407131 
L 264.978744 145.424192 
L 264.985026 145.38832 
L 219.103788 137.353777 
L 219.103813 137.353633 
L 264.985051 145.388176 
L 264.991333 145.352304 
z
" clip-path="url(#p3a5e839b4b)" style="fill: #808080; opacity: 0.08; stroke: #808080; stroke-linejoin: miter"/>
   </g>
   <g id="patch_10">
    <path d="M 263.148443 157.023044 
L 263.033606 157.011725 
L 263.048455 156.978472 
L 219.103771 137.353772 
L 219.10383 137.353638 
L 263.048515 156.978339 
L 263.063365 156.945086 
z
" clip-path="url(#p3a5e839b4b)" style="fill: #808080; opacity: 0.08; stroke: #808080; stroke-linejoin: miter"/>
   </g>
   <g id="patch_11">
    <path d="M 139.986532 182.739624 
L 140.063332 182.653499 
L 140.081453 182.685088 
L 219.103765 137.353642 
L 219.103838 137.353769 
L 140.081526 182.685215 
L 140.099647 182.716804 
z
" clip-path="url(#p3a5e839b4b)" style="fill: #808080; opacity: 0.08; stroke: #808080; stroke-linejoin: miter"/>
   </g>
   <g id="patch_12">
    <path d="M 188.005047 179.273063 
L 188.040965 179.163402 
L 188.070213 179.1851 
L 219.103742 137.353663 
L 219.103859 137.35375 
L 188.07033 179.185187 
L 188.099578 179.206885 
z
" clip-path="url(#p3a5e839b4b)" style="fill: #808080; opacity: 0.08; stroke: #808080; stroke-linejoin: miter"/>
   </g>
   <g id="patch_13">
    <path d="M 144.061884 159.67891 
L 144.156406 159.612718 
L 144.16679 159.647624 
L 219.103777 137.353634 
L 219.103819 137.353774 
L 144.166832 159.647763 
L 144.177216 159.682669 
z
" clip-path="url(#p3a5e839b4b)" style="fill: #808080; opacity: 0.08; stroke: #808080; stroke-linejoin: miter"/>
   </g>
   <g id="patch_14">
    <path d="M 215.021703 160.288787 
L 215.00496 160.174615 
L 215.040814 160.180996 
L 219.103728 137.353693 
L 219.103871 137.353718 
L 215.040958 160.181022 
L 215.076812 160.187403 
z
" clip-path="url(#p3a5e839b4b)" style="fill: #808080; opacity: 0.08; stroke: #808080; stroke-linejoin: miter"/>
   </g>
   <g id="patch_15">
    <path d="M 171.09226 140.72794 
L 171.198905 140.683864 
L 171.201458 140.720192 
L 219.103794 137.353632 
L 219.103804 137.353778 
L 171.201468 140.720338 
L 171.204021 140.756666 
z
" clip-path="url(#p3a5e839b4b)" style="fill: #808080; opacity: 0.08; stroke: #808080; stroke-linejoin: miter"/>
   </g>
   <g id="patch_16">
    <path d="M 233.994188 187.412996 
L 233.928001 187.318471 
L 233.962907 187.308088 
L 219.103729 137.353727 
L 219.103869 137.353685 
L 233.963047 187.308047 
L 233.997953 187.297664 
z
" clip-path="url(#p3a5e839b4b)" style="fill: #808080; opacity: 0.08; stroke: #808080; stroke-linejoin: miter"/>
   </g>
   <g id="patch_17">
    <path d="M 194.110921 144.795548 
L 194.205427 144.729334 
L 194.21582 144.764237 
L 219.103779 137.353635 
L 219.10382 137.353775 
L 194.215861 144.764377 
L 194.226254 144.79928 
z
" clip-path="url(#p3a5e839b4b)" style="fill: #808080; opacity: 0.08; stroke: #808080; stroke-linejoin: miter"/>
   </g>
   <g id="patch_18">
    <path d="M 185.98224 190.780371 
L 186.008907 190.668101 
L 186.039859 190.687289 
L 219.103738 137.353666 
L 219.103862 137.353743 
L 186.039983 190.687366 
L 186.070935 190.706555 
z
" clip-path="url(#p3a5e839b4b)" style="fill: #808080; opacity: 0.08; stroke: #808080; stroke-linejoin: miter"/>
   </g>
   <g id="patch_19">
    <path d="M 185.974827 190.783524 
L 186.001503 190.671256 
L 186.032454 190.690447 
L 219.103739 137.353667 
L 219.103863 137.353744 
L 186.032578 190.690524 
L 186.063529 190.709715 
z
" clip-path="url(#p3a5e839b4b)" style="fill: #808080; opacity: 0.08; stroke: #808080; stroke-linejoin: miter"/>
   </g>
   <g id="patch_20">
    <path d="M 258.981579 179.967552 
L 258.880135 179.912553 
L 258.906726 179.88767 
L 219.103746 137.353755 
L 219.103853 137.353655 
L 258.906833 179.88757 
L 258.933423 179.862687 
z
" clip-path="url(#p3a5e839b4b)" style="fill: #808080; opacity: 0.08; stroke: #808080; stroke-linejoin: miter"/>
   </g>
   <g id="patch_21">
    <path d="M 282.029785 184.050766 
L 281.92013 184.014832 
L 281.941832 183.985587 
L 219.103756 137.353764 
L 219.103843 137.353647 
L 281.941919 183.98547 
L 281.963621 183.956225 
z
" clip-path="url(#p3a5e839b4b)" style="fill: #808080; opacity: 0.08; stroke: #808080; stroke-linejoin: miter"/>
   </g>
   <g id="patch_22">
    <path d="M 300.969936 211.065458 
L 300.864165 211.019326 
L 300.888533 210.992262 
L 219.103753 137.353762 
L 219.103851 137.353654 
L 300.888631 210.992153 
L 300.912999 210.96509 
z
" clip-path="url(#p3a5e839b4b)" style="fill: #808080; opacity: 0.08; stroke: #808080; stroke-linejoin: miter"/>
   </g>
   <g id="patch_23">
    <path d="M 233.994821 187.41553 
L 233.928633 187.321006 
L 233.96354 187.310623 
L 219.10373 137.353725 
L 219.10387 137.353684 
L 233.96368 187.310581 
L 233.998586 187.300198 
z
" clip-path="url(#p3a5e839b4b)" style="fill: #808080; opacity: 0.08; stroke: #808080; stroke-linejoin: miter"/>
   </g>
   <g id="patch_24">
    <path d="M 123.053363 144.184441 
L 123.15997 144.140276 
L 123.162553 144.176602 
L 219.103793 137.353632 
L 219.103803 137.353778 
L 123.162564 144.176748 
L 123.165147 144.213074 
z
" clip-path="url(#p3a5e839b4b)" style="fill: #808080; opacity: 0.08; stroke: #808080; stroke-linejoin: miter"/>
   </g>
   <g id="patch_25">
    <path d="M 210.951214 183.337341 
L 210.934394 183.22318 
L 210.970252 183.229537 
L 219.103727 137.353693 
L 219.103871 137.353718 
L 210.970396 183.229563 
L 211.006254 183.23592 
z
" clip-path="url(#p3a5e839b4b)" style="fill: #808080; opacity: 0.08; stroke: #808080; stroke-linejoin: miter"/>
   </g>
   <g id="patch_26">
    <path d="M 217.066039 148.880015 
L 217.049164 148.765863 
L 217.085025 148.772203 
L 219.103727 137.353692 
L 219.103871 137.353718 
L 217.085169 148.772228 
L 217.12103 148.778568 
z
" clip-path="url(#p3a5e839b4b)" style="fill: #808080; opacity: 0.08; stroke: #808080; stroke-linejoin: miter"/>
   </g>
   <g id="patch_27">
    <path d="M 213.060786 171.812946 
L 213.043753 171.698816 
L 213.079623 171.705107 
L 219.103728 137.353693 
L 219.103871 137.353718 
L 213.079767 171.705132 
L 213.115637 171.711423 
z
" clip-path="url(#p3a5e839b4b)" style="fill: #808080; opacity: 0.08; stroke: #808080; stroke-linejoin: miter"/>
   </g>
   <g id="patch_28">
    <path d="M 290.182374 138.06713 
L 290.072541 138.10252 
L 290.072906 138.066104 
L 219.103797 137.353778 
L 219.103799 137.353632 
L 290.072908 138.065958 
L 290.073273 138.029542 
z
" clip-path="url(#p3a5e839b4b)" style="fill: #808080; opacity: 0.08; stroke: #808080; stroke-linejoin: miter"/>
   </g>
   <g id="patch_29">
    <path d="M 290.165473 137.972759 
L 290.055688 138.008294 
L 290.056005 137.971878 
L 219.103798 137.353778 
L 219.103799 137.353632 
L 290.056006 137.971732 
L 290.056324 137.935316 
z
" clip-path="url(#p3a5e839b4b)" style="fill: #808080; opacity: 0.08; stroke: #808080; stroke-linejoin: miter"/>
   </g>
   <g id="patch_30">
    <path d="M 91.966013 186.098046 
L 92.055167 186.024784 
L 92.068204 186.058788 
L 219.103774 137.353637 
L 219.103827 137.353773 
L 92.068256 186.058924 
L 92.081293 186.092928 
z
" clip-path="url(#p3a5e839b4b)" style="fill: #808080; opacity: 0.08; stroke: #808080; stroke-linejoin: miter"/>
   </g>
   <g id="patch_31">
    <path d="M 233.996309 187.4139 
L 233.930118 187.319378 
L 233.965024 187.308994 
L 219.103729 137.353726 
L 219.103869 137.353685 
L 233.965164 187.308952 
L 234.000069 187.298568 
z
" clip-path="url(#p3a5e839b4b)" style="fill: #808080; opacity: 0.08; stroke: #808080; stroke-linejoin: miter"/>
   </g>
   <g id="patch_32">
    <path d="M 290.087307 137.95587 
L 289.97753 137.99143 
L 289.977839 137.955014 
L 219.103798 137.353778 
L 219.103799 137.353632 
L 289.97784 137.954868 
L 289.978149 137.918452 
z
" clip-path="url(#p3a5e839b4b)" style="fill: #808080; opacity: 0.08; stroke: #808080; stroke-linejoin: miter"/>
   </g>
   <g id="patch_33">
    <path d="M 254.9042 203.00827 
L 254.819755 202.929628 
L 254.851728 202.912194 
L 219.103736 137.353738 
L 219.103864 137.353668 
L 254.851856 202.912124 
L 254.883829 202.894689 
z
" clip-path="url(#p3a5e839b4b)" style="fill: #808080; opacity: 0.08; stroke: #808080; stroke-linejoin: miter"/>
   </g>
   <g id="patch_34">
    <path d="M 288.050179 149.484712 
L 287.93604 149.501681 
L 287.942351 149.465814 
L 219.103789 137.353777 
L 219.103814 137.353634 
L 287.942376 149.46567 
L 287.948687 149.429804 
z
" clip-path="url(#p3a5e839b4b)" style="fill: #808080; opacity: 0.08; stroke: #808080; stroke-linejoin: miter"/>
   </g>
   <g id="patch_35">
    <path d="M 311.066189 153.555476 
L 310.952046 153.572419 
L 310.958365 153.536554 
L 219.103785 137.353777 
L 219.10381 137.353634 
L 310.95839 153.53641 
L 310.964709 153.500545 
z
" clip-path="url(#p3a5e839b4b)" style="fill: #808080; opacity: 0.08; stroke: #808080; stroke-linejoin: miter"/>
   </g>
   <g id="patch_36">
    <path d="M 194.133995 144.79979 
L 194.228474 144.733538 
L 194.238881 144.768437 
L 219.103779 137.353635 
L 219.103821 137.353775 
L 194.238922 144.768577 
L 194.249329 144.803476 
z
" clip-path="url(#p3a5e839b4b)" style="fill: #808080; opacity: 0.08; stroke: #808080; stroke-linejoin: miter"/>
   </g>
   <g id="patch_37">
    <path d="M 238.07101 164.372048 
L 237.978245 164.303416 
L 238.008051 164.282492 
L 219.103739 137.353747 
L 219.103858 137.353663 
L 238.008171 164.282408 
L 238.037977 164.261483 
z
" clip-path="url(#p3a5e839b4b)" style="fill: #808080; opacity: 0.08; stroke: #808080; stroke-linejoin: miter"/>
   </g>
   <g id="patch_38">
    <path d="M 139.986862 182.631587 
L 140.06375 182.545541 
L 140.081839 182.577148 
L 219.103762 137.353642 
L 219.103834 137.353769 
L 140.081911 182.577275 
L 140.1 182.608883 
z
" clip-path="url(#p3a5e839b4b)" style="fill: #808080; opacity: 0.08; stroke: #808080; stroke-linejoin: miter"/>
   </g>
   <g id="patch_39">
    <path d="M 242.147289 141.331285 
L 242.033205 141.348623 
L 242.0394 141.312736 
L 219.103787 137.353777 
L 219.103812 137.353633 
L 242.039424 141.312592 
L 242.045619 141.276705 
z
" clip-path="url(#p3a5e839b4b)" style="fill: #808080; opacity: 0.08; stroke: #808080; stroke-linejoin: miter"/>
   </g>
   <g id="patch_40">
    <path d="M 334.098908 157.635639 
L 333.984762 157.652561 
L 333.991087 157.616696 
L 219.103789 137.353777 
L 219.103814 137.353633 
L 333.991112 157.616553 
L 333.997438 157.580689 
z
" clip-path="url(#p3a5e839b4b)" style="fill: #808080; opacity: 0.08; stroke: #808080; stroke-linejoin: miter"/>
   </g>
   <g id="patch_41">
    <path d="M 164.97974 175.189746 
L 165.048556 175.097117 
L 165.069421 175.126965 
L 219.103758 137.353646 
L 219.103842 137.353766 
L 165.069505 175.127085 
L 165.09037 175.156932 
z
" clip-path="url(#p3a5e839b4b)" style="fill: #808080; opacity: 0.08; stroke: #808080; stroke-linejoin: miter"/>
   </g>
   <g id="patch_42">
    <path d="M 242.129106 141.437021 
L 242.014944 141.453836 
L 242.021303 141.417978 
L 219.103787 137.353777 
L 219.103812 137.353633 
L 242.021328 141.417834 
L 242.027687 141.381976 
z
" clip-path="url(#p3a5e839b4b)" style="fill: #808080; opacity: 0.08; stroke: #808080; stroke-linejoin: miter"/>
   </g>
   <g id="patch_43">
    <path d="M 265.069983 145.407579 
L 264.955856 145.424629 
L 264.962141 145.388757 
L 219.103787 137.353777 
L 219.103813 137.353633 
L 264.962166 145.388614 
L 264.968451 145.352742 
z
" clip-path="url(#p3a5e839b4b)" style="fill: #808080; opacity: 0.08; stroke: #808080; stroke-linejoin: miter"/>
   </g>
   <g id="patch_44">
    <path d="M 137.945872 194.244638 
L 138.014567 194.15192 
L 138.035471 194.181741 
L 219.103758 137.353648 
L 219.103842 137.353767 
L 138.035555 194.18186 
L 138.056459 194.211681 
z
" clip-path="url(#p3a5e839b4b)" style="fill: #808080; opacity: 0.08; stroke: #808080; stroke-linejoin: miter"/>
   </g>
   <g id="patch_45">
    <path d="M 217.056502 148.871394 
L 217.039733 148.757225 
L 217.075589 148.763599 
L 219.103728 137.353692 
L 219.103871 137.353718 
L 217.075732 148.763624 
L 217.111588 148.769998 
z
" clip-path="url(#p3a5e839b4b)" style="fill: #808080; opacity: 0.08; stroke: #808080; stroke-linejoin: miter"/>
   </g>
   <g id="patch_46">
    <path d="M 171.068835 140.71847 
L 171.175489 140.674419 
L 171.178034 140.710747 
L 219.103794 137.353632 
L 219.103804 137.353778 
L 171.178044 140.710893 
L 171.180589 140.747221 
z
" clip-path="url(#p3a5e839b4b)" style="fill: #808080; opacity: 0.08; stroke: #808080; stroke-linejoin: miter"/>
   </g>
   <g id="patch_47">
    <path d="M 233.964246 187.412011 
L 233.89811 187.317451 
L 233.933021 187.307087 
L 219.103729 137.353725 
L 219.103869 137.353684 
L 233.933161 187.307045 
L 233.968073 187.296681 
z
" clip-path="url(#p3a5e839b4b)" style="fill: #808080; opacity: 0.08; stroke: #808080; stroke-linejoin: miter"/>
   </g>
   <g id="patch_48">
    <path d="M 185.95782 190.877263 
L 185.984434 190.76498 
L 186.015395 190.784154 
L 219.103737 137.353668 
L 219.103862 137.353745 
L 186.015519 190.784231 
L 186.046481 190.803405 
z
" clip-path="url(#p3a5e839b4b)" style="fill: #808080; opacity: 0.08; stroke: #808080; stroke-linejoin: miter"/>
   </g>
   <g id="patch_49">
    <path d="M 144.064619 159.676549 
L 144.159142 159.610359 
L 144.169526 159.645265 
L 219.103777 137.353634 
L 219.103819 137.353774 
L 144.169567 159.645405 
L 144.179951 159.680311 
z
" clip-path="url(#p3a5e839b4b)" style="fill: #808080; opacity: 0.08; stroke: #808080; stroke-linejoin: miter"/>
   </g>
   <g id="patch_50">
    <path d="M 313.105638 142.131515 
L 312.994455 142.162402 
L 312.996303 142.126031 
L 219.103794 137.353778 
L 219.103802 137.353632 
L 312.996311 142.125885 
L 312.998159 142.089515 
z
" clip-path="url(#p3a5e839b4b)" style="fill: #808080; opacity: 0.08; stroke: #808080; stroke-linejoin: miter"/>
   </g>
   <g id="patch_51">
    <path d="M 93.992883 174.573708 
L 94.087405 174.507517 
L 94.097789 174.542423 
L 219.10378 137.353634 
L 219.103822 137.353774 
L 94.097831 174.542563 
L 94.108215 174.577469 
z
" clip-path="url(#p3a5e839b4b)" style="fill: #808080; opacity: 0.08; stroke: #808080; stroke-linejoin: miter"/>
   </g>
   <g id="patch_52">
    <path d="M 263.039888 156.930261 
L 262.925042 156.919038 
L 262.939864 156.885773 
L 219.10377 137.353772 
L 219.10383 137.353639 
L 262.939923 156.88564 
L 262.954745 156.852375 
z
" clip-path="url(#p3a5e839b4b)" style="fill: #808080; opacity: 0.08; stroke: #808080; stroke-linejoin: miter"/>
   </g>
   <g id="patch_53">
    <path d="M 100.121091 140.113764 
L 100.229688 140.074744 
L 100.230532 140.111152 
L 219.1038 137.353632 
L 219.103803 137.353778 
L 100.230535 140.111298 
L 100.23138 140.147706 
z
" clip-path="url(#p3a5e839b4b)" style="fill: #808080; opacity: 0.08; stroke: #808080; stroke-linejoin: miter"/>
   </g>
   <g id="patch_54">
    <path d="M 114.998732 190.178208 
L 115.079843 190.096132 
L 115.096322 190.128608 
L 219.103768 137.353641 
L 219.103834 137.353771 
L 115.096388 190.128738 
L 115.112867 190.161214 
z
" clip-path="url(#p3a5e839b4b)" style="fill: #808080; opacity: 0.08; stroke: #808080; stroke-linejoin: miter"/>
   </g>
   <g id="patch_55">
    <path d="M 75.026661 147.451616 
L 75.133314 147.40756 
L 75.13586 147.443889 
L 219.103794 137.353633 
L 219.103805 137.353778 
L 75.13587 147.444035 
L 75.138416 147.480363 
z
" clip-path="url(#p3a5e839b4b)" style="fill: #808080; opacity: 0.08; stroke: #808080; stroke-linejoin: miter"/>
   </g>
   <g id="patch_56">
    <path d="M 217.07358 148.864171 
L 217.056659 148.750025 
L 217.092523 148.756351 
L 219.103728 137.353693 
L 219.103871 137.353718 
L 217.092667 148.756376 
L 217.128531 148.762702 
z
" clip-path="url(#p3a5e839b4b)" style="fill: #808080; opacity: 0.08; stroke: #808080; stroke-linejoin: miter"/>
   </g>
   <g id="patch_57">
    <path d="M 187.998071 179.36539 
L 188.033886 179.255695 
L 188.063154 179.277365 
L 219.103739 137.353661 
L 219.103857 137.353748 
L 188.063271 179.277452 
L 188.09254 179.299122 
z
" clip-path="url(#p3a5e839b4b)" style="fill: #808080; opacity: 0.08; stroke: #808080; stroke-linejoin: miter"/>
   </g>
   <g id="patch_58">
    <path d="M 171.061908 140.722358 
L 171.168559 140.6783 
L 171.171107 140.714628 
L 219.103795 137.353632 
L 219.103805 137.353778 
L 171.171117 140.714774 
L 171.173664 140.751102 
z
" clip-path="url(#p3a5e839b4b)" style="fill: #808080; opacity: 0.08; stroke: #808080; stroke-linejoin: miter"/>
   </g>
   <g id="patch_59">
    <path d="M 123.068427 144.18128 
L 123.175036 144.137118 
L 123.177619 144.173444 
L 219.103793 137.353632 
L 219.103804 137.353778 
L 123.177629 144.17359 
L 123.180211 144.209916 
z
" clip-path="url(#p3a5e839b4b)" style="fill: #808080; opacity: 0.08; stroke: #808080; stroke-linejoin: miter"/>
   </g>
   <g id="patch_60">
    <path d="M 121.02113 155.698969 
L 121.122027 155.642974 
L 121.128722 155.678771 
L 219.103788 137.353634 
L 219.103815 137.353777 
L 121.128749 155.678914 
L 121.135445 155.714711 
z
" clip-path="url(#p3a5e839b4b)" style="fill: #808080; opacity: 0.08; stroke: #808080; stroke-linejoin: miter"/>
   </g>
   <g id="patch_61">
    <path d="M 167.009336 163.752994 
L 167.09049 163.67096 
L 167.106952 163.703445 
L 219.103767 137.35364 
L 219.103833 137.35377 
L 167.107018 163.703575 
L 167.12348 163.736059 
z
" clip-path="url(#p3a5e839b4b)" style="fill: #808080; opacity: 0.08; stroke: #808080; stroke-linejoin: miter"/>
   </g>
   <g id="patch_62">
    <path d="M 284.04049 172.531997 
L 283.926853 172.511937 
L 283.9442 172.479916 
L 219.103765 137.353769 
L 219.103835 137.353641 
L 283.94427 172.479788 
L 283.961616 172.447767 
z
" clip-path="url(#p3a5e839b4b)" style="fill: #808080; opacity: 0.08; stroke: #808080; stroke-linejoin: miter"/>
   </g>
   <g id="patch_63">
    <path d="M 192.082804 156.318023 
L 192.151447 156.225266 
L 192.172368 156.255075 
L 219.103758 137.353646 
L 219.103842 137.353765 
L 192.172451 156.255194 
L 192.193372 156.285003 
z
" clip-path="url(#p3a5e839b4b)" style="fill: #808080; opacity: 0.08; stroke: #808080; stroke-linejoin: miter"/>
   </g>
   <g id="patch_64">
    <path d="M 142.023139 171.100122 
L 142.108787 171.022791 
L 142.123392 171.056151 
L 219.103768 137.353638 
L 219.103826 137.353772 
L 142.123451 171.056285 
L 142.138056 171.089646 
z
" clip-path="url(#p3a5e839b4b)" style="fill: #808080; opacity: 0.08; stroke: #808080; stroke-linejoin: miter"/>
   </g>
   <g id="patch_65">
    <path d="M 171.098906 140.722514 
L 171.205555 140.67845 
L 171.208105 140.714778 
L 219.103793 137.353632 
L 219.103803 137.353778 
L 171.208115 140.714923 
L 171.210664 140.751252 
z
" clip-path="url(#p3a5e839b4b)" style="fill: #808080; opacity: 0.08; stroke: #808080; stroke-linejoin: miter"/>
   </g>
   <g id="patch_66">
    <path d="M 252.951746 214.423986 
L 252.874316 214.338428 
L 252.90766 214.323784 
L 219.103731 137.353735 
L 219.103865 137.353676 
L 252.907793 214.323726 
L 252.941137 214.309082 
z
" clip-path="url(#p3a5e839b4b)" style="fill: #808080; opacity: 0.08; stroke: #808080; stroke-linejoin: miter"/>
   </g>
   <g id="patch_67">
    <path d="M 169.057498 152.234706 
L 169.152029 152.168528 
L 169.162408 152.203436 
L 219.10378 137.353634 
L 219.103821 137.353774 
L 169.16245 152.203575 
L 169.172829 152.238483 
z
" clip-path="url(#p3a5e839b4b)" style="fill: #808080; opacity: 0.08; stroke: #808080; stroke-linejoin: miter"/>
   </g>
   <g id="patch_68">
    <path d="M 265.094099 145.50575 
L 264.979939 145.522574 
L 264.986295 145.486715 
L 219.103787 137.353777 
L 219.103813 137.353633 
L 264.98632 145.486571 
L 264.992676 145.450712 
z
" clip-path="url(#p3a5e839b4b)" style="fill: #808080; opacity: 0.08; stroke: #808080; stroke-linejoin: miter"/>
   </g>
   <g id="patch_69">
    <path d="M 279.972069 195.462157 
L 279.867689 195.412958 
L 279.892836 195.386617 
L 219.103747 137.35376 
L 219.103848 137.353655 
L 279.892937 195.386511 
L 279.918084 195.36017 
z
" clip-path="url(#p3a5e839b4b)" style="fill: #808080; opacity: 0.08; stroke: #808080; stroke-linejoin: miter"/>
   </g>
   <g id="patch_70">
    <path d="M 217.071567 148.868233 
L 217.054658 148.754085 
L 217.090522 148.760415 
L 219.103727 137.353693 
L 219.103871 137.353718 
L 217.090666 148.76044 
L 217.126529 148.76677 
z
" clip-path="url(#p3a5e839b4b)" style="fill: #808080; opacity: 0.08; stroke: #808080; stroke-linejoin: miter"/>
   </g>
   <g id="patch_71">
    <path d="M 238.052284 164.477972 
L 237.959677 164.409127 
L 237.989531 164.388271 
L 219.10374 137.353747 
L 219.10386 137.353664 
L 237.989651 164.388187 
L 238.019506 164.367332 
z
" clip-path="url(#p3a5e839b4b)" style="fill: #808080; opacity: 0.08; stroke: #808080; stroke-linejoin: miter"/>
   </g>
   <g id="patch_72">
    <path d="M 313.108979 142.138134 
L 312.997794 142.169013 
L 312.999645 142.132643 
L 219.103797 137.353778 
L 219.103804 137.353632 
L 312.999652 142.132497 
L 313.001503 142.096126 
z
" clip-path="url(#p3a5e839b4b)" style="fill: #808080; opacity: 0.08; stroke: #808080; stroke-linejoin: miter"/>
   </g>
   <g id="patch_73">
    <path d="M 233.995346 187.425103 
L 233.929163 187.330575 
L 233.96407 187.320194 
L 219.10373 137.353726 
L 219.10387 137.353685 
L 233.96421 187.320152 
L 233.999116 187.309771 
z
" clip-path="url(#p3a5e839b4b)" style="fill: #808080; opacity: 0.08; stroke: #808080; stroke-linejoin: miter"/>
   </g>
   <g id="patch_74">
    <path d="M 210.97004 183.341786 
L 210.953173 183.227632 
L 210.989034 183.233975 
L 219.103727 137.353693 
L 219.103871 137.353718 
L 210.989178 183.234 
L 211.025039 183.240343 
z
" clip-path="url(#p3a5e839b4b)" style="fill: #808080; opacity: 0.08; stroke: #808080; stroke-linejoin: miter"/>
   </g>
   <g id="patch_75">
    <path d="M 163.01068 186.810833 
L 163.06866 186.711064 
L 163.092745 186.73838 
L 219.103751 137.35365 
L 219.103847 137.353759 
L 163.092842 186.73849 
L 163.116926 186.765806 
z
" clip-path="url(#p3a5e839b4b)" style="fill: #808080; opacity: 0.08; stroke: #808080; stroke-linejoin: miter"/>
   </g>
   <g id="patch_76">
    <path d="M 100.111755 140.106231 
L 100.220354 140.067219 
L 100.221196 140.103627 
L 219.103797 137.353632 
L 219.1038 137.353778 
L 100.221199 140.103773 
L 100.222041 140.140181 
z
" clip-path="url(#p3a5e839b4b)" style="fill: #808080; opacity: 0.08; stroke: #808080; stroke-linejoin: miter"/>
   </g>
   <g id="patch_77">
    <path d="M 165.071457 175.287133 
L 165.140086 175.194367 
L 165.161012 175.224172 
L 219.103757 137.353647 
L 219.103841 137.353766 
L 165.161095 175.224292 
L 165.182021 175.254098 
z
" clip-path="url(#p3a5e839b4b)" style="fill: #808080; opacity: 0.08; stroke: #808080; stroke-linejoin: miter"/>
   </g>
   <g id="patch_78">
    <path d="M 215.028136 160.406762 
L 215.011261 160.292609 
L 215.047122 160.29895 
L 219.103728 137.353693 
L 219.103871 137.353718 
L 215.047266 160.298975 
L 215.083128 160.305315 
z
" clip-path="url(#p3a5e839b4b)" style="fill: #808080; opacity: 0.08; stroke: #808080; stroke-linejoin: miter"/>
   </g>
   <g id="patch_79">
    <path d="M 277.944625 206.982142 
L 277.846094 206.922081 
L 277.87391 206.898575 
L 219.103742 137.353753 
L 219.103854 137.353659 
L 277.874021 206.898481 
L 277.901837 206.874974 
z
" clip-path="url(#p3a5e839b4b)" style="fill: #808080; opacity: 0.08; stroke: #808080; stroke-linejoin: miter"/>
   </g>
   <g id="patch_80">
    <path d="M 190.059257 167.848549 
L 190.108334 167.744112 
L 190.134705 167.769229 
L 219.103747 137.353654 
L 219.103853 137.353755 
L 190.134811 167.769329 
L 190.161181 167.794446 
z
" clip-path="url(#p3a5e839b4b)" style="fill: #808080; opacity: 0.08; stroke: #808080; stroke-linejoin: miter"/>
   </g>
   <g id="patch_81">
    <path d="M 94.003778 174.571735 
L 94.0983 174.505543 
L 94.108684 174.540449 
L 219.10378 137.353635 
L 219.103822 137.353775 
L 94.108726 174.540589 
L 94.119111 174.575494 
z
" clip-path="url(#p3a5e839b4b)" style="fill: #808080; opacity: 0.08; stroke: #808080; stroke-linejoin: miter"/>
   </g>
   <g id="patch_82">
    <path d="M 146.092103 148.168444 
L 146.195047 148.116306 
L 146.200383 148.152331 
L 219.103789 137.353633 
L 219.10381 137.353777 
L 146.200404 148.152475 
L 146.205741 148.1885 
z
" clip-path="url(#p3a5e839b4b)" style="fill: #808080; opacity: 0.08; stroke: #808080; stroke-linejoin: miter"/>
   </g>
   <g id="patch_83">
    <path d="M 169.03184 152.236045 
L 169.126379 152.169878 
L 169.136754 152.204786 
L 219.103778 137.353635 
L 219.10382 137.353775 
L 169.136796 152.204926 
L 169.147172 152.239834 
z
" clip-path="url(#p3a5e839b4b)" style="fill: #808080; opacity: 0.08; stroke: #808080; stroke-linejoin: miter"/>
   </g>
   <g id="patch_84">
    <path d="M 192.082403 156.320488 
L 192.151041 156.227728 
L 192.171963 156.257535 
L 219.103757 137.353645 
L 219.103841 137.353765 
L 192.172047 156.257655 
L 192.19297 156.287462 
z
" clip-path="url(#p3a5e839b4b)" style="fill: #808080; opacity: 0.08; stroke: #808080; stroke-linejoin: miter"/>
   </g>
   <g id="patch_85">
    <path d="M 239.995847 152.862657 
L 239.886196 152.826706 
L 239.907903 152.797465 
L 219.103756 137.353764 
L 219.103843 137.353646 
L 239.90799 152.797348 
L 239.929697 152.768106 
z
" clip-path="url(#p3a5e839b4b)" style="fill: #808080; opacity: 0.08; stroke: #808080; stroke-linejoin: miter"/>
   </g>
   <g id="patch_86">
    <path d="M 286.08197 161.108423 
L 285.966597 161.106222 
L 285.978771 161.0719 
L 219.103774 137.353773 
L 219.103823 137.353636 
L 285.978819 161.071762 
L 285.990992 161.037439 
z
" clip-path="url(#p3a5e839b4b)" style="fill: #808080; opacity: 0.08; stroke: #808080; stroke-linejoin: miter"/>
   </g>
   <g id="patch_87">
    <path d="M 279.962492 195.467774 
L 279.858118 195.418562 
L 279.883269 195.392224 
L 219.103747 137.353757 
L 219.103848 137.353651 
L 279.883369 195.392118 
L 279.90852 195.36578 
z
" clip-path="url(#p3a5e839b4b)" style="fill: #808080; opacity: 0.08; stroke: #808080; stroke-linejoin: miter"/>
   </g>
   <g id="patch_88">
    <path d="M 194.116409 144.799149 
L 194.210902 144.732917 
L 194.221301 144.767818 
L 219.103778 137.353635 
L 219.10382 137.353775 
L 194.221343 144.767958 
L 194.231742 144.802859 
z
" clip-path="url(#p3a5e839b4b)" style="fill: #808080; opacity: 0.08; stroke: #808080; stroke-linejoin: miter"/>
   </g>
   <g id="patch_89">
    <path d="M 260.997402 168.545319 
L 260.887803 168.509212 
L 260.909551 168.480001 
L 219.103755 137.353763 
L 219.103842 137.353646 
L 260.909638 168.479884 
L 260.931387 168.450674 
z
" clip-path="url(#p3a5e839b4b)" style="fill: #808080; opacity: 0.08; stroke: #808080; stroke-linejoin: miter"/>
   </g>
   <g id="patch_90">
    <path d="M 240.113283 152.859257 
L 240.003533 152.823611 
L 240.025159 152.794309 
L 219.103755 137.353763 
L 219.103842 137.353646 
L 240.025245 152.794192 
L 240.046871 152.76489 
z
" clip-path="url(#p3a5e839b4b)" style="fill: #808080; opacity: 0.08; stroke: #808080; stroke-linejoin: miter"/>
   </g>
   <g id="patch_91">
    <path d="M 192.095098 156.217783 
L 192.163952 156.125182 
L 192.184805 156.155038 
L 219.103758 137.353644 
L 219.103842 137.353764 
L 192.184888 156.155158 
L 192.205741 156.185014 
z
" clip-path="url(#p3a5e839b4b)" style="fill: #808080; opacity: 0.08; stroke: #808080; stroke-linejoin: miter"/>
   </g>
   <g id="patch_92">
    <path d="M 217.087977 148.77594 
L 217.071067 148.661792 
L 217.106931 148.668121 
L 219.103728 137.353692 
L 219.103871 137.353718 
L 217.107074 148.668147 
L 217.142938 148.674476 
z
" clip-path="url(#p3a5e839b4b)" style="fill: #808080; opacity: 0.08; stroke: #808080; stroke-linejoin: miter"/>
   </g>
   <g id="patch_93">
    <path d="M 118.97965 167.122543 
L 119.074183 167.056367 
L 119.084561 167.091275 
L 219.103779 137.353636 
L 219.10382 137.353776 
L 119.084603 167.091414 
L 119.094981 167.126322 
z
" clip-path="url(#p3a5e839b4b)" style="fill: #808080; opacity: 0.08; stroke: #808080; stroke-linejoin: miter"/>
   </g>
   <g id="patch_94">
    <path d="M 146.104469 148.173776 
L 146.207407 148.121629 
L 146.212747 148.157653 
L 219.103788 137.353633 
L 219.103809 137.353777 
L 146.212768 148.157797 
L 146.218108 148.193821 
z
" clip-path="url(#p3a5e839b4b)" style="fill: #808080; opacity: 0.08; stroke: #808080; stroke-linejoin: miter"/>
   </g>
   <g id="patch_95">
    <path d="M 265.100001 145.501603 
L 264.985843 145.518439 
L 264.992195 145.48258 
L 219.103787 137.353777 
L 219.103812 137.353633 
L 264.99222 145.482436 
L 264.998572 145.446576 
z
" clip-path="url(#p3a5e839b4b)" style="fill: #808080; opacity: 0.08; stroke: #808080; stroke-linejoin: miter"/>
   </g>
   <g id="patch_96">
    <path d="M 288.037738 149.494004 
L 287.923596 149.510954 
L 287.929913 149.475089 
L 219.103785 137.353777 
L 219.10381 137.353633 
L 287.929938 149.474945 
L 287.936254 149.439079 
z
" clip-path="url(#p3a5e839b4b)" style="fill: #808080; opacity: 0.08; stroke: #808080; stroke-linejoin: miter"/>
   </g>
   <g id="patch_97">
    <path d="M 263.057822 157.037214 
L 262.942997 157.025775 
L 262.957881 156.992538 
L 219.103771 137.353772 
L 219.10383 137.353639 
L 262.957941 156.992405 
L 262.972825 156.959168 
z
" clip-path="url(#p3a5e839b4b)" style="fill: #808080; opacity: 0.08; stroke: #808080; stroke-linejoin: miter"/>
   </g>
   <g id="patch_98">
    <path d="M 256.951498 191.490579 
L 256.858867 191.421767 
L 256.888714 191.400901 
L 219.103741 137.353748 
L 219.10386 137.353665 
L 256.888833 191.400817 
L 256.91868 191.379951 
z
" clip-path="url(#p3a5e839b4b)" style="fill: #808080; opacity: 0.08; stroke: #808080; stroke-linejoin: miter"/>
   </g>
   <g id="patch_99">
    <path d="M 217.062319 148.777279 
L 217.045656 148.663095 
L 217.081506 148.669501 
L 219.103728 137.353692 
L 219.103871 137.353718 
L 217.08165 148.669527 
L 217.117499 148.675933 
z
" clip-path="url(#p3a5e839b4b)" style="fill: #808080; opacity: 0.08; stroke: #808080; stroke-linejoin: miter"/>
   </g>
   <g id="patch_100">
    <path d="M 311.074849 153.565496 
L 310.960704 153.582429 
L 310.967026 153.546565 
L 219.103787 137.353777 
L 219.103812 137.353633 
L 310.967051 153.546421 
L 310.973373 153.510556 
z
" clip-path="url(#p3a5e839b4b)" style="fill: #808080; opacity: 0.08; stroke: #808080; stroke-linejoin: miter"/>
   </g>
   <g id="patch_101">
    <path d="M 194.115037 144.803494 
L 194.20952 144.737248 
L 194.219925 144.772148 
L 219.103779 137.353635 
L 219.103821 137.353775 
L 194.219967 144.772288 
L 194.230371 144.807188 
z
" clip-path="url(#p3a5e839b4b)" style="fill: #808080; opacity: 0.08; stroke: #808080; stroke-linejoin: miter"/>
   </g>
   <g id="patch_102">
    <path d="M 212.974851 171.826975 
L 212.958086 171.712806 
L 212.993942 171.719181 
L 219.103728 137.353692 
L 219.103871 137.353717 
L 212.994086 171.719206 
L 213.029941 171.725581 
z
" clip-path="url(#p3a5e839b4b)" style="fill: #808080; opacity: 0.08; stroke: #808080; stroke-linejoin: miter"/>
   </g>
   <g id="patch_103">
    <path d="M 191.965368 156.321424 
L 192.034191 156.228801 
L 192.055054 156.258651 
L 219.103757 137.353646 
L 219.103841 137.353765 
L 192.055138 156.25877 
L 192.076 156.28862 
z
" clip-path="url(#p3a5e839b4b)" style="fill: #808080; opacity: 0.08; stroke: #808080; stroke-linejoin: miter"/>
   </g>
   <g id="patch_104">
    <path d="M 171.074113 140.723254 
L 171.180763 140.679191 
L 171.183312 140.71552 
L 219.103795 137.353632 
L 219.103805 137.353778 
L 171.183322 140.715665 
L 171.18587 140.751994 
z
" clip-path="url(#p3a5e839b4b)" style="fill: #808080; opacity: 0.08; stroke: #808080; stroke-linejoin: miter"/>
   </g>
   <g id="patch_105">
    <path d="M 240.013179 152.946443 
L 239.903607 152.910252 
L 239.925378 152.881058 
L 219.103755 137.353764 
L 219.103843 137.353647 
L 239.925465 152.880941 
L 239.947236 152.851748 
z
" clip-path="url(#p3a5e839b4b)" style="fill: #808080; opacity: 0.08; stroke: #808080; stroke-linejoin: miter"/>
   </g>
   <g id="patch_106">
    <path d="M 361.139458 138.679368 
L 361.02965 138.714836 
L 361.02999 138.678419 
L 219.103796 137.353778 
L 219.103798 137.353632 
L 361.029991 138.678273 
L 361.030331 138.641857 
z
" clip-path="url(#p3a5e839b4b)" style="fill: #808080; opacity: 0.08; stroke: #808080; stroke-linejoin: miter"/>
   </g>
   <g id="patch_107">
    <path d="M 355.011249 173.139313 
L 354.896094 173.146726 
L 354.905367 173.111509 
L 219.10378 137.353775 
L 219.103817 137.353634 
L 354.905404 173.111367 
L 354.914677 173.07615 
z
" clip-path="url(#p3a5e839b4b)" style="fill: #808080; opacity: 0.08; stroke: #808080; stroke-linejoin: miter"/>
   </g>
   <g id="patch_108">
    <path d="M 288.118247 149.576959 
L 288.004089 149.593799 
L 288.01044 149.557939 
L 219.103787 137.353777 
L 219.103813 137.353633 
L 288.010466 149.557796 
L 288.016817 149.521936 
z
" clip-path="url(#p3a5e839b4b)" style="fill: #808080; opacity: 0.08; stroke: #808080; stroke-linejoin: miter"/>
   </g>
   <g id="patch_109">
    <path d="M 263.059773 156.922259 
L 262.944923 156.911072 
L 262.959734 156.877803 
L 219.10377 137.353772 
L 219.10383 137.353638 
L 262.959793 156.877669 
L 262.974605 156.8444 
z
" clip-path="url(#p3a5e839b4b)" style="fill: #808080; opacity: 0.08; stroke: #808080; stroke-linejoin: miter"/>
   </g>
   <g id="patch_110">
    <path d="M 238.070021 164.475798 
L 237.977382 164.406997 
L 238.007226 164.386127 
L 219.103739 137.353747 
L 219.103859 137.353664 
L 238.007346 164.386043 
L 238.03719 164.365173 
z
" clip-path="url(#p3a5e839b4b)" style="fill: #808080; opacity: 0.08; stroke: #808080; stroke-linejoin: miter"/>
   </g>
   <g id="patch_111">
    <path d="M 121.003802 155.615184 
L 121.104747 155.559275 
L 121.111412 155.595078 
L 219.103788 137.353633 
L 219.103814 137.353777 
L 121.111439 155.595221 
L 121.118103 155.631024 
z
" clip-path="url(#p3a5e839b4b)" style="fill: #808080; opacity: 0.08; stroke: #808080; stroke-linejoin: miter"/>
   </g>
   <g id="patch_112">
    <path d="M 142.038738 171.206971 
L 142.12429 171.129533 
L 142.138937 171.162876 
L 219.103771 137.353639 
L 219.10383 137.353773 
L 142.138996 171.163009 
L 142.153642 171.196352 
z
" clip-path="url(#p3a5e839b4b)" style="fill: #808080; opacity: 0.08; stroke: #808080; stroke-linejoin: miter"/>
   </g>
   <g id="patch_113">
    <path d="M 217.061526 148.866496 
L 217.044718 148.752334 
L 217.080575 148.758694 
L 219.103727 137.353692 
L 219.103871 137.353718 
L 217.080719 148.75872 
L 217.116577 148.765081 
z
" clip-path="url(#p3a5e839b4b)" style="fill: #808080; opacity: 0.08; stroke: #808080; stroke-linejoin: miter"/>
   </g>
   <g id="patch_114">
    <path d="M 357.052729 161.715739 
L 356.93858 161.732635 
L 356.944913 161.696773 
L 219.103787 137.353776 
L 219.103812 137.353633 
L 356.944938 161.696629 
L 356.951272 161.660766 
z
" clip-path="url(#p3a5e839b4b)" style="fill: #808080; opacity: 0.08; stroke: #808080; stroke-linejoin: miter"/>
   </g>
   <g id="patch_115">
    <path d="M 98.07399 151.632542 
L 98.178432 151.583476 
L 98.182699 151.619643 
L 219.103793 137.353633 
L 219.10381 137.353778 
L 98.182716 151.619788 
L 98.186983 151.655955 
z
" clip-path="url(#p3a5e839b4b)" style="fill: #808080; opacity: 0.08; stroke: #808080; stroke-linejoin: miter"/>
   </g>
   <g id="patch_116">
    <path d="M 187.998062 179.358138 
L 188.033886 179.248446 
L 188.063153 179.270119 
L 219.10374 137.353662 
L 219.103858 137.353749 
L 188.06327 179.270206 
L 188.092536 179.291878 
z
" clip-path="url(#p3a5e839b4b)" style="fill: #808080; opacity: 0.08; stroke: #808080; stroke-linejoin: miter"/>
   </g>
   <g id="patch_117">
    <path d="M 121.026947 155.604854 
L 121.127896 155.548951 
L 121.134558 155.584754 
L 219.103783 137.353633 
L 219.10381 137.353776 
L 121.134585 155.584898 
L 121.141248 155.620701 
z
" clip-path="url(#p3a5e839b4b)" style="fill: #808080; opacity: 0.08; stroke: #808080; stroke-linejoin: miter"/>
   </g>
   <g id="patch_118">
    <path d="M 166.995563 163.767509 
L 167.076708 163.685465 
L 167.093174 163.717948 
L 219.103765 137.353639 
L 219.103831 137.353769 
L 167.09324 163.718078 
L 167.109705 163.750561 
z
" clip-path="url(#p3a5e839b4b)" style="fill: #808080; opacity: 0.08; stroke: #808080; stroke-linejoin: miter"/>
   </g>
   <g id="patch_119">
    <path d="M 279.960447 195.559909 
L 279.856113 195.510613 
L 279.881285 195.484295 
L 219.103747 137.353759 
L 219.103848 137.353653 
L 279.881386 195.48419 
L 279.906558 195.457872 
z
" clip-path="url(#p3a5e839b4b)" style="fill: #808080; opacity: 0.08; stroke: #808080; stroke-linejoin: miter"/>
   </g>
   <g id="patch_120">
    <path d="M 311.069361 153.662979 
L 310.955199 153.679794 
L 310.961558 153.643936 
L 219.103784 137.353777 
L 219.10381 137.353633 
L 310.961583 153.643792 
L 310.967943 153.607934 
z
" clip-path="url(#p3a5e839b4b)" style="fill: #808080; opacity: 0.08; stroke: #808080; stroke-linejoin: miter"/>
   </g>
   <g id="patch_121">
    <path d="M 265.092006 145.40773 
L 264.97788 145.424789 
L 264.984162 145.388917 
L 219.103786 137.353777 
L 219.103811 137.353633 
L 264.984187 145.388774 
L 264.99047 145.352902 
z
" clip-path="url(#p3a5e839b4b)" style="fill: #808080; opacity: 0.08; stroke: #808080; stroke-linejoin: miter"/>
   </g>
   <g id="patch_122">
    <path d="M 355.028354 173.23943 
L 354.913194 173.246768 
L 354.92249 173.211557 
L 219.103783 137.353776 
L 219.103821 137.353635 
L 354.922528 173.211415 
L 354.931824 173.176204 
z
" clip-path="url(#p3a5e839b4b)" style="fill: #808080; opacity: 0.08; stroke: #808080; stroke-linejoin: miter"/>
   </g>
   <g id="patch_123">
    <path d="M 282.008257 184.046525 
L 281.898606 184.010578 
L 281.920312 183.981336 
L 219.103756 137.353762 
L 219.103843 137.353645 
L 281.920399 183.981219 
L 281.942105 183.951976 
z
" clip-path="url(#p3a5e839b4b)" style="fill: #808080; opacity: 0.08; stroke: #808080; stroke-linejoin: miter"/>
   </g>
   <g id="patch_124">
    <path d="M 212.975595 171.81365 
L 212.958836 171.69948 
L 212.994691 171.705856 
L 219.103727 137.353693 
L 219.103871 137.353719 
L 212.994834 171.705882 
L 213.030689 171.712258 
z
" clip-path="url(#p3a5e839b4b)" style="fill: #808080; opacity: 0.08; stroke: #808080; stroke-linejoin: miter"/>
   </g>
   <g id="patch_125">
    <path d="M 236.028541 175.899372 
L 235.951118 175.813807 
L 235.984463 175.799166 
L 219.103733 137.353733 
L 219.103866 137.353674 
L 235.984597 175.799107 
L 236.017941 175.784466 
z
" clip-path="url(#p3a5e839b4b)" style="fill: #808080; opacity: 0.08; stroke: #808080; stroke-linejoin: miter"/>
   </g>
   <g id="patch_126">
    <path d="M 96.033998 163.061269 
L 96.133695 163.003165 
L 96.141142 163.038814 
L 219.103787 137.353633 
L 219.103817 137.353776 
L 96.141171 163.038957 
L 96.148618 163.074605 
z
" clip-path="url(#p3a5e839b4b)" style="fill: #808080; opacity: 0.08; stroke: #808080; stroke-linejoin: miter"/>
   </g>
   <g id="patch_127">
    <path d="M 144.068958 159.696505 
L 144.163463 159.63029 
L 144.173856 159.665193 
L 219.103779 137.353635 
L 219.10382 137.353775 
L 144.173898 159.665333 
L 144.184291 159.700236 
z
" clip-path="url(#p3a5e839b4b)" style="fill: #808080; opacity: 0.08; stroke: #808080; stroke-linejoin: miter"/>
   </g>
   <g id="patch_128">
    <path d="M 259.056988 179.960843 
L 258.955488 179.905949 
L 258.982053 179.881038 
L 219.103744 137.353755 
L 219.103851 137.353655 
L 258.98216 179.880938 
L 259.008725 179.856028 
z
" clip-path="url(#p3a5e839b4b)" style="fill: #808080; opacity: 0.08; stroke: #808080; stroke-linejoin: miter"/>
   </g>
   <g id="patch_129">
    <path d="M 137.956643 194.142053 
L 138.025411 194.049389 
L 138.046291 194.079226 
L 219.103757 137.353645 
L 219.103841 137.353765 
L 138.046375 194.079345 
L 138.067255 194.109182 
z
" clip-path="url(#p3a5e839b4b)" style="fill: #808080; opacity: 0.08; stroke: #808080; stroke-linejoin: miter"/>
   </g>
   <g id="patch_130">
    <path d="M 311.074332 153.555922 
L 310.960189 153.572866 
L 310.966507 153.537001 
L 219.103785 137.353777 
L 219.103811 137.353633 
L 310.966533 153.536857 
L 310.972851 153.500991 
z
" clip-path="url(#p3a5e839b4b)" style="fill: #808080; opacity: 0.08; stroke: #808080; stroke-linejoin: miter"/>
   </g>
   <g id="patch_131">
    <path d="M 352.986874 184.663004 
L 352.871499 184.660937 
L 352.883633 184.6266 
L 219.103776 137.353773 
L 219.103824 137.353635 
L 352.883681 184.626462 
L 352.895815 184.592125 
z
" clip-path="url(#p3a5e839b4b)" style="fill: #808080; opacity: 0.08; stroke: #808080; stroke-linejoin: miter"/>
   </g>
   <g id="patch_132">
    <path d="M 169.038762 152.250419 
L 169.133281 152.184224 
L 169.143667 152.219129 
L 219.10378 137.353636 
L 219.103822 137.353776 
L 169.143709 152.219269 
L 169.154095 152.254174 
z
" clip-path="url(#p3a5e839b4b)" style="fill: #808080; opacity: 0.08; stroke: #808080; stroke-linejoin: miter"/>
   </g>
   <g id="patch_133">
    <path d="M 242.060476 141.428754 
L 241.946312 141.44555 
L 241.952677 141.409693 
L 219.103787 137.353777 
L 219.103812 137.353633 
L 241.952702 141.409549 
L 241.959067 141.373692 
z
" clip-path="url(#p3a5e839b4b)" style="fill: #808080; opacity: 0.08; stroke: #808080; stroke-linejoin: miter"/>
   </g>
   <g id="patch_134">
    <path d="M 146.105235 148.16504 
L 146.20818 148.112905 
L 146.213515 148.14893 
L 219.103789 137.353633 
L 219.103811 137.353777 
L 146.213536 148.149074 
L 146.218872 148.185099 
z
" clip-path="url(#p3a5e839b4b)" style="fill: #808080; opacity: 0.08; stroke: #808080; stroke-linejoin: miter"/>
   </g>
   <g id="patch_135">
    <path d="M 237.991436 164.375005 
L 237.898811 164.306186 
L 237.928659 164.285322 
L 219.103739 137.353746 
L 219.103859 137.353662 
L 237.928779 164.285238 
L 237.958628 164.264374 
z
" clip-path="url(#p3a5e839b4b)" style="fill: #808080; opacity: 0.08; stroke: #808080; stroke-linejoin: miter"/>
   </g>
   <g id="patch_136">
    <path d="M 242.037327 141.439084 
L 241.923152 141.45581 
L 241.929539 141.419957 
L 219.103787 137.353777 
L 219.103812 137.353633 
L 241.929564 141.419813 
L 241.935951 141.38396 
z
" clip-path="url(#p3a5e839b4b)" style="fill: #808080; opacity: 0.08; stroke: #808080; stroke-linejoin: miter"/>
   </g>
   <g id="patch_137">
    <path d="M 290.060884 137.965943 
L 289.951101 138.001488 
L 289.951415 137.965072 
L 219.103801 137.353778 
L 219.103802 137.353632 
L 289.951416 137.964926 
L 289.951731 137.928509 
z
" clip-path="url(#p3a5e839b4b)" style="fill: #808080; opacity: 0.08; stroke: #808080; stroke-linejoin: miter"/>
   </g>
   <g id="patch_138">
    <path d="M 139.993169 182.726947 
L 140.069976 182.640828 
L 140.088095 182.672419 
L 219.103766 137.353642 
L 219.103838 137.353769 
L 140.088167 182.672546 
L 140.106286 182.704136 
z
" clip-path="url(#p3a5e839b4b)" style="fill: #808080; opacity: 0.08; stroke: #808080; stroke-linejoin: miter"/>
   </g>
   <g id="patch_139">
    <path d="M 167.094603 163.759072 
L 167.175695 163.676977 
L 167.192181 163.709449 
L 219.103766 137.353639 
L 219.103832 137.353769 
L 167.192248 163.709579 
L 167.208734 163.742051 
z
" clip-path="url(#p3a5e839b4b)" style="fill: #808080; opacity: 0.08; stroke: #808080; stroke-linejoin: miter"/>
   </g>
   <g id="patch_140">
    <path d="M 242.049532 141.439979 
L 241.935358 141.456711 
L 241.941743 141.420858 
L 219.103787 137.353777 
L 219.103813 137.353633 
L 241.941768 141.420714 
L 241.948153 141.384861 
z
" clip-path="url(#p3a5e839b4b)" style="fill: #808080; opacity: 0.08; stroke: #808080; stroke-linejoin: miter"/>
   </g>
   <g id="patch_141">
    <path d="M 330.032411 180.677569 
L 329.917165 180.671734 
L 329.930414 180.637812 
L 219.10377 137.353773 
L 219.103823 137.353637 
L 329.930467 180.637676 
L 329.943715 180.603754 
z
" clip-path="url(#p3a5e839b4b)" style="fill: #808080; opacity: 0.08; stroke: #808080; stroke-linejoin: miter"/>
   </g>
   <g id="patch_142">
    <path d="M 96.03251 163.056115 
L 96.13221 162.998016 
L 96.139655 163.033664 
L 219.103787 137.353633 
L 219.103817 137.353776 
L 96.139685 163.033807 
L 96.14713 163.069456 
z
" clip-path="url(#p3a5e839b4b)" style="fill: #808080; opacity: 0.08; stroke: #808080; stroke-linejoin: miter"/>
   </g>
   <g id="patch_143">
    <path d="M 284.054165 172.527075 
L 283.940525 172.507032 
L 283.957867 172.475008 
L 219.103766 137.353768 
L 219.103835 137.35364 
L 283.957937 172.47488 
L 283.975279 172.442857 
z
" clip-path="url(#p3a5e839b4b)" style="fill: #808080; opacity: 0.08; stroke: #808080; stroke-linejoin: miter"/>
   </g>
   <g id="patch_144">
    <path d="M 286.100278 161.002212 
L 285.984902 161.000184 
L 285.997024 160.965843 
L 219.103774 137.353774 
L 219.103823 137.353636 
L 285.997072 160.965705 
L 286.009194 160.931364 
z
" clip-path="url(#p3a5e839b4b)" style="fill: #808080; opacity: 0.08; stroke: #808080; stroke-linejoin: miter"/>
   </g>
   <g id="patch_145">
    <path d="M 311.093156 153.560369 
L 310.979013 153.577312 
L 310.985332 153.541447 
L 219.103786 137.353777 
L 219.103812 137.353633 
L 310.985357 153.541303 
L 310.991676 153.505438 
z
" clip-path="url(#p3a5e839b4b)" style="fill: #808080; opacity: 0.08; stroke: #808080; stroke-linejoin: miter"/>
   </g>
   <g id="patch_146">
    <path d="M 117.036497 178.651898 
L 117.12429 178.577011 
L 117.137949 178.61077 
L 219.103773 137.353637 
L 219.103827 137.353772 
L 117.138004 178.610905 
L 117.151663 178.644664 
z
" clip-path="url(#p3a5e839b4b)" style="fill: #808080; opacity: 0.08; stroke: #808080; stroke-linejoin: miter"/>
   </g>
   <g id="patch_147">
    <path d="M 265.094429 145.397712 
L 264.980307 145.414796 
L 264.986581 145.378923 
L 219.103787 137.353777 
L 219.103812 137.353633 
L 264.986606 145.378779 
L 264.992881 145.342906 
z
" clip-path="url(#p3a5e839b4b)" style="fill: #808080; opacity: 0.08; stroke: #808080; stroke-linejoin: miter"/>
   </g>
   <g id="patch_148">
    <path d="M 258.975877 179.966888 
L 258.874437 179.911883 
L 258.901029 179.887001 
L 219.103746 137.353756 
L 219.103852 137.353656 
L 258.901136 179.886902 
L 258.927728 179.86202 
z
" clip-path="url(#p3a5e839b4b)" style="fill: #808080; opacity: 0.08; stroke: #808080; stroke-linejoin: miter"/>
   </g>
   <g id="patch_149">
    <path d="M 238.070796 164.474315 
L 237.978154 164.405518 
L 238.007997 164.384647 
L 219.10374 137.353748 
L 219.10386 137.353664 
L 238.008117 164.384563 
L 238.03796 164.363692 
z
" clip-path="url(#p3a5e839b4b)" style="fill: #808080; opacity: 0.08; stroke: #808080; stroke-linejoin: miter"/>
   </g>
   <g id="patch_150">
    <path d="M 212.993809 171.823271 
L 212.976986 171.709111 
L 213.012844 171.715467 
L 219.103727 137.353692 
L 219.103871 137.353718 
L 213.012988 171.715492 
L 213.048847 171.721849 
z
" clip-path="url(#p3a5e839b4b)" style="fill: #808080; opacity: 0.08; stroke: #808080; stroke-linejoin: miter"/>
   </g>
   <g id="patch_151">
    <path d="M 240.099991 152.848973 
L 239.990241 152.813329 
L 240.011866 152.784027 
L 219.103757 137.353764 
L 219.103843 137.353646 
L 240.011952 152.78391 
L 240.033577 152.754608 
z
" clip-path="url(#p3a5e839b4b)" style="fill: #808080; opacity: 0.08; stroke: #808080; stroke-linejoin: miter"/>
   </g>
   <g id="patch_152">
    <path d="M 169.056634 152.235305 
L 169.151164 152.169127 
L 169.161544 152.204034 
L 219.103779 137.353635 
L 219.10382 137.353775 
L 169.161586 152.204174 
L 169.171965 152.239081 
z
" clip-path="url(#p3a5e839b4b)" style="fill: #808080; opacity: 0.08; stroke: #808080; stroke-linejoin: miter"/>
   </g>
   <g id="patch_153">
    <path d="M 261.016743 168.458322 
L 260.907088 168.422386 
L 260.92879 168.393141 
L 219.103757 137.353763 
L 219.103844 137.353646 
L 260.928877 168.393024 
L 260.95058 168.36378 
z
" clip-path="url(#p3a5e839b4b)" style="fill: #808080; opacity: 0.08; stroke: #808080; stroke-linejoin: miter"/>
   </g>
   <g id="patch_154">
    <path d="M 306.98077 176.598079 
L 306.865933 176.586759 
L 306.880783 176.553506 
L 219.103767 137.353771 
L 219.103827 137.353638 
L 306.880843 176.553373 
L 306.895693 176.520121 
z
" clip-path="url(#p3a5e839b4b)" style="fill: #808080; opacity: 0.08; stroke: #808080; stroke-linejoin: miter"/>
   </g>
   <g id="patch_155">
    <path d="M 306.995648 176.601081 
L 306.880811 176.589765 
L 306.895659 176.556512 
L 219.103769 137.353773 
L 219.103828 137.353639 
L 306.895719 176.556379 
L 306.910568 176.523126 
z
" clip-path="url(#p3a5e839b4b)" style="fill: #808080; opacity: 0.08; stroke: #808080; stroke-linejoin: miter"/>
   </g>
   <g id="patch_156">
    <path d="M 166.992222 163.76089 
L 167.073378 163.678856 
L 167.089839 163.711341 
L 219.103766 137.35364 
L 219.103832 137.35377 
L 167.089905 163.711471 
L 167.106366 163.743956 
z
" clip-path="url(#p3a5e839b4b)" style="fill: #808080; opacity: 0.08; stroke: #808080; stroke-linejoin: miter"/>
   </g>
   <g id="patch_157">
    <path d="M 171.08328 140.712126 
L 171.18994 140.668087 
L 171.19248 140.704416 
L 219.103794 137.353632 
L 219.103804 137.353778 
L 171.192491 140.704562 
L 171.195031 140.740891 
z
" clip-path="url(#p3a5e839b4b)" style="fill: #808080; opacity: 0.08; stroke: #808080; stroke-linejoin: miter"/>
   </g>
   <g id="patch_158">
    <path d="M 240.124294 152.951835 
L 240.014637 152.915904 
L 240.036339 152.886659 
L 219.103755 137.353764 
L 219.103842 137.353647 
L 240.036426 152.886542 
L 240.058127 152.857296 
z
" clip-path="url(#p3a5e839b4b)" style="fill: #808080; opacity: 0.08; stroke: #808080; stroke-linejoin: miter"/>
   </g>
   <g id="patch_159">
    <path d="M 359.107225 150.193897 
L 358.994878 150.220237 
L 358.998204 150.183971 
L 219.10379 137.353778 
L 219.103804 137.353632 
L 358.998217 150.183826 
L 359.001544 150.14756 
z
" clip-path="url(#p3a5e839b4b)" style="fill: #808080; opacity: 0.08; stroke: #808080; stroke-linejoin: miter"/>
   </g>
   <g id="patch_160">
    <path d="M 332.068688 169.146105 
L 331.953424 169.151574 
L 331.96329 169.116518 
L 219.103777 137.353774 
L 219.103816 137.353633 
L 331.96333 169.116377 
L 331.973196 169.081322 
z
" clip-path="url(#p3a5e839b4b)" style="fill: #808080; opacity: 0.08; stroke: #808080; stroke-linejoin: miter"/>
   </g>
   <g id="patch_161">
    <path d="M 209.007546 194.863687 
L 208.990534 194.749554 
L 209.026403 194.755851 
L 219.103727 137.353694 
L 219.103871 137.353719 
L 209.026547 194.755877 
L 209.062416 194.762174 
z
" clip-path="url(#p3a5e839b4b)" style="fill: #808080; opacity: 0.08; stroke: #808080; stroke-linejoin: miter"/>
   </g>
   <g id="patch_162">
    <path d="M 290.095944 138.063464 
L 289.986113 138.098858 
L 289.986477 138.062442 
L 219.103799 137.353778 
L 219.103801 137.353632 
L 289.986479 138.062297 
L 289.986843 138.025881 
z
" clip-path="url(#p3a5e839b4b)" style="fill: #808080; opacity: 0.08; stroke: #808080; stroke-linejoin: miter"/>
   </g>
   <g id="patch_163">
    <path d="M 183.912055 202.298512 
L 183.932127 202.184877 
L 183.964146 202.202227 
L 219.103735 137.353671 
L 219.103864 137.353741 
L 183.964274 202.202297 
L 183.996293 202.219647 
z
" clip-path="url(#p3a5e839b4b)" style="fill: #808080; opacity: 0.08; stroke: #808080; stroke-linejoin: miter"/>
   </g>
   <g id="patch_164">
    <path d="M 288.118176 149.490447 
L 288.004038 149.507426 
L 288.010346 149.471559 
L 219.103787 137.353777 
L 219.103813 137.353634 
L 288.010371 149.471415 
L 288.016679 149.435548 
z
" clip-path="url(#p3a5e839b4b)" style="fill: #808080; opacity: 0.08; stroke: #808080; stroke-linejoin: miter"/>
   </g>
   <g id="patch_165">
    <path d="M 236.010011 175.990763 
L 235.932697 175.9051 
L 235.96606 175.890501 
L 219.103733 137.353735 
L 219.103867 137.353676 
L 235.966194 175.890443 
L 235.999557 175.875844 
z
" clip-path="url(#p3a5e839b4b)" style="fill: #808080; opacity: 0.08; stroke: #808080; stroke-linejoin: miter"/>
   </g>
   <g id="patch_166">
    <path d="M 286.077311 160.999014 
L 285.961935 160.996978 
L 285.974059 160.962638 
L 219.103774 137.353774 
L 219.103823 137.353636 
L 285.974108 160.9625 
L 285.986232 160.92816 
z
" clip-path="url(#p3a5e839b4b)" style="fill: #808080; opacity: 0.08; stroke: #808080; stroke-linejoin: miter"/>
   </g>
   <g id="patch_167">
    <path d="M 162.949521 186.700208 
L 163.007666 186.600534 
L 163.031705 186.62789 
L 219.103751 137.35365 
L 219.103847 137.35376 
L 163.031802 186.628 
L 163.055841 186.655356 
z
" clip-path="url(#p3a5e839b4b)" style="fill: #808080; opacity: 0.08; stroke: #808080; stroke-linejoin: miter"/>
   </g>
   <g id="patch_168">
    <path d="M 263.056788 157.024632 
L 262.941961 157.01322 
L 262.956837 156.97998 
L 219.10377 137.353772 
L 219.10383 137.353639 
L 262.956897 156.979846 
L 262.971773 156.946606 
z
" clip-path="url(#p3a5e839b4b)" style="fill: #808080; opacity: 0.08; stroke: #808080; stroke-linejoin: miter"/>
   </g>
   <g id="patch_169">
    <path d="M 123.056347 144.082067 
L 123.163001 144.038016 
L 123.165546 144.074344 
L 219.103794 137.353632 
L 219.103804 137.353778 
L 123.165556 144.07449 
L 123.168101 144.110818 
z
" clip-path="url(#p3a5e839b4b)" style="fill: #808080; opacity: 0.08; stroke: #808080; stroke-linejoin: miter"/>
   </g>
   <g id="patch_170">
    <path d="M 144.062196 159.686567 
L 144.156711 159.620366 
L 144.167099 159.655271 
L 219.10378 137.353636 
L 219.103822 137.353776 
L 144.167141 159.655411 
L 144.177529 159.690315 
z
" clip-path="url(#p3a5e839b4b)" style="fill: #808080; opacity: 0.08; stroke: #808080; stroke-linejoin: miter"/>
   </g>
   <g id="patch_171">
    <path d="M 93.996232 174.58758 
L 94.090747 174.521378 
L 94.101135 174.556283 
L 219.103778 137.353633 
L 219.10382 137.353773 
L 94.101177 174.556423 
L 94.111565 174.591327 
z
" clip-path="url(#p3a5e839b4b)" style="fill: #808080; opacity: 0.08; stroke: #808080; stroke-linejoin: miter"/>
   </g>
   <g id="patch_172">
    <path d="M 192.070643 156.220397 
L 192.13953 156.127822 
L 192.160373 156.157685 
L 219.103758 137.353645 
L 219.103842 137.353765 
L 192.160456 156.157805 
L 192.181298 156.187669 
z
" clip-path="url(#p3a5e839b4b)" style="fill: #808080; opacity: 0.08; stroke: #808080; stroke-linejoin: miter"/>
   </g>
   <g id="patch_173">
    <path d="M 334.119202 157.63036 
L 334.005057 157.647291 
L 334.01138 157.611426 
L 219.103789 137.353778 
L 219.103814 137.353634 
L 334.011405 157.611282 
L 334.017728 157.575418 
z
" clip-path="url(#p3a5e839b4b)" style="fill: #808080; opacity: 0.08; stroke: #808080; stroke-linejoin: miter"/>
   </g>
   <g id="patch_174">
    <path d="M 72.990384 158.98308 
L 73.093332 158.930952 
L 73.098665 158.966977 
L 219.103785 137.353633 
L 219.103807 137.353777 
L 73.098686 158.967121 
L 73.104019 159.003146 
z
" clip-path="url(#p3a5e839b4b)" style="fill: #808080; opacity: 0.08; stroke: #808080; stroke-linejoin: miter"/>
   </g>
   <g id="patch_175">
    <path d="M 142.024297 171.213314 
L 142.109849 171.135876 
L 142.124496 171.169219 
L 219.103772 137.353638 
L 219.10383 137.353772 
L 142.124554 171.169352 
L 142.139201 171.202695 
z
" clip-path="url(#p3a5e839b4b)" style="fill: #808080; opacity: 0.08; stroke: #808080; stroke-linejoin: miter"/>
   </g>
   <g id="patch_176">
    <path d="M 261.102677 168.444293 
L 260.992979 168.408488 
L 261.014647 168.379217 
L 219.103755 137.353763 
L 219.103842 137.353645 
L 261.014734 168.3791 
L 261.036402 168.34983 
z
" clip-path="url(#p3a5e839b4b)" style="fill: #808080; opacity: 0.08; stroke: #808080; stroke-linejoin: miter"/>
   </g>
   <g id="patch_177">
    <path d="M 215.106551 160.391698 
L 215.089312 160.277599 
L 215.125194 160.283825 
L 219.103728 137.353693 
L 219.103871 137.353718 
L 215.125338 160.28385 
L 215.161219 160.290075 
z
" clip-path="url(#p3a5e839b4b)" style="fill: #808080; opacity: 0.08; stroke: #808080; stroke-linejoin: miter"/>
   </g>
   <g id="patch_178">
    <path d="M 336.062132 146.117338 
L 335.95024 146.145546 
L 335.952961 146.109231 
L 219.103797 137.353778 
L 219.103808 137.353632 
L 335.952972 146.109085 
L 335.955693 146.072769 
z
" clip-path="url(#p3a5e839b4b)" style="fill: #808080; opacity: 0.08; stroke: #808080; stroke-linejoin: miter"/>
   </g>
   <g id="patch_179">
    <path d="M 277.94769 206.985848 
L 277.849159 206.925787 
L 277.876974 206.902281 
L 219.103746 137.353753 
L 219.103857 137.353659 
L 277.877086 206.902187 
L 277.904901 206.87868 
z
" clip-path="url(#p3a5e839b4b)" style="fill: #808080; opacity: 0.08; stroke: #808080; stroke-linejoin: miter"/>
   </g>
   <g id="patch_180">
    <path d="M 229.908257 210.446409 
L 229.856151 210.34345 
L 229.892177 210.338125 
L 219.103727 137.353715 
L 219.103871 137.353693 
L 229.892321 210.338103 
L 229.928347 210.332778 
z
" clip-path="url(#p3a5e839b4b)" style="fill: #808080; opacity: 0.08; stroke: #808080; stroke-linejoin: miter"/>
   </g>
   <g id="patch_181">
    <path d="M 240.007259 152.95277 
L 239.897699 152.916544 
L 239.91948 152.887357 
L 219.103755 137.353763 
L 219.103843 137.353646 
L 239.919567 152.88724 
L 239.941347 152.858053 
z
" clip-path="url(#p3a5e839b4b)" style="fill: #808080; opacity: 0.08; stroke: #808080; stroke-linejoin: miter"/>
   </g>
   <g id="patch_182">
    <path d="M 257.019495 191.496312 
L 256.926809 191.427574 
L 256.956639 191.406684 
L 219.103739 137.353747 
L 219.103858 137.353663 
L 256.956759 191.4066 
L 256.986589 191.38571 
z
" clip-path="url(#p3a5e839b4b)" style="fill: #808080; opacity: 0.08; stroke: #808080; stroke-linejoin: miter"/>
   </g>
   <g id="patch_183">
    <path d="M 231.95706 198.941841 
L 231.898975 198.842133 
L 231.934624 198.834693 
L 219.103728 137.353722 
L 219.103871 137.353692 
L 231.934767 198.834663 
L 231.970417 198.827223 
z
" clip-path="url(#p3a5e839b4b)" style="fill: #808080; opacity: 0.08; stroke: #808080; stroke-linejoin: miter"/>
   </g>
   <g id="patch_184">
    <path d="M 210.945211 183.431819 
L 210.928366 183.317662 
L 210.964226 183.324011 
L 219.103728 137.353692 
L 219.103871 137.353717 
L 210.964369 183.324037 
L 211.000229 183.330386 
z
" clip-path="url(#p3a5e839b4b)" style="fill: #808080; opacity: 0.08; stroke: #808080; stroke-linejoin: miter"/>
   </g>
   <g id="patch_185">
    <path d="M 194.107856 144.791844 
L 194.202373 144.725646 
L 194.21276 144.760551 
L 219.103778 137.353635 
L 219.10382 137.353775 
L 194.212802 144.760691 
L 194.223189 144.795596 
z
" clip-path="url(#p3a5e839b4b)" style="fill: #808080; opacity: 0.08; stroke: #808080; stroke-linejoin: miter"/>
   </g>
   <g id="patch_186">
    <path d="M 286.072482 160.998207 
L 285.957107 160.99617 
L 285.969231 160.96183 
L 219.103774 137.353774 
L 219.103823 137.353636 
L 285.96928 160.961692 
L 285.981404 160.927352 
z
" clip-path="url(#p3a5e839b4b)" style="fill: #808080; opacity: 0.08; stroke: #808080; stroke-linejoin: miter"/>
   </g>
   <g id="patch_187">
    <path d="M 185.95527 190.77548 
L 185.981983 190.663221 
L 186.012927 190.682422 
L 219.103738 137.353668 
L 219.103862 137.353745 
L 186.013051 190.682499 
L 186.043996 190.7017 
z
" clip-path="url(#p3a5e839b4b)" style="fill: #808080; opacity: 0.08; stroke: #808080; stroke-linejoin: miter"/>
   </g>
   <g id="patch_188">
    <path d="M 327.990254 192.103628 
L 327.876057 192.087052 
L 327.892417 192.054516 
L 219.103766 137.353771 
L 219.103832 137.35364 
L 327.892483 192.054385 
L 327.908842 192.021849 
z
" clip-path="url(#p3a5e839b4b)" style="fill: #808080; opacity: 0.08; stroke: #808080; stroke-linejoin: miter"/>
   </g>
   <g id="patch_189">
    <path d="M 167.007928 163.772841 
L 167.089059 163.690783 
L 167.10553 163.723263 
L 219.103767 137.35364 
L 219.103833 137.35377 
L 167.105596 163.723393 
L 167.122068 163.755873 
z
" clip-path="url(#p3a5e839b4b)" style="fill: #808080; opacity: 0.08; stroke: #808080; stroke-linejoin: miter"/>
   </g>
   <g id="patch_190">
    <path d="M 146.087275 148.167637 
L 146.190219 148.115502 
L 146.195555 148.151527 
L 219.103789 137.353633 
L 219.103811 137.353777 
L 146.195576 148.151671 
L 146.200912 148.187696 
z
" clip-path="url(#p3a5e839b4b)" style="fill: #808080; opacity: 0.08; stroke: #808080; stroke-linejoin: miter"/>
   </g>
   <g id="patch_191">
    <path d="M 231.955555 198.928718 
L 231.897467 198.829011 
L 231.933117 198.82157 
L 219.103728 137.353719 
L 219.103871 137.353689 
L 231.933259 198.82154 
L 231.968909 198.8141 
z
" clip-path="url(#p3a5e839b4b)" style="fill: #808080; opacity: 0.08; stroke: #808080; stroke-linejoin: miter"/>
   </g>
   <g id="patch_192">
    <path d="M 332.094827 169.154052 
L 331.979563 169.15952 
L 331.989429 169.124464 
L 219.103776 137.353775 
L 219.103816 137.353634 
L 331.989469 169.124324 
L 331.999335 169.089268 
z
" clip-path="url(#p3a5e839b4b)" style="fill: #808080; opacity: 0.08; stroke: #808080; stroke-linejoin: miter"/>
   </g>
   <g id="patch_193">
    <path d="M 146.096852 148.16202 
L 146.199799 148.109891 
L 146.205133 148.145916 
L 219.10379 137.353633 
L 219.103812 137.353778 
L 146.205154 148.14606 
L 146.210487 148.182085 
z
" clip-path="url(#p3a5e839b4b)" style="fill: #808080; opacity: 0.08; stroke: #808080; stroke-linejoin: miter"/>
   </g>
   <g id="patch_194">
    <path d="M 167.016018 163.65828 
L 167.097287 163.576359 
L 167.113703 163.608867 
L 219.103767 137.35364 
L 219.103832 137.35377 
L 167.113769 163.608997 
L 167.130185 163.641504 
z
" clip-path="url(#p3a5e839b4b)" style="fill: #808080; opacity: 0.08; stroke: #808080; stroke-linejoin: miter"/>
   </g>
   <g id="patch_195">
    <path d="M 164.965344 175.277975 
L 165.034069 175.185279 
L 165.054963 175.215107 
L 219.103756 137.353645 
L 219.10384 137.353765 
L 165.055047 175.215226 
L 165.075941 175.245054 
z
" clip-path="url(#p3a5e839b4b)" style="fill: #808080; opacity: 0.08; stroke: #808080; stroke-linejoin: miter"/>
   </g>
   <g id="patch_196">
    <path d="M 169.051609 152.240203 
L 169.146136 152.174019 
L 169.156517 152.208925 
L 219.10378 137.353635 
L 219.103821 137.353775 
L 169.156559 152.209065 
L 169.166941 152.243971 
z
" clip-path="url(#p3a5e839b4b)" style="fill: #808080; opacity: 0.08; stroke: #808080; stroke-linejoin: miter"/>
   </g>
   <g id="patch_197">
    <path d="M 217.079418 148.877396 
L 217.062418 148.763262 
L 217.098287 148.769563 
L 219.103727 137.353692 
L 219.103871 137.353717 
L 217.098431 148.769588 
L 217.134299 148.775889 
z
" clip-path="url(#p3a5e839b4b)" style="fill: #808080; opacity: 0.08; stroke: #808080; stroke-linejoin: miter"/>
   </g>
   <g id="patch_198">
    <path d="M 171.091851 140.72108 
L 171.198501 140.677019 
L 171.201049 140.713348 
L 219.103795 137.353632 
L 219.103805 137.353778 
L 171.201059 140.713493 
L 171.203607 140.749822 
z
" clip-path="url(#p3a5e839b4b)" style="fill: #808080; opacity: 0.08; stroke: #808080; stroke-linejoin: miter"/>
   </g>
   <g id="patch_199">
    <path d="M 212.992509 171.914128 
L 212.975638 171.799975 
L 213.011499 171.806316 
L 219.103727 137.353692 
L 219.103871 137.353717 
L 213.011643 171.806341 
L 213.047504 171.812683 
z
" clip-path="url(#p3a5e839b4b)" style="fill: #808080; opacity: 0.08; stroke: #808080; stroke-linejoin: miter"/>
   </g>
   <g id="patch_200">
    <path d="M 185.959353 190.78082 
L 185.986054 190.668559 
L 186.017001 190.687757 
L 219.103737 137.353668 
L 219.103861 137.353745 
L 186.017125 190.687834 
L 186.048071 190.707032 
z
" clip-path="url(#p3a5e839b4b)" style="fill: #808080; opacity: 0.08; stroke: #808080; stroke-linejoin: miter"/>
   </g>
   <g id="patch_201">
    <path d="M 141.913177 171.207922 
L 141.998775 171.130535 
L 142.013402 171.163886 
L 219.103771 137.353639 
L 219.10383 137.353773 
L 142.01346 171.164019 
L 142.028087 171.19737 
z
" clip-path="url(#p3a5e839b4b)" style="fill: #808080; opacity: 0.08; stroke: #808080; stroke-linejoin: miter"/>
   </g>
   <g id="patch_202">
    <path d="M 290.079218 138.070431 
L 289.969383 138.105814 
L 289.969751 138.069398 
L 219.103799 137.353778 
L 219.1038 137.353632 
L 289.969752 138.069252 
L 289.97012 138.032836 
z
" clip-path="url(#p3a5e839b4b)" style="fill: #808080; opacity: 0.08; stroke: #808080; stroke-linejoin: miter"/>
   </g>
   <g id="line2d_12">
    <path d="M 219.103799 137.353705 
L 130.218525 136.952886 
" clip-path="url(#p3a5e839b4b)" style="fill: none; stroke: #c44e52; stroke-width: 2; stroke-linecap: round"/>
   </g>
   <g id="patch_203">
    <path d="M 56.737734 223.590065 
L 56.737734 21.936328 
" style="fill: none; stroke: #cccccc; stroke-width: 1.25; stroke-linejoin: miter; stroke-linecap: square"/>
   </g>
   <g id="patch_204">
    <path d="M 414.296016 223.590065 
L 414.296016 21.936328 
" style="fill: none; stroke: #cccccc; stroke-width: 1.25; stroke-linejoin: miter; stroke-linecap: square"/>
   </g>
   <g id="patch_205">
    <path d="M 56.737734 223.590065 
L 414.296016 223.590065 
" style="fill: none; stroke: #cccccc; stroke-width: 1.25; stroke-linejoin: miter; stroke-linecap: square"/>
   </g>
   <g id="patch_206">
    <path d="M 56.737734 21.936328 
L 414.296016 21.936328 
" style="fill: none; stroke: #cccccc; stroke-width: 1.25; stroke-linejoin: miter; stroke-linecap: square"/>
   </g>
   <g id="text_14">
    <!-- PCA on sampled pairwise differences -->
    <g style="fill: #262626" transform="translate(136.246875 15.936328) scale(0.12 -0.12)">
     <defs>
      <path id="ArialMT-33" d="M 494 0 
L 494 4581 
L 2222 4581 
Q 2678 4581 2919 4538 
Q 3256 4481 3484 4323 
Q 3713 4166 3852 3881 
Q 3991 3597 3991 3256 
Q 3991 2672 3619 2267 
Q 3247 1863 2275 1863 
L 1100 1863 
L 1100 0 
L 494 0 
z
M 1100 2403 
L 2284 2403 
Q 2872 2403 3119 2622 
Q 3366 2841 3366 3238 
Q 3366 3525 3220 3729 
Q 3075 3934 2838 4000 
Q 2684 4041 2272 4041 
L 1100 4041 
L 1100 2403 
z
" transform="scale(0.015625)"/>
      <path id="ArialMT-26" d="M 3763 1606 
L 4369 1453 
Q 4178 706 3683 314 
Q 3188 -78 2472 -78 
Q 1731 -78 1267 223 
Q 803 525 561 1097 
Q 319 1669 319 2325 
Q 319 3041 592 3573 
Q 866 4106 1370 4382 
Q 1875 4659 2481 4659 
Q 3169 4659 3637 4309 
Q 4106 3959 4291 3325 
L 3694 3184 
Q 3534 3684 3231 3912 
Q 2928 4141 2469 4141 
Q 1941 4141 1586 3887 
Q 1231 3634 1087 3207 
Q 944 2781 944 2328 
Q 944 1744 1114 1308 
Q 1284 872 1643 656 
Q 2003 441 2422 441 
Q 2931 441 3284 734 
Q 3638 1028 3763 1606 
z
" transform="scale(0.015625)"/>
      <path id="ArialMT-24" d="M -9 0 
L 1750 4581 
L 2403 4581 
L 4278 0 
L 3588 0 
L 3053 1388 
L 1138 1388 
L 634 0 
L -9 0 
z
M 1313 1881 
L 2866 1881 
L 2388 3150 
Q 2169 3728 2063 4100 
Q 1975 3659 1816 3225 
L 1313 1881 
z
" transform="scale(0.015625)"/>
      <path id="ArialMT-3" transform="scale(0.015625)"/>
      <path id="ArialMT-52" d="M 213 1659 
Q 213 2581 725 3025 
Q 1153 3394 1769 3394 
Q 2453 3394 2887 2945 
Q 3322 2497 3322 1706 
Q 3322 1066 3130 698 
Q 2938 331 2570 128 
Q 2203 -75 1769 -75 
Q 1072 -75 642 372 
Q 213 819 213 1659 
z
M 791 1659 
Q 791 1022 1069 705 
Q 1347 388 1769 388 
Q 2188 388 2466 706 
Q 2744 1025 2744 1678 
Q 2744 2294 2464 2611 
Q 2184 2928 1769 2928 
Q 1347 2928 1069 2612 
Q 791 2297 791 1659 
z
" transform="scale(0.015625)"/>
      <path id="ArialMT-51" d="M 422 0 
L 422 3319 
L 928 3319 
L 928 2847 
Q 1294 3394 1984 3394 
Q 2284 3394 2536 3286 
Q 2788 3178 2913 3003 
Q 3038 2828 3088 2588 
Q 3119 2431 3119 2041 
L 3119 0 
L 2556 0 
L 2556 2019 
Q 2556 2363 2490 2533 
Q 2425 2703 2258 2804 
Q 2091 2906 1866 2906 
Q 1506 2906 1245 2678 
Q 984 2450 984 1813 
L 984 0 
L 422 0 
z
" transform="scale(0.015625)"/>
      <path id="ArialMT-56" d="M 197 991 
L 753 1078 
Q 800 744 1014 566 
Q 1228 388 1613 388 
Q 2000 388 2187 545 
Q 2375 703 2375 916 
Q 2375 1106 2209 1216 
Q 2094 1291 1634 1406 
Q 1016 1563 777 1677 
Q 538 1791 414 1992 
Q 291 2194 291 2438 
Q 291 2659 392 2848 
Q 494 3038 669 3163 
Q 800 3259 1026 3326 
Q 1253 3394 1513 3394 
Q 1903 3394 2198 3281 
Q 2494 3169 2634 2976 
Q 2775 2784 2828 2463 
L 2278 2388 
Q 2241 2644 2061 2787 
Q 1881 2931 1553 2931 
Q 1166 2931 1000 2803 
Q 834 2675 834 2503 
Q 834 2394 903 2306 
Q 972 2216 1119 2156 
Q 1203 2125 1616 2013 
Q 2213 1853 2448 1751 
Q 2684 1650 2818 1456 
Q 2953 1263 2953 975 
Q 2953 694 2789 445 
Q 2625 197 2315 61 
Q 2006 -75 1616 -75 
Q 969 -75 630 194 
Q 291 463 197 991 
z
" transform="scale(0.015625)"/>
      <path id="ArialMT-44" d="M 2588 409 
Q 2275 144 1986 34 
Q 1697 -75 1366 -75 
Q 819 -75 525 192 
Q 231 459 231 875 
Q 231 1119 342 1320 
Q 453 1522 633 1644 
Q 813 1766 1038 1828 
Q 1203 1872 1538 1913 
Q 2219 1994 2541 2106 
Q 2544 2222 2544 2253 
Q 2544 2597 2384 2738 
Q 2169 2928 1744 2928 
Q 1347 2928 1158 2789 
Q 969 2650 878 2297 
L 328 2372 
Q 403 2725 575 2942 
Q 747 3159 1072 3276 
Q 1397 3394 1825 3394 
Q 2250 3394 2515 3294 
Q 2781 3194 2906 3042 
Q 3031 2891 3081 2659 
Q 3109 2516 3109 2141 
L 3109 1391 
Q 3109 606 3145 398 
Q 3181 191 3288 0 
L 2700 0 
Q 2613 175 2588 409 
z
M 2541 1666 
Q 2234 1541 1622 1453 
Q 1275 1403 1131 1340 
Q 988 1278 909 1158 
Q 831 1038 831 891 
Q 831 666 1001 516 
Q 1172 366 1500 366 
Q 1825 366 2078 508 
Q 2331 650 2450 897 
Q 2541 1088 2541 1459 
L 2541 1666 
z
" transform="scale(0.015625)"/>
      <path id="ArialMT-50" d="M 422 0 
L 422 3319 
L 925 3319 
L 925 2853 
Q 1081 3097 1340 3245 
Q 1600 3394 1931 3394 
Q 2300 3394 2536 3241 
Q 2772 3088 2869 2813 
Q 3263 3394 3894 3394 
Q 4388 3394 4653 3120 
Q 4919 2847 4919 2278 
L 4919 0 
L 4359 0 
L 4359 2091 
Q 4359 2428 4304 2576 
Q 4250 2725 4106 2815 
Q 3963 2906 3769 2906 
Q 3419 2906 3187 2673 
Q 2956 2441 2956 1928 
L 2956 0 
L 2394 0 
L 2394 2156 
Q 2394 2531 2256 2718 
Q 2119 2906 1806 2906 
Q 1569 2906 1367 2781 
Q 1166 2656 1075 2415 
Q 984 2175 984 1722 
L 984 0 
L 422 0 
z
" transform="scale(0.015625)"/>
      <path id="ArialMT-53" d="M 422 -1272 
L 422 3319 
L 934 3319 
L 934 2888 
Q 1116 3141 1344 3267 
Q 1572 3394 1897 3394 
Q 2322 3394 2647 3175 
Q 2972 2956 3137 2557 
Q 3303 2159 3303 1684 
Q 3303 1175 3120 767 
Q 2938 359 2589 142 
Q 2241 -75 1856 -75 
Q 1575 -75 1351 44 
Q 1128 163 984 344 
L 984 -1272 
L 422 -1272 
z
M 931 1641 
Q 931 1000 1190 694 
Q 1450 388 1819 388 
Q 2194 388 2461 705 
Q 2728 1022 2728 1688 
Q 2728 2322 2467 2637 
Q 2206 2953 1844 2953 
Q 1484 2953 1207 2617 
Q 931 2281 931 1641 
z
" transform="scale(0.015625)"/>
      <path id="ArialMT-4f" d="M 409 0 
L 409 4581 
L 972 4581 
L 972 0 
L 409 0 
z
" transform="scale(0.015625)"/>
      <path id="ArialMT-48" d="M 2694 1069 
L 3275 997 
Q 3138 488 2766 206 
Q 2394 -75 1816 -75 
Q 1088 -75 661 373 
Q 234 822 234 1631 
Q 234 2469 665 2931 
Q 1097 3394 1784 3394 
Q 2450 3394 2872 2941 
Q 3294 2488 3294 1666 
Q 3294 1616 3291 1516 
L 816 1516 
Q 847 969 1125 678 
Q 1403 388 1819 388 
Q 2128 388 2347 550 
Q 2566 713 2694 1069 
z
M 847 1978 
L 2700 1978 
Q 2663 2397 2488 2606 
Q 2219 2931 1791 2931 
Q 1403 2931 1139 2672 
Q 875 2413 847 1978 
z
" transform="scale(0.015625)"/>
      <path id="ArialMT-47" d="M 2575 0 
L 2575 419 
Q 2259 -75 1647 -75 
Q 1250 -75 917 144 
Q 584 363 401 755 
Q 219 1147 219 1656 
Q 219 2153 384 2558 
Q 550 2963 881 3178 
Q 1213 3394 1622 3394 
Q 1922 3394 2156 3267 
Q 2391 3141 2538 2938 
L 2538 4581 
L 3097 4581 
L 3097 0 
L 2575 0 
z
M 797 1656 
Q 797 1019 1065 703 
Q 1334 388 1700 388 
Q 2069 388 2326 689 
Q 2584 991 2584 1609 
Q 2584 2291 2321 2609 
Q 2059 2928 1675 2928 
Q 1300 2928 1048 2622 
Q 797 2316 797 1656 
z
" transform="scale(0.015625)"/>
      <path id="ArialMT-4c" d="M 425 3934 
L 425 4581 
L 988 4581 
L 988 3934 
L 425 3934 
z
M 425 0 
L 425 3319 
L 988 3319 
L 988 0 
L 425 0 
z
" transform="scale(0.015625)"/>
      <path id="ArialMT-55" d="M 416 0 
L 416 3319 
L 922 3319 
L 922 2816 
Q 1116 3169 1280 3281 
Q 1444 3394 1641 3394 
Q 1925 3394 2219 3213 
L 2025 2691 
Q 1819 2813 1613 2813 
Q 1428 2813 1281 2702 
Q 1134 2591 1072 2394 
Q 978 2094 978 1738 
L 978 0 
L 416 0 
z
" transform="scale(0.015625)"/>
      <path id="ArialMT-5a" d="M 1034 0 
L 19 3319 
L 600 3319 
L 1128 1403 
L 1325 691 
Q 1338 744 1497 1375 
L 2025 3319 
L 2603 3319 
L 3100 1394 
L 3266 759 
L 3456 1400 
L 4025 3319 
L 4572 3319 
L 3534 0 
L 2950 0 
L 2422 1988 
L 2294 2553 
L 1622 0 
L 1034 0 
z
" transform="scale(0.015625)"/>
      <path id="ArialMT-49" d="M 556 0 
L 556 2881 
L 59 2881 
L 59 3319 
L 556 3319 
L 556 3672 
Q 556 4006 616 4169 
Q 697 4388 901 4523 
Q 1106 4659 1475 4659 
Q 1713 4659 2000 4603 
L 1916 4113 
Q 1741 4144 1584 4144 
Q 1328 4144 1222 4034 
Q 1116 3925 1116 3625 
L 1116 3319 
L 1763 3319 
L 1763 2881 
L 1116 2881 
L 1116 0 
L 556 0 
z
" transform="scale(0.015625)"/>
      <path id="ArialMT-46" d="M 2588 1216 
L 3141 1144 
Q 3050 572 2676 248 
Q 2303 -75 1759 -75 
Q 1078 -75 664 370 
Q 250 816 250 1647 
Q 250 2184 428 2587 
Q 606 2991 970 3192 
Q 1334 3394 1763 3394 
Q 2303 3394 2647 3120 
Q 2991 2847 3088 2344 
L 2541 2259 
Q 2463 2594 2264 2762 
Q 2066 2931 1784 2931 
Q 1359 2931 1093 2626 
Q 828 2322 828 1663 
Q 828 994 1084 691 
Q 1341 388 1753 388 
Q 2084 388 2306 591 
Q 2528 794 2588 1216 
z
" transform="scale(0.015625)"/>
     </defs>
     <use xlink:href="#ArialMT-33"/>
     <use xlink:href="#ArialMT-26" transform="translate(66.703125 0)"/>
     <use xlink:href="#ArialMT-24" transform="translate(138.921875 0)"/>
     <use xlink:href="#ArialMT-3" transform="translate(200.109375 0)"/>
     <use xlink:href="#ArialMT-52" transform="translate(227.890625 0)"/>
     <use xlink:href="#ArialMT-51" transform="translate(283.5 0)"/>
     <use xlink:href="#ArialMT-3" transform="translate(339.109375 0)"/>
     <use xlink:href="#ArialMT-56" transform="translate(366.890625 0)"/>
     <use xlink:href="#ArialMT-44" transform="translate(416.890625 0)"/>
     <use xlink:href="#ArialMT-50" transform="translate(472.5 0)"/>
     <use xlink:href="#ArialMT-53" transform="translate(555.796875 0)"/>
     <use xlink:href="#ArialMT-4f" transform="translate(611.40625 0)"/>
     <use xlink:href="#ArialMT-48" transform="translate(633.625 0)"/>
     <use xlink:href="#ArialMT-47" transform="translate(689.234375 0)"/>
     <use xlink:href="#ArialMT-3" transform="translate(744.84375 0)"/>
     <use xlink:href="#ArialMT-53" transform="translate(772.625 0)"/>
     <use xlink:href="#ArialMT-44" transform="translate(828.234375 0)"/>
     <use xlink:href="#ArialMT-4c" transform="translate(883.84375 0)"/>
     <use xlink:href="#ArialMT-55" transform="translate(906.0625 0)"/>
     <use xlink:href="#ArialMT-5a" transform="translate(939.359375 0)"/>
     <use xlink:href="#ArialMT-4c" transform="translate(1011.578125 0)"/>
     <use xlink:href="#ArialMT-56" transform="translate(1033.796875 0)"/>
     <use xlink:href="#ArialMT-48" transform="translate(1083.796875 0)"/>
     <use xlink:href="#ArialMT-3" transform="translate(1139.40625 0)"/>
     <use xlink:href="#ArialMT-47" transform="translate(1167.1875 0)"/>
     <use xlink:href="#ArialMT-4c" transform="translate(1222.796875 0)"/>
     <use xlink:href="#ArialMT-49" transform="translate(1245.015625 0)"/>
     <use xlink:href="#ArialMT-49" transform="translate(1270.984375 0)"/>
     <use xlink:href="#ArialMT-48" transform="translate(1298.765625 0)"/>
     <use xlink:href="#ArialMT-55" transform="translate(1354.375 0)"/>
     <use xlink:href="#ArialMT-48" transform="translate(1387.671875 0)"/>
     <use xlink:href="#ArialMT-51" transform="translate(1443.28125 0)"/>
     <use xlink:href="#ArialMT-46" transform="translate(1498.890625 0)"/>
     <use xlink:href="#ArialMT-48" transform="translate(1548.890625 0)"/>
     <use xlink:href="#ArialMT-56" transform="translate(1604.5 0)"/>
    </g>
   </g>
   <g id="legend_1">
    <g id="patch_207">
     <path d="M 63.734934 44.312335 
L 174.151688 44.312335 
Q 176.150888 44.312335 176.150888 42.313135 
L 176.150888 28.933528 
Q 176.150888 26.934328 174.151688 26.934328 
L 63.734934 26.934328 
Q 61.735734 26.934328 61.735734 28.933528 
L 61.735734 42.313135 
Q 61.735734 44.312335 63.734934 44.312335 
z
" style="fill: #ffffff; opacity: 0.8; stroke: #cccccc; stroke-linejoin: miter"/>
    </g>
    <g id="line2d_13">
     <path d="M 65.734134 34.711489 
L 75.730134 34.711489 
L 85.726134 34.711489 
" style="fill: none; stroke: #c44e52; stroke-width: 2; stroke-linecap: round"/>
    </g>
    <g id="text_15">
     <!-- Main axis (-0.26°) -->
     <g style="fill: #262626" transform="translate(93.722934 38.210089) scale(0.09996 -0.09996)">
      <defs>
       <path id="ArialMT-30" d="M 475 0 
L 475 4581 
L 1388 4581 
L 2472 1338 
Q 2622 884 2691 659 
Q 2769 909 2934 1394 
L 4031 4581 
L 4847 4581 
L 4847 0 
L 4263 0 
L 4263 3834 
L 2931 0 
L 2384 0 
L 1059 3900 
L 1059 0 
L 475 0 
z
" transform="scale(0.015625)"/>
       <path id="ArialMT-b" d="M 1497 -1347 
Q 1031 -759 709 28 
Q 388 816 388 1659 
Q 388 2403 628 3084 
Q 909 3875 1497 4659 
L 1900 4659 
Q 1522 4009 1400 3731 
Q 1209 3300 1100 2831 
Q 966 2247 966 1656 
Q 966 153 1900 -1347 
L 1497 -1347 
z
" transform="scale(0.015625)"/>
       <path id="ArialMT-10" d="M 203 1375 
L 203 1941 
L 1931 1941 
L 1931 1375 
L 203 1375 
z
" transform="scale(0.015625)"/>
       <path id="ArialMT-11" d="M 581 0 
L 581 641 
L 1222 641 
L 1222 0 
L 581 0 
z
" transform="scale(0.015625)"/>
       <path id="ArialMT-83" d="M 400 3794 
Q 400 4153 654 4406 
Q 909 4659 1266 4659 
Q 1628 4659 1881 4406 
Q 2134 4153 2134 3794 
Q 2134 3434 1879 3179 
Q 1625 2925 1266 2925 
Q 909 2925 654 3178 
Q 400 3431 400 3794 
z
M 741 3794 
Q 741 3575 895 3420 
Q 1050 3266 1269 3266 
Q 1484 3266 1639 3420 
Q 1794 3575 1794 3794 
Q 1794 4013 1639 4167 
Q 1484 4322 1269 4322 
Q 1050 4322 895 4167 
Q 741 4013 741 3794 
z
" transform="scale(0.015625)"/>
       <path id="ArialMT-c" d="M 791 -1347 
L 388 -1347 
Q 1322 153 1322 1656 
Q 1322 2244 1188 2822 
Q 1081 3291 891 3722 
Q 769 4003 388 4659 
L 791 4659 
Q 1378 3875 1659 3084 
Q 1900 2403 1900 1659 
Q 1900 816 1576 28 
Q 1253 -759 791 -1347 
z
" transform="scale(0.015625)"/>
      </defs>
      <use xlink:href="#ArialMT-30"/>
      <use xlink:href="#ArialMT-44" transform="translate(83.296875 0)"/>
      <use xlink:href="#ArialMT-4c" transform="translate(138.90625 0)"/>
      <use xlink:href="#ArialMT-51" transform="translate(161.125 0)"/>
      <use xlink:href="#ArialMT-3" transform="translate(216.734375 0)"/>
      <use xlink:href="#ArialMT-44" transform="translate(244.515625 0)"/>
      <use xlink:href="#ArialMT-5b" transform="translate(300.125 0)"/>
      <use xlink:href="#ArialMT-4c" transform="translate(350.125 0)"/>
      <use xlink:href="#ArialMT-56" transform="translate(372.34375 0)"/>
      <use xlink:href="#ArialMT-3" transform="translate(422.34375 0)"/>
      <use xlink:href="#ArialMT-b" transform="translate(450.125 0)"/>
      <use xlink:href="#ArialMT-10" transform="translate(483.421875 0)"/>
      <use xlink:href="#ArialMT-13" transform="translate(516.71875 0)"/>
      <use xlink:href="#ArialMT-11" transform="translate(572.328125 0)"/>
      <use xlink:href="#ArialMT-15" transform="translate(600.109375 0)"/>
      <use xlink:href="#ArialMT-19" transform="translate(655.71875 0)"/>
      <use xlink:href="#ArialMT-83" transform="translate(711.328125 0)"/>
      <use xlink:href="#ArialMT-c" transform="translate(751.3125 0)"/>
     </g>
    </g>
   </g>
  </g>
 </g>
 <defs>
  <clipPath id="p3a5e839b4b">
   <rect x="56.737734" y="21.936328" width="357.558281" height="201.653737"/>
  </clipPath>
 </defs>
</svg>
