<?xml version="1.0" encoding="utf-8" standalone="no"?>
<!DOCTYPE svg PUBLIC "-//W3C//DTD SVG 1.1//EN"
  "http://www.w3.org/Graphics/SVG/1.1/DTD/svg11.dtd">
<svg xmlns:xlink="http://www.w3.org/1999/xlink" width="421.551328pt" height="253.608892pt" viewBox="0 0 421.551328 253.608892" xmlns="http://www.w3.org/2000/svg" version="1.1">
 <metadata>
  <rdf:RDF xmlns:dc="http://purl.org/dc/elements/1.1/" xmlns:cc="http://creativecommons.org/ns#" xmlns:rdf="http://www.w3.org/1999/02/22-rdf-syntax-ns#">
   <cc:Work>
    <dc:type rdf:resource="http://purl.org/dc/dcmitype/StillImage"/>
    <dc:date>2026-07-21T10:06:54.932000</dc:date>
    <dc:format>image/svg+xml</dc:format>
    <dc:creator>
     <cc:Agent>
      <dc:title>Matplotlib v3.11.1, https://matplotlib.org/</dc:title>
     </cc:Agent>
    </dc:creator>
   </cc:Work>
  </rdf:RDF>
 </metadata>
 <defs>
  <style type="text/css">*{stroke-linejoin: round; stroke-linecap: butt}</style>
 </defs>
 <g id="figure_1">
  <g id="patch_1">
   <path d="M 0 253.608892 
L 421.551328 253.608892 
L 421.551328 0 
L 0 0 
z
" style="fill: #ffffff"/>
  </g>
  <g id="axes_1">
   <g id="patch_2">
    <path d="M 50.313047 211.323697 
L 414.351328 211.323697 
L 414.351328 21.936328 
L 50.313047 21.936328 
z
" style="fill: #ffffff"/>
   </g>
   <g id="matplotlib.axis_1">
    <g id="xtick_1">
     <g id="line2d_1">
      <path d="M 63.278286 211.323697 
L 63.278286 21.936328 
" clip-path="url(#p00789c0018)" style="fill: none; stroke: #cccccc; stroke-linecap: round"/>
     </g>
     <g id="text_1">
      <!-- 200 -->
      <g style="fill: #262626" transform="translate(54.10274 228.831997) scale(0.11 -0.11)">
       <defs>
        <path id="ArialMT-15" d="M 3222 541 
L 3222 0 
L 194 0 
Q 188 203 259 391 
Q 375 700 629 1000 
Q 884 1300 1366 1694 
Q 2113 2306 2375 2664 
Q 2638 3022 2638 3341 
Q 2638 3675 2398 3904 
Q 2159 4134 1775 4134 
Q 1369 4134 1125 3890 
Q 881 3647 878 3216 
L 300 3275 
Q 359 3922 746 4261 
Q 1134 4600 1788 4600 
Q 2447 4600 2831 4234 
Q 3216 3869 3216 3328 
Q 3216 3053 3103 2787 
Q 2991 2522 2730 2228 
Q 2469 1934 1863 1422 
Q 1356 997 1212 845 
Q 1069 694 975 541 
L 3222 541 
z
" transform="scale(0.015625)"/>
        <path id="ArialMT-13" d="M 266 2259 
Q 266 3072 433 3567 
Q 600 4063 929 4331 
Q 1259 4600 1759 4600 
Q 2128 4600 2406 4451 
Q 2684 4303 2865 4023 
Q 3047 3744 3150 3342 
Q 3253 2941 3253 2259 
Q 3253 1453 3087 958 
Q 2922 463 2592 192 
Q 2263 -78 1759 -78 
Q 1097 -78 719 397 
Q 266 969 266 2259 
z
M 844 2259 
Q 844 1131 1108 757 
Q 1372 384 1759 384 
Q 2147 384 2411 759 
Q 2675 1134 2675 2259 
Q 2675 3391 2411 3762 
Q 2147 4134 1753 4134 
Q 1366 4134 1134 3806 
Q 844 3388 844 2259 
z
" transform="scale(0.015625)"/>
       </defs>
       <use xlink:href="#ArialMT-15"/>
       <use xlink:href="#ArialMT-13" transform="translate(55.609375 0)"/>
       <use xlink:href="#ArialMT-13" transform="translate(111.21875 0)"/>
      </g>
     </g>
    </g>
    <g id="xtick_2">
     <g id="line2d_2">
      <path d="M 128.492581 211.323697 
L 128.492581 21.936328 
" clip-path="url(#p00789c0018)" style="fill: none; stroke: #cccccc; stroke-linecap: round"/>
     </g>
     <g id="text_2">
      <!-- 400 -->
      <g style="fill: #262626" transform="translate(119.317034 228.831997) scale(0.11 -0.11)">
       <defs>
        <path id="ArialMT-17" d="M 2069 0 
L 2069 1097 
L 81 1097 
L 81 1613 
L 2172 4581 
L 2631 4581 
L 2631 1613 
L 3250 1613 
L 3250 1097 
L 2631 1097 
L 2631 0 
L 2069 0 
z
M 2069 1613 
L 2069 3678 
L 634 1613 
L 2069 1613 
z
" transform="scale(0.015625)"/>
       </defs>
       <use xlink:href="#ArialMT-17"/>
       <use xlink:href="#ArialMT-13" transform="translate(55.609375 0)"/>
       <use xlink:href="#ArialMT-13" transform="translate(111.21875 0)"/>
      </g>
     </g>
    </g>
    <g id="xtick_3">
     <g id="line2d_3">
      <path d="M 193.706876 211.323697 
L 193.706876 21.936328 
" clip-path="url(#p00789c0018)" style="fill: none; stroke: #cccccc; stroke-linecap: round"/>
     </g>
     <g id="text_3">
      <!-- 600 -->
      <g style="fill: #262626" transform="translate(184.531329 228.831997) scale(0.11 -0.11)">
       <defs>
        <path id="ArialMT-19" d="M 3184 3459 
L 2625 3416 
Q 2550 3747 2413 3897 
Q 2184 4138 1850 4138 
Q 1581 4138 1378 3988 
Q 1113 3794 959 3422 
Q 806 3050 800 2363 
Q 1003 2672 1297 2822 
Q 1591 2972 1913 2972 
Q 2475 2972 2870 2558 
Q 3266 2144 3266 1488 
Q 3266 1056 3080 686 
Q 2894 316 2569 119 
Q 2244 -78 1831 -78 
Q 1128 -78 684 439 
Q 241 956 241 2144 
Q 241 3472 731 4075 
Q 1159 4600 1884 4600 
Q 2425 4600 2770 4297 
Q 3116 3994 3184 3459 
z
M 888 1484 
Q 888 1194 1011 928 
Q 1134 663 1356 523 
Q 1578 384 1822 384 
Q 2178 384 2434 671 
Q 2691 959 2691 1453 
Q 2691 1928 2437 2201 
Q 2184 2475 1800 2475 
Q 1419 2475 1153 2201 
Q 888 1928 888 1484 
z
" transform="scale(0.015625)"/>
       </defs>
       <use xlink:href="#ArialMT-19"/>
       <use xlink:href="#ArialMT-13" transform="translate(55.609375 0)"/>
       <use xlink:href="#ArialMT-13" transform="translate(111.21875 0)"/>
      </g>
     </g>
    </g>
    <g id="xtick_4">
     <g id="line2d_4">
      <path d="M 258.92117 211.323697 
L 258.92117 21.936328 
" clip-path="url(#p00789c0018)" style="fill: none; stroke: #cccccc; stroke-linecap: round"/>
     </g>
     <g id="text_4">
      <!-- 800 -->
      <g style="fill: #262626" transform="translate(249.745623 228.831997) scale(0.11 -0.11)">
       <defs>
        <path id="ArialMT-1b" d="M 1131 2484 
Q 781 2613 612 2850 
Q 444 3088 444 3419 
Q 444 3919 803 4259 
Q 1163 4600 1759 4600 
Q 2359 4600 2725 4251 
Q 3091 3903 3091 3403 
Q 3091 3084 2923 2848 
Q 2756 2613 2416 2484 
Q 2838 2347 3058 2040 
Q 3278 1734 3278 1309 
Q 3278 722 2862 322 
Q 2447 -78 1769 -78 
Q 1091 -78 675 323 
Q 259 725 259 1325 
Q 259 1772 486 2073 
Q 713 2375 1131 2484 
z
M 1019 3438 
Q 1019 3113 1228 2906 
Q 1438 2700 1772 2700 
Q 2097 2700 2305 2904 
Q 2513 3109 2513 3406 
Q 2513 3716 2298 3927 
Q 2084 4138 1766 4138 
Q 1444 4138 1231 3931 
Q 1019 3725 1019 3438 
z
M 838 1322 
Q 838 1081 952 856 
Q 1066 631 1291 507 
Q 1516 384 1775 384 
Q 2178 384 2440 643 
Q 2703 903 2703 1303 
Q 2703 1709 2433 1975 
Q 2163 2241 1756 2241 
Q 1359 2241 1098 1978 
Q 838 1716 838 1322 
z
" transform="scale(0.015625)"/>
       </defs>
       <use xlink:href="#ArialMT-1b"/>
       <use xlink:href="#ArialMT-13" transform="translate(55.609375 0)"/>
       <use xlink:href="#ArialMT-13" transform="translate(111.21875 0)"/>
      </g>
     </g>
    </g>
    <g id="xtick_5">
     <g id="line2d_5">
      <path d="M 324.135465 211.323697 
L 324.135465 21.936328 
" clip-path="url(#p00789c0018)" style="fill: none; stroke: #cccccc; stroke-linecap: round"/>
     </g>
     <g id="text_5">
      <!-- 1000 -->
      <g style="fill: #262626" transform="translate(311.901402 228.831997) scale(0.11 -0.11)">
       <defs>
        <path id="ArialMT-14" d="M 2384 0 
L 1822 0 
L 1822 3584 
Q 1619 3391 1289 3197 
Q 959 3003 697 2906 
L 697 3450 
Q 1169 3672 1522 3987 
Q 1875 4303 2022 4600 
L 2384 4600 
L 2384 0 
z
" transform="scale(0.015625)"/>
       </defs>
       <use xlink:href="#ArialMT-14"/>
       <use xlink:href="#ArialMT-13" transform="translate(55.609375 0)"/>
       <use xlink:href="#ArialMT-13" transform="translate(111.21875 0)"/>
       <use xlink:href="#ArialMT-13" transform="translate(166.828125 0)"/>
      </g>
     </g>
    </g>
    <g id="xtick_6">
     <g id="line2d_6">
      <path d="M 389.349759 211.323697 
L 389.349759 21.936328 
" clip-path="url(#p00789c0018)" style="fill: none; stroke: #cccccc; stroke-linecap: round"/>
     </g>
     <g id="text_6">
      <!-- 1200 -->
      <g style="fill: #262626" transform="translate(377.115697 228.831997) scale(0.11 -0.11)">
       <use xlink:href="#ArialMT-14"/>
       <use xlink:href="#ArialMT-15" transform="translate(55.609375 0)"/>
       <use xlink:href="#ArialMT-13" transform="translate(111.21875 0)"/>
       <use xlink:href="#ArialMT-13" transform="translate(166.828125 0)"/>
      </g>
     </g>
    </g>
    <g id="text_7">
     <!-- x (col) -->
     <g style="fill: #262626" transform="translate(216 243.883267) scale(0.12 -0.12)">
      <defs>
       <path id="ArialMT-5b" d="M 47 0 
L 1259 1725 
L 138 3319 
L 841 3319 
L 1350 2541 
Q 1494 2319 1581 2169 
Q 1719 2375 1834 2534 
L 2394 3319 
L 3066 3319 
L 1919 1756 
L 3153 0 
L 2463 0 
L 1781 1031 
L 1600 1309 
L 728 0 
L 47 0 
z
" transform="scale(0.015625)"/>
       <path id="ArialMT-3" transform="scale(0.015625)"/>
       <path id="ArialMT-b" d="M 1497 -1347 
Q 1031 -759 709 28 
Q 388 816 388 1659 
Q 388 2403 628 3084 
Q 909 3875 1497 4659 
L 1900 4659 
Q 1522 4009 1400 3731 
Q 1209 3300 1100 2831 
Q 966 2247 966 1656 
Q 966 153 1900 -1347 
L 1497 -1347 
z
" transform="scale(0.015625)"/>
       <path id="ArialMT-46" d="M 2588 1216 
L 3141 1144 
Q 3050 572 2676 248 
Q 2303 -75 1759 -75 
Q 1078 -75 664 370 
Q 250 816 250 1647 
Q 250 2184 428 2587 
Q 606 2991 970 3192 
Q 1334 3394 1763 3394 
Q 2303 3394 2647 3120 
Q 2991 2847 3088 2344 
L 2541 2259 
Q 2463 2594 2264 2762 
Q 2066 2931 1784 2931 
Q 1359 2931 1093 2626 
Q 828 2322 828 1663 
Q 828 994 1084 691 
Q 1341 388 1753 388 
Q 2084 388 2306 591 
Q 2528 794 2588 1216 
z
" transform="scale(0.015625)"/>
       <path id="ArialMT-52" d="M 213 1659 
Q 213 2581 725 3025 
Q 1153 3394 1769 3394 
Q 2453 3394 2887 2945 
Q 3322 2497 3322 1706 
Q 3322 1066 3130 698 
Q 2938 331 2570 128 
Q 2203 -75 1769 -75 
Q 1072 -75 642 372 
Q 213 819 213 1659 
z
M 791 1659 
Q 791 1022 1069 705 
Q 1347 388 1769 388 
Q 2188 388 2466 706 
Q 2744 1025 2744 1678 
Q 2744 2294 2464 2611 
Q 2184 2928 1769 2928 
Q 1347 2928 1069 2612 
Q 791 2297 791 1659 
z
" transform="scale(0.015625)"/>
       <path id="ArialMT-4f" d="M 409 0 
L 409 4581 
L 972 4581 
L 972 0 
L 409 0 
z
" transform="scale(0.015625)"/>
       <path id="ArialMT-c" d="M 791 -1347 
L 388 -1347 
Q 1322 153 1322 1656 
Q 1322 2244 1188 2822 
Q 1081 3291 891 3722 
Q 769 4003 388 4659 
L 791 4659 
Q 1378 3875 1659 3084 
Q 1900 2403 1900 1659 
Q 1900 816 1576 28 
Q 1253 -759 791 -1347 
z
" transform="scale(0.015625)"/>
      </defs>
      <use xlink:href="#ArialMT-5b"/>
      <use xlink:href="#ArialMT-3" transform="translate(50 0)"/>
      <use xlink:href="#ArialMT-b" transform="translate(77.78125 0)"/>
      <use xlink:href="#ArialMT-46" transform="translate(111.078125 0)"/>
      <use xlink:href="#ArialMT-52" transform="translate(161.078125 0)"/>
      <use xlink:href="#ArialMT-4f" transform="translate(216.6875 0)"/>
      <use xlink:href="#ArialMT-c" transform="translate(238.90625 0)"/>
     </g>
    </g>
   </g>
   <g id="matplotlib.axis_2">
    <g id="ytick_1">
     <g id="line2d_7">
      <path d="M 50.313047 30.570518 
L 414.351328 30.570518 
" clip-path="url(#p00789c0018)" style="fill: none; stroke: #cccccc; stroke-linecap: round"/>
     </g>
     <g id="text_8">
      <!-- 200 -->
      <g style="fill: #262626" transform="translate(22.461953 34.574669) scale(0.11 -0.11)">
       <use xlink:href="#ArialMT-15"/>
       <use xlink:href="#ArialMT-13" transform="translate(55.609375 0)"/>
       <use xlink:href="#ArialMT-13" transform="translate(111.21875 0)"/>
      </g>
     </g>
    </g>
    <g id="ytick_2">
     <g id="line2d_8">
      <path d="M 50.313047 63.177666 
L 414.351328 63.177666 
" clip-path="url(#p00789c0018)" style="fill: none; stroke: #cccccc; stroke-linecap: round"/>
     </g>
     <g id="text_9">
      <!-- 300 -->
      <g style="fill: #262626" transform="translate(22.461953 67.181816) scale(0.11 -0.11)">
       <defs>
        <path id="ArialMT-16" d="M 269 1209 
L 831 1284 
Q 928 806 1161 595 
Q 1394 384 1728 384 
Q 2125 384 2398 659 
Q 2672 934 2672 1341 
Q 2672 1728 2419 1979 
Q 2166 2231 1775 2231 
Q 1616 2231 1378 2169 
L 1441 2663 
Q 1497 2656 1531 2656 
Q 1891 2656 2178 2843 
Q 2466 3031 2466 3422 
Q 2466 3731 2256 3934 
Q 2047 4138 1716 4138 
Q 1388 4138 1169 3931 
Q 950 3725 888 3313 
L 325 3413 
Q 428 3978 793 4289 
Q 1159 4600 1703 4600 
Q 2078 4600 2393 4439 
Q 2709 4278 2876 4000 
Q 3044 3722 3044 3409 
Q 3044 3113 2884 2869 
Q 2725 2625 2413 2481 
Q 2819 2388 3044 2092 
Q 3269 1797 3269 1353 
Q 3269 753 2831 336 
Q 2394 -81 1725 -81 
Q 1122 -81 723 278 
Q 325 638 269 1209 
z
" transform="scale(0.015625)"/>
       </defs>
       <use xlink:href="#ArialMT-16"/>
       <use xlink:href="#ArialMT-13" transform="translate(55.609375 0)"/>
       <use xlink:href="#ArialMT-13" transform="translate(111.21875 0)"/>
      </g>
     </g>
    </g>
    <g id="ytick_3">
     <g id="line2d_9">
      <path d="M 50.313047 95.784813 
L 414.351328 95.784813 
" clip-path="url(#p00789c0018)" style="fill: none; stroke: #cccccc; stroke-linecap: round"/>
     </g>
     <g id="text_10">
      <!-- 400 -->
      <g style="fill: #262626" transform="translate(22.461953 99.788963) scale(0.11 -0.11)">
       <use xlink:href="#ArialMT-17"/>
       <use xlink:href="#ArialMT-13" transform="translate(55.609375 0)"/>
       <use xlink:href="#ArialMT-13" transform="translate(111.21875 0)"/>
      </g>
     </g>
    </g>
    <g id="ytick_4">
     <g id="line2d_10">
      <path d="M 50.313047 128.39196 
L 414.351328 128.39196 
" clip-path="url(#p00789c0018)" style="fill: none; stroke: #cccccc; stroke-linecap: round"/>
     </g>
     <g id="text_11">
      <!-- 500 -->
      <g style="fill: #262626" transform="translate(22.461953 132.39611) scale(0.11 -0.11)">
       <defs>
        <path id="ArialMT-18" d="M 266 1200 
L 856 1250 
Q 922 819 1161 601 
Q 1400 384 1738 384 
Q 2144 384 2425 690 
Q 2706 997 2706 1503 
Q 2706 1984 2436 2262 
Q 2166 2541 1728 2541 
Q 1456 2541 1237 2417 
Q 1019 2294 894 2097 
L 366 2166 
L 809 4519 
L 3088 4519 
L 3088 3981 
L 1259 3981 
L 1013 2750 
Q 1425 3038 1878 3038 
Q 2478 3038 2890 2622 
Q 3303 2206 3303 1553 
Q 3303 931 2941 478 
Q 2500 -78 1738 -78 
Q 1113 -78 717 272 
Q 322 622 266 1200 
z
" transform="scale(0.015625)"/>
       </defs>
       <use xlink:href="#ArialMT-18"/>
       <use xlink:href="#ArialMT-13" transform="translate(55.609375 0)"/>
       <use xlink:href="#ArialMT-13" transform="translate(111.21875 0)"/>
      </g>
     </g>
    </g>
    <g id="ytick_5">
     <g id="line2d_11">
      <path d="M 50.313047 160.999107 
L 414.351328 160.999107 
" clip-path="url(#p00789c0018)" style="fill: none; stroke: #cccccc; stroke-linecap: round"/>
     </g>
     <g id="text_12">
      <!-- 600 -->
      <g style="fill: #262626" transform="translate(22.461953 165.003258) scale(0.11 -0.11)">
       <use xlink:href="#ArialMT-19"/>
       <use xlink:href="#ArialMT-13" transform="translate(55.609375 0)"/>
       <use xlink:href="#ArialMT-13" transform="translate(111.21875 0)"/>
      </g>
     </g>
    </g>
    <g id="ytick_6">
     <g id="line2d_12">
      <path d="M 50.313047 193.606255 
L 414.351328 193.606255 
" clip-path="url(#p00789c0018)" style="fill: none; stroke: #cccccc; stroke-linecap: round"/>
     </g>
     <g id="text_13">
      <!-- 700 -->
      <g style="fill: #262626" transform="translate(22.461953 197.610405) scale(0.11 -0.11)">
       <defs>
        <path id="ArialMT-1a" d="M 303 3981 
L 303 4522 
L 3269 4522 
L 3269 4084 
Q 2831 3619 2401 2847 
Q 1972 2075 1738 1259 
Q 1569 684 1522 0 
L 944 0 
Q 953 541 1156 1306 
Q 1359 2072 1739 2783 
Q 2119 3494 2547 3981 
L 303 3981 
z
" transform="scale(0.015625)"/>
       </defs>
       <use xlink:href="#ArialMT-1a"/>
       <use xlink:href="#ArialMT-13" transform="translate(55.609375 0)"/>
       <use xlink:href="#ArialMT-13" transform="translate(111.21875 0)"/>
      </g>
     </g>
    </g>
    <g id="text_14">
     <!-- y (row) -->
     <g style="fill: #262626" transform="translate(15.936328 134.960012) rotate(-90) scale(0.12 -0.12)">
      <defs>
       <path id="ArialMT-5c" d="M 397 -1278 
L 334 -750 
Q 519 -800 656 -800 
Q 844 -800 956 -737 
Q 1069 -675 1141 -563 
Q 1194 -478 1313 -144 
Q 1328 -97 1363 -6 
L 103 3319 
L 709 3319 
L 1400 1397 
Q 1534 1031 1641 628 
Q 1738 1016 1872 1384 
L 2581 3319 
L 3144 3319 
L 1881 -56 
Q 1678 -603 1566 -809 
Q 1416 -1088 1222 -1217 
Q 1028 -1347 759 -1347 
Q 597 -1347 397 -1278 
z
" transform="scale(0.015625)"/>
       <path id="ArialMT-55" d="M 416 0 
L 416 3319 
L 922 3319 
L 922 2816 
Q 1116 3169 1280 3281 
Q 1444 3394 1641 3394 
Q 1925 3394 2219 3213 
L 2025 2691 
Q 1819 2813 1613 2813 
Q 1428 2813 1281 2702 
Q 1134 2591 1072 2394 
Q 978 2094 978 1738 
L 978 0 
L 416 0 
z
" transform="scale(0.015625)"/>
       <path id="ArialMT-5a" d="M 1034 0 
L 19 3319 
L 600 3319 
L 1128 1403 
L 1325 691 
Q 1338 744 1497 1375 
L 2025 3319 
L 2603 3319 
L 3100 1394 
L 3266 759 
L 3456 1400 
L 4025 3319 
L 4572 3319 
L 3534 0 
L 2950 0 
L 2422 1988 
L 2294 2553 
L 1622 0 
L 1034 0 
z
" transform="scale(0.015625)"/>
      </defs>
      <use xlink:href="#ArialMT-5c"/>
      <use xlink:href="#ArialMT-3" transform="translate(50 0)"/>
      <use xlink:href="#ArialMT-b" transform="translate(77.78125 0)"/>
      <use xlink:href="#ArialMT-55" transform="translate(111.078125 0)"/>
      <use xlink:href="#ArialMT-52" transform="translate(144.375 0)"/>
      <use xlink:href="#ArialMT-5a" transform="translate(199.984375 0)"/>
      <use xlink:href="#ArialMT-c" transform="translate(272.203125 0)"/>
     </g>
    </g>
   </g>
   <g id="PathCollection_1">
    <defs>
     <path id="m79f6430df5" d="M 0 2.236068 
C 0.593012 2.236068 1.161816 2.000462 1.581139 1.581139 
C 2.000462 1.161816 2.236068 0.593012 2.236068 0 
C 2.236068 -0.593012 2.000462 -1.161816 1.581139 -1.581139 
C 1.161816 -2.000462 0.593012 -2.236068 0 -2.236068 
C -0.593012 -2.236068 -1.161816 -2.000462 -1.581139 -1.581139 
C -2.000462 -1.161816 -2.236068 -0.593012 -2.236068 0 
C -2.236068 0.593012 -2.000462 1.161816 -1.581139 1.581139 
C -1.161816 2.000462 -0.593012 2.236068 0 2.236068 
z
" style="stroke: #2b8cbe; stroke-opacity: 0.6"/>
    </defs>
    <g clip-path="url(#p00789c0018)">
     <use xlink:href="#m79f6430df5" x="140.912045" y="202.71518" style="fill: #2b8cbe; fill-opacity: 0.6; stroke: #2b8cbe; stroke-opacity: 0.6"/>
     <use xlink:href="#m79f6430df5" x="85.072624" y="186.098829" style="fill: #2b8cbe; fill-opacity: 0.6; stroke: #2b8cbe; stroke-opacity: 0.6"/>
     <use xlink:href="#m79f6430df5" x="243.664771" y="184.513271" style="fill: #2b8cbe; fill-opacity: 0.6; stroke: #2b8cbe; stroke-opacity: 0.6"/>
     <use xlink:href="#m79f6430df5" x="346.350437" y="166.521406" style="fill: #2b8cbe; fill-opacity: 0.6; stroke: #2b8cbe; stroke-opacity: 0.6"/>
     <use xlink:href="#m79f6430df5" x="80.550278" y="160.355602" style="fill: #2b8cbe; fill-opacity: 0.6; stroke: #2b8cbe; stroke-opacity: 0.6"/>
     <use xlink:href="#m79f6430df5" x="239.094655" y="158.998895" style="fill: #2b8cbe; fill-opacity: 0.6; stroke: #2b8cbe; stroke-opacity: 0.6"/>
     <use xlink:href="#m79f6430df5" x="397.804134" y="157.40657" style="fill: #2b8cbe; fill-opacity: 0.6; stroke: #2b8cbe; stroke-opacity: 0.6"/>
     <use xlink:href="#m79f6430df5" x="290.529206" y="149.90406" style="fill: #2b8cbe; fill-opacity: 0.6; stroke: #2b8cbe; stroke-opacity: 0.6"/>
     <use xlink:href="#m79f6430df5" x="183.27434" y="142.366224" style="fill: #2b8cbe; fill-opacity: 0.6; stroke: #2b8cbe; stroke-opacity: 0.6"/>
     <use xlink:href="#m79f6430df5" x="393.268747" y="131.692886" style="fill: #2b8cbe; fill-opacity: 0.6; stroke: #2b8cbe; stroke-opacity: 0.6"/>
     <use xlink:href="#m79f6430df5" x="337.487717" y="115.058783" style="fill: #2b8cbe; fill-opacity: 0.6; stroke: #2b8cbe; stroke-opacity: 0.6"/>
     <use xlink:href="#m79f6430df5" x="230.165046" y="107.533416" style="fill: #2b8cbe; fill-opacity: 0.6; stroke: #2b8cbe; stroke-opacity: 0.6"/>
     <use xlink:href="#m79f6430df5" x="388.719827" y="105.932295" style="fill: #2b8cbe; fill-opacity: 0.6; stroke: #2b8cbe; stroke-opacity: 0.6"/>
     <use xlink:href="#m79f6430df5" x="281.424421" y="98.404928" style="fill: #2b8cbe; fill-opacity: 0.6; stroke: #2b8cbe; stroke-opacity: 0.6"/>
     <use xlink:href="#m79f6430df5" x="66.860241" y="83.374175" style="fill: #2b8cbe; fill-opacity: 0.6; stroke: #2b8cbe; stroke-opacity: 0.6"/>
     <use xlink:href="#m79f6430df5" x="225.645461" y="81.780427" style="fill: #2b8cbe; fill-opacity: 0.6; stroke: #2b8cbe; stroke-opacity: 0.6"/>
     <use xlink:href="#m79f6430df5" x="384.159284" y="80.412724" style="fill: #2b8cbe; fill-opacity: 0.6; stroke: #2b8cbe; stroke-opacity: 0.6"/>
     <use xlink:href="#m79f6430df5" x="118.338263" y="74.263747" style="fill: #2b8cbe; fill-opacity: 0.6; stroke: #2b8cbe; stroke-opacity: 0.6"/>
     <use xlink:href="#m79f6430df5" x="276.862107" y="72.68605" style="fill: #2b8cbe; fill-opacity: 0.6; stroke: #2b8cbe; stroke-opacity: 0.6"/>
     <use xlink:href="#m79f6430df5" x="169.622087" y="65.160335" style="fill: #2b8cbe; fill-opacity: 0.6; stroke: #2b8cbe; stroke-opacity: 0.6"/>
     <use xlink:href="#m79f6430df5" x="379.6194" y="54.689966" style="fill: #2b8cbe; fill-opacity: 0.6; stroke: #2b8cbe; stroke-opacity: 0.6"/>
     <use xlink:href="#m79f6430df5" x="113.786029" y="48.514669" style="fill: #2b8cbe; fill-opacity: 0.6; stroke: #2b8cbe; stroke-opacity: 0.6"/>
     <use xlink:href="#m79f6430df5" x="272.358881" y="47.16947" style="fill: #2b8cbe; fill-opacity: 0.6; stroke: #2b8cbe; stroke-opacity: 0.6"/>
     <use xlink:href="#m79f6430df5" x="165.048549" y="39.430516" style="fill: #2b8cbe; fill-opacity: 0.6; stroke: #2b8cbe; stroke-opacity: 0.6"/>
     <use xlink:href="#m79f6430df5" x="323.796019" y="38.047588" style="fill: #2b8cbe; fill-opacity: 0.6; stroke: #2b8cbe; stroke-opacity: 0.6"/>
     <use xlink:href="#m79f6430df5" x="216.526306" y="30.544845" style="fill: #2b8cbe; fill-opacity: 0.6; stroke: #2b8cbe; stroke-opacity: 0.6"/>
    </g>
   </g>
   <g id="PathCollection_2">
    <defs>
     <path id="m7dfe9ded2b" d="M -3.872983 3.872983 
L 3.872983 -3.872983 
M -3.872983 -3.872983 
L 3.872983 3.872983 
" style="stroke: #ff0000; stroke-width: 1.5"/>
    </defs>
    <g clip-path="url(#p00789c0018)">
     <use xlink:href="#m7dfe9ded2b" x="244.26696" y="107.060649" style="fill: #ff0000; stroke: #ff0000; stroke-width: 1.5"/>
    </g>
   </g>
   <g id="patch_3">
    <path d="M 293.787566 110.524258 
L 293.311026 110.327494 
L 293.299662 110.489969 
L 244.266972 107.060486 
L 244.266949 107.060811 
L 293.29964 110.490295 
L 293.288276 110.65277 
z
" clip-path="url(#p00789c0018)" style="fill: #4daf4a; opacity: 0.15; stroke: #4daf4a; stroke-linejoin: miter"/>
   </g>
   <g id="patch_4">
    <path d="M 194.627258 107.493085 
L 195.117767 107.651853 
L 195.116348 107.488987 
L 244.266962 107.060812 
L 244.266959 107.060486 
L 195.116345 107.488661 
L 195.114927 107.325794 
z
" clip-path="url(#p00789c0018)" style="fill: #4daf4a; opacity: 0.15; stroke: #4daf4a; stroke-linejoin: miter"/>
   </g>
   <g id="patch_5">
    <path d="M 293.779956 110.631402 
L 293.303843 110.433607 
L 293.292127 110.596058 
L 244.266972 107.060486 
L 244.266948 107.060811 
L 293.292104 110.596383 
L 293.280388 110.758834 
z
" clip-path="url(#p00789c0018)" style="fill: #4daf4a; opacity: 0.15; stroke: #4daf4a; stroke-linejoin: miter"/>
   </g>
   <g id="patch_6">
    <path d="M 194.627161 107.481751 
L 195.117633 107.640632 
L 195.116252 107.477765 
L 244.266962 107.060812 
L 244.266959 107.060486 
L 195.116249 107.477439 
L 195.114867 107.314572 
z
" clip-path="url(#p00789c0018)" style="fill: #4daf4a; opacity: 0.15; stroke: #4daf4a; stroke-linejoin: miter"/>
   </g>
   <g id="patch_7">
    <path d="M 293.895157 108.213509 
L 293.409968 108.039159 
L 293.406186 108.201987 
L 244.266964 107.060486 
L 244.266956 107.060812 
L 293.406178 108.202313 
L 293.402395 108.365142 
z
" clip-path="url(#p00789c0018)" style="fill: #4daf4a; opacity: 0.15; stroke: #4daf4a; stroke-linejoin: miter"/>
   </g>
   <g id="patch_8">
    <path d="M 194.686964 109.532684 
L 195.183583 109.671161 
L 195.175472 109.508491 
L 244.266968 107.060811 
L 244.266952 107.060486 
L 195.175456 109.508165 
L 195.167345 109.345494 
z
" clip-path="url(#p00789c0018)" style="fill: #4daf4a; opacity: 0.15; stroke: #4daf4a; stroke-linejoin: miter"/>
   </g>
   <g id="patch_9">
    <path d="M 194.627833 107.554678 
L 195.118538 107.712838 
L 195.116918 107.549974 
L 244.266962 107.060812 
L 244.266959 107.060486 
L 195.116914 107.549648 
L 195.115293 107.386783 
z
" clip-path="url(#p00789c0018)" style="fill: #4daf4a; opacity: 0.15; stroke: #4daf4a; stroke-linejoin: miter"/>
   </g>
   <g id="patch_10">
    <path d="M 293.89527 108.208652 
L 293.410064 108.034348 
L 293.406297 108.197178 
L 244.266964 107.060486 
L 244.266956 107.060812 
L 293.406289 108.197504 
L 293.402523 108.360333 
z
" clip-path="url(#p00789c0018)" style="fill: #4daf4a; opacity: 0.15; stroke: #4daf4a; stroke-linejoin: miter"/>
   </g>
   <g id="patch_11">
    <path d="M 194.627222 107.488955 
L 195.117718 107.647764 
L 195.116313 107.484898 
L 244.266962 107.060812 
L 244.266959 107.060486 
L 195.11631 107.484572 
L 195.114905 107.321705 
z
" clip-path="url(#p00789c0018)" style="fill: #4daf4a; opacity: 0.15; stroke: #4daf4a; stroke-linejoin: miter"/>
   </g>
   <g id="patch_12">
    <path d="M 194.627875 107.558883 
L 195.118594 107.717001 
L 195.116959 107.554137 
L 244.266962 107.060812 
L 244.266959 107.060486 
L 195.116956 107.553811 
L 195.115321 107.390946 
z
" clip-path="url(#p00789c0018)" style="fill: #4daf4a; opacity: 0.15; stroke: #4daf4a; stroke-linejoin: miter"/>
   </g>
   <g id="patch_13">
    <path d="M 293.787188 110.529663 
L 293.31067 110.332847 
L 293.299288 110.495321 
L 244.266972 107.060486 
L 244.266949 107.060811 
L 293.299265 110.495646 
L 293.287883 110.658121 
z
" clip-path="url(#p00789c0018)" style="fill: #4daf4a; opacity: 0.15; stroke: #4daf4a; stroke-linejoin: miter"/>
   </g>
   <g id="patch_14">
    <path d="M 293.786832 110.534742 
L 293.310334 110.337876 
L 293.298935 110.50035 
L 244.266972 107.060486 
L 244.266949 107.060811 
L 293.298912 110.500675 
L 293.287514 110.663148 
z
" clip-path="url(#p00789c0018)" style="fill: #4daf4a; opacity: 0.15; stroke: #4daf4a; stroke-linejoin: miter"/>
   </g>
   <g id="patch_15">
    <path d="M 293.786958 110.532945 
L 293.310453 110.336097 
L 293.29906 110.498571 
L 244.266972 107.060486 
L 244.266949 107.060811 
L 293.299037 110.498896 
L 293.287645 110.66137 
z
" clip-path="url(#p00789c0018)" style="fill: #4daf4a; opacity: 0.15; stroke: #4daf4a; stroke-linejoin: miter"/>
   </g>
   <g id="patch_16">
    <path d="M 291.838432 121.246632 
L 291.416311 120.950624 
L 291.369767 121.106705 
L 244.267007 107.060492 
L 244.266914 107.060805 
L 291.369674 121.107017 
L 291.32313 121.263098 
z
" clip-path="url(#p00789c0018)" style="fill: #4daf4a; opacity: 0.15; stroke: #4daf4a; stroke-linejoin: miter"/>
   </g>
   <g id="patch_17">
    <path d="M 194.689372 109.580517 
L 195.186124 109.718515 
L 195.177857 109.555852 
L 244.266968 107.060811 
L 244.266952 107.060486 
L 195.17784 109.555527 
L 195.169572 109.392864 
z
" clip-path="url(#p00789c0018)" style="fill: #4daf4a; opacity: 0.15; stroke: #4daf4a; stroke-linejoin: miter"/>
   </g>
   <g id="patch_18">
    <path d="M 293.786402 110.540858 
L 293.309929 110.343934 
L 293.29851 110.506406 
L 244.266972 107.060486 
L 244.266949 107.060811 
L 293.298487 110.506731 
L 293.287069 110.669203 
z
" clip-path="url(#p00789c0018)" style="fill: #4daf4a; opacity: 0.15; stroke: #4daf4a; stroke-linejoin: miter"/>
   </g>
   <g id="patch_19">
    <path d="M 293.787585 110.523983 
L 293.311045 110.327221 
L 293.299681 110.489697 
L 244.266972 107.060486 
L 244.266949 107.060811 
L 293.299659 110.490022 
L 293.288296 110.652498 
z
" clip-path="url(#p00789c0018)" style="fill: #4daf4a; opacity: 0.15; stroke: #4daf4a; stroke-linejoin: miter"/>
   </g>
   <g id="patch_20">
    <path d="M 194.627873 107.558675 
L 195.118591 107.716796 
L 195.116957 107.553931 
L 244.266962 107.060812 
L 244.266959 107.060486 
L 195.116954 107.553605 
L 195.11532 107.390741 
z
" clip-path="url(#p00789c0018)" style="fill: #4daf4a; opacity: 0.15; stroke: #4daf4a; stroke-linejoin: miter"/>
   </g>
   <g id="patch_21">
    <path d="M 293.895195 108.211882 
L 293.41 108.037547 
L 293.406223 108.200376 
L 244.266964 107.060486 
L 244.266956 107.060812 
L 293.406215 108.200702 
L 293.402438 108.363531 
z
" clip-path="url(#p00789c0018)" style="fill: #4daf4a; opacity: 0.15; stroke: #4daf4a; stroke-linejoin: miter"/>
   </g>
   <g id="patch_22">
    <path d="M 195.370256 115.627988 
L 195.880161 115.704165 
L 195.852052 115.543736 
L 244.266988 107.060809 
L 244.266932 107.060488 
L 195.851996 115.543415 
L 195.823886 115.382986 
z
" clip-path="url(#p00789c0018)" style="fill: #4daf4a; opacity: 0.15; stroke: #4daf4a; stroke-linejoin: miter"/>
   </g>
   <g id="patch_23">
    <path d="M 194.627855 107.556926 
L 195.118568 107.715064 
L 195.11694 107.552199 
L 244.266962 107.060812 
L 244.266959 107.060486 
L 195.116937 107.551873 
L 195.115308 107.389009 
z
" clip-path="url(#p00789c0018)" style="fill: #4daf4a; opacity: 0.15; stroke: #4daf4a; stroke-linejoin: miter"/>
   </g>
   <g id="patch_24">
    <path d="M 291.846629 121.219113 
L 291.424338 120.923349 
L 291.377884 121.079457 
L 244.267007 107.060492 
L 244.266914 107.060805 
L 291.377791 121.079769 
L 291.331337 121.235877 
z
" clip-path="url(#p00789c0018)" style="fill: #4daf4a; opacity: 0.15; stroke: #4daf4a; stroke-linejoin: miter"/>
   </g>
   <g id="patch_25">
    <path d="M 284.964651 135.485725 
L 284.657021 135.071998 
L 284.563759 135.205526 
L 244.267054 107.060515 
L 244.266867 107.060782 
L 284.563573 135.205793 
L 284.470311 135.339321 
z
" clip-path="url(#p00789c0018)" style="fill: #984ea3; opacity: 0.15; stroke: #984ea3; stroke-linejoin: miter"/>
   </g>
   <g id="patch_26">
    <path d="M 204.482065 136.749858 
L 204.971564 136.588 
L 204.874154 136.457467 
L 244.267058 107.060779 
L 244.266863 107.060518 
L 204.873959 136.457206 
L 204.77655 136.326673 
z
" clip-path="url(#p00789c0018)" style="fill: #984ea3; opacity: 0.15; stroke: #984ea3; stroke-linejoin: miter"/>
   </g>
   <g id="patch_27">
    <path d="M 197.457092 123.587089 
L 197.972576 123.577993 
L 197.918353 123.424412 
L 244.267014 107.060802 
L 244.266906 107.060495 
L 197.918244 123.424104 
L 197.864022 123.270522 
z
" clip-path="url(#p00789c0018)" style="fill: #984ea3; opacity: 0.15; stroke: #984ea3; stroke-linejoin: miter"/>
   </g>
   <g id="patch_28">
    <path d="M 195.37907 115.678145 
L 195.889054 115.7538 
L 195.86078 115.5934 
L 244.266988 107.060809 
L 244.266932 107.060488 
L 195.860723 115.593079 
L 195.83245 115.432679 
z
" clip-path="url(#p00789c0018)" style="fill: #984ea3; opacity: 0.15; stroke: #984ea3; stroke-linejoin: miter"/>
   </g>
   <g id="patch_29">
    <path d="M 293.070172 116.145448 
L 292.619161 115.895655 
L 292.589354 116.055777 
L 244.26699 107.060488 
L 244.26693 107.060809 
L 292.589295 116.056097 
L 292.559488 116.216219 
z
" clip-path="url(#p00789c0018)" style="fill: #984ea3; opacity: 0.15; stroke: #984ea3; stroke-linejoin: miter"/>
   </g>
   <g id="patch_30">
    <path d="M 252.692042 155.982065 
L 252.769702 155.472384 
L 252.609192 155.500026 
L 244.267121 107.060621 
L 244.266799 107.060676 
L 252.608871 155.500081 
L 252.448361 155.527724 
z
" clip-path="url(#p00789c0018)" style="fill: #984ea3; opacity: 0.15; stroke: #984ea3; stroke-linejoin: miter"/>
   </g>
   <g id="patch_31">
    <path d="M 293.062365 116.187282 
L 292.61157 115.937103 
L 292.581625 116.097199 
L 244.26699 107.060488 
L 244.26693 107.060809 
L 292.581565 116.09752 
L 292.551621 116.257616 
z
" clip-path="url(#p00789c0018)" style="fill: #984ea3; opacity: 0.15; stroke: #984ea3; stroke-linejoin: miter"/>
   </g>
   <g id="patch_32">
    <path d="M 252.949415 155.937044 
L 253.024391 155.42696 
L 252.864029 155.455447 
L 244.267121 107.06062 
L 244.2668 107.060677 
L 252.863708 155.455504 
L 252.703346 155.483991 
z
" clip-path="url(#p00789c0018)" style="fill: #984ea3; opacity: 0.15; stroke: #984ea3; stroke-linejoin: miter"/>
   </g>
   <g id="patch_33">
    <path d="M 197.457289 123.587648 
L 197.972773 123.578546 
L 197.918548 123.424965 
L 244.267014 107.060802 
L 244.266906 107.060495 
L 197.91844 123.424657 
L 197.864215 123.271076 
z
" clip-path="url(#p00789c0018)" style="fill: #984ea3; opacity: 0.15; stroke: #984ea3; stroke-linejoin: miter"/>
   </g>
   <g id="patch_34">
    <path d="M 204.380548 136.613332 
L 204.870598 136.453153 
L 204.773636 136.322287 
L 244.267057 107.06078 
L 244.266863 107.060518 
L 204.773442 136.322025 
L 204.676481 136.191159 
z
" clip-path="url(#p00789c0018)" style="fill: #984ea3; opacity: 0.15; stroke: #984ea3; stroke-linejoin: miter"/>
   </g>
   <g id="patch_35">
    <path d="M 215.816929 147.740899 
L 216.230845 147.433523 
L 216.097374 147.340179 
L 244.267094 107.060742 
L 244.266827 107.060555 
L 216.097107 147.339992 
L 215.963636 147.246648 
z
" clip-path="url(#p00789c0018)" style="fill: #984ea3; opacity: 0.15; stroke: #984ea3; stroke-linejoin: miter"/>
   </g>
   <g id="patch_36">
    <path d="M 198.918897 127.255702 
L 199.432027 127.20566 
L 199.365768 127.056874 
L 244.267026 107.060797 
L 244.266894 107.0605 
L 199.365635 127.056576 
L 199.299375 126.90779 
z
" clip-path="url(#p00789c0018)" style="fill: #984ea3; opacity: 0.15; stroke: #984ea3; stroke-linejoin: miter"/>
   </g>
   <g id="patch_37">
    <path d="M 204.417625 136.663309 
L 204.907474 136.502516 
L 204.810349 136.371771 
L 244.267057 107.060779 
L 244.266863 107.060518 
L 204.810154 136.37151 
L 204.713029 136.240765 
z
" clip-path="url(#p00789c0018)" style="fill: #984ea3; opacity: 0.15; stroke: #984ea3; stroke-linejoin: miter"/>
   </g>
   <g id="patch_38">
    <path d="M 291.848266 121.213612 
L 291.42594 120.917897 
L 291.379504 121.07401 
L 244.267007 107.060492 
L 244.266914 107.060805 
L 291.379411 121.074323 
L 291.332976 121.230436 
z
" clip-path="url(#p00789c0018)" style="fill: #984ea3; opacity: 0.15; stroke: #984ea3; stroke-linejoin: miter"/>
   </g>
   <g id="patch_39">
    <path d="M 197.455922 123.583776 
L 197.971407 123.574716 
L 197.917195 123.421131 
L 244.267014 107.060802 
L 244.266906 107.060495 
L 197.917086 123.420823 
L 197.862874 123.267237 
z
" clip-path="url(#p00789c0018)" style="fill: #984ea3; opacity: 0.15; stroke: #984ea3; stroke-linejoin: miter"/>
   </g>
   <g id="patch_40">
    <path d="M 198.916384 127.250059 
L 199.42952 127.20008 
L 199.363279 127.051286 
L 244.267026 107.060797 
L 244.266894 107.0605 
L 199.363147 127.050988 
L 199.296906 126.902194 
z
" clip-path="url(#p00789c0018)" style="fill: #984ea3; opacity: 0.15; stroke: #984ea3; stroke-linejoin: miter"/>
   </g>
   <g id="patch_41">
    <path d="M 288.543519 129.507771 
L 288.180995 129.141189 
L 288.107346 129.286459 
L 244.267034 107.060503 
L 244.266886 107.060794 
L 288.107199 129.28675 
L 288.03355 129.43202 
z
" clip-path="url(#p00789c0018)" style="fill: #984ea3; opacity: 0.15; stroke: #984ea3; stroke-linejoin: miter"/>
   </g>
   <g id="patch_42">
    <path d="M 293.07071 116.142552 
L 292.619686 115.892786 
L 292.589888 116.05291 
L 244.26699 107.060488 
L 244.26693 107.060809 
L 292.589828 116.05323 
L 292.560031 116.213354 
z
" clip-path="url(#p00789c0018)" style="fill: #984ea3; opacity: 0.15; stroke: #984ea3; stroke-linejoin: miter"/>
   </g>
   <g id="patch_43">
    <path d="M 197.480771 123.654006 
L 197.996241 123.644173 
L 197.941799 123.490669 
L 244.267015 107.060802 
L 244.266906 107.060495 
L 197.94169 123.490362 
L 197.887248 123.336858 
z
" clip-path="url(#p00789c0018)" style="fill: #984ea3; opacity: 0.15; stroke: #984ea3; stroke-linejoin: miter"/>
   </g>
   <g id="line2d_13">
    <path d="M 206.073898 75.349814 
L 282.460023 138.771483 
" clip-path="url(#p00789c0018)" style="fill: none; stroke: #ff0000; stroke-width: 2; stroke-linecap: round"/>
   </g>
   <g id="patch_44">
    <path d="M 50.313047 211.323697 
L 50.313047 21.936328 
" style="fill: none; stroke: #cccccc; stroke-width: 1.25; stroke-linejoin: miter; stroke-linecap: square"/>
   </g>
   <g id="patch_45">
    <path d="M 414.351328 211.323697 
L 414.351328 21.936328 
" style="fill: none; stroke: #cccccc; stroke-width: 1.25; stroke-linejoin: miter; stroke-linecap: square"/>
   </g>
   <g id="patch_46">
    <path d="M 50.313047 211.323697 
L 414.351328 211.323697 
" style="fill: none; stroke: #cccccc; stroke-width: 1.25; stroke-linejoin: miter; stroke-linecap: square"/>
   </g>
   <g id="patch_47">
    <path d="M 50.313047 21.936328 
L 414.351328 21.936328 
" style="fill: none; stroke: #cccccc; stroke-width: 1.25; stroke-linejoin: miter; stroke-linecap: square"/>
   </g>
   <g id="text_15">
    <!-- Vectorized row/col differences -->
    <g style="fill: #262626" transform="translate(152.740312 15.936328) scale(0.12 -0.12)">
     <defs>
      <path id="ArialMT-39" d="M 1803 0 
L 28 4581 
L 684 4581 
L 1875 1253 
Q 2019 853 2116 503 
Q 2222 878 2363 1253 
L 3600 4581 
L 4219 4581 
L 2425 0 
L 1803 0 
z
" transform="scale(0.015625)"/>
      <path id="ArialMT-48" d="M 2694 1069 
L 3275 997 
Q 3138 488 2766 206 
Q 2394 -75 1816 -75 
Q 1088 -75 661 373 
Q 234 822 234 1631 
Q 234 2469 665 2931 
Q 1097 3394 1784 3394 
Q 2450 3394 2872 2941 
Q 3294 2488 3294 1666 
Q 3294 1616 3291 1516 
L 816 1516 
Q 847 969 1125 678 
Q 1403 388 1819 388 
Q 2128 388 2347 550 
Q 2566 713 2694 1069 
z
M 847 1978 
L 2700 1978 
Q 2663 2397 2488 2606 
Q 2219 2931 1791 2931 
Q 1403 2931 1139 2672 
Q 875 2413 847 1978 
z
" transform="scale(0.015625)"/>
      <path id="ArialMT-57" d="M 1650 503 
L 1731 6 
Q 1494 -44 1306 -44 
Q 1000 -44 831 53 
Q 663 150 594 308 
Q 525 466 525 972 
L 525 2881 
L 113 2881 
L 113 3319 
L 525 3319 
L 525 4141 
L 1084 4478 
L 1084 3319 
L 1650 3319 
L 1650 2881 
L 1084 2881 
L 1084 941 
Q 1084 700 1114 631 
Q 1144 563 1211 522 
Q 1278 481 1403 481 
Q 1497 481 1650 503 
z
" transform="scale(0.015625)"/>
      <path id="ArialMT-4c" d="M 425 3934 
L 425 4581 
L 988 4581 
L 988 3934 
L 425 3934 
z
M 425 0 
L 425 3319 
L 988 3319 
L 988 0 
L 425 0 
z
" transform="scale(0.015625)"/>
      <path id="ArialMT-5d" d="M 125 0 
L 125 456 
L 2238 2881 
Q 1878 2863 1603 2863 
L 250 2863 
L 250 3319 
L 2963 3319 
L 2963 2947 
L 1166 841 
L 819 456 
Q 1197 484 1528 484 
L 3063 484 
L 3063 0 
L 125 0 
z
" transform="scale(0.015625)"/>
      <path id="ArialMT-47" d="M 2575 0 
L 2575 419 
Q 2259 -75 1647 -75 
Q 1250 -75 917 144 
Q 584 363 401 755 
Q 219 1147 219 1656 
Q 219 2153 384 2558 
Q 550 2963 881 3178 
Q 1213 3394 1622 3394 
Q 1922 3394 2156 3267 
Q 2391 3141 2538 2938 
L 2538 4581 
L 3097 4581 
L 3097 0 
L 2575 0 
z
M 797 1656 
Q 797 1019 1065 703 
Q 1334 388 1700 388 
Q 2069 388 2326 689 
Q 2584 991 2584 1609 
Q 2584 2291 2321 2609 
Q 2059 2928 1675 2928 
Q 1300 2928 1048 2622 
Q 797 2316 797 1656 
z
" transform="scale(0.015625)"/>
      <path id="ArialMT-12" d="M 0 -78 
L 1328 4659 
L 1778 4659 
L 453 -78 
L 0 -78 
z
" transform="scale(0.015625)"/>
      <path id="ArialMT-49" d="M 556 0 
L 556 2881 
L 59 2881 
L 59 3319 
L 556 3319 
L 556 3672 
Q 556 4006 616 4169 
Q 697 4388 901 4523 
Q 1106 4659 1475 4659 
Q 1713 4659 2000 4603 
L 1916 4113 
Q 1741 4144 1584 4144 
Q 1328 4144 1222 4034 
Q 1116 3925 1116 3625 
L 1116 3319 
L 1763 3319 
L 1763 2881 
L 1116 2881 
L 1116 0 
L 556 0 
z
" transform="scale(0.015625)"/>
      <path id="ArialMT-51" d="M 422 0 
L 422 3319 
L 928 3319 
L 928 2847 
Q 1294 3394 1984 3394 
Q 2284 3394 2536 3286 
Q 2788 3178 2913 3003 
Q 3038 2828 3088 2588 
Q 3119 2431 3119 2041 
L 3119 0 
L 2556 0 
L 2556 2019 
Q 2556 2363 2490 2533 
Q 2425 2703 2258 2804 
Q 2091 2906 1866 2906 
Q 1506 2906 1245 2678 
Q 984 2450 984 1813 
L 984 0 
L 422 0 
z
" transform="scale(0.015625)"/>
      <path id="ArialMT-56" d="M 197 991 
L 753 1078 
Q 800 744 1014 566 
Q 1228 388 1613 388 
Q 2000 388 2187 545 
Q 2375 703 2375 916 
Q 2375 1106 2209 1216 
Q 2094 1291 1634 1406 
Q 1016 1563 777 1677 
Q 538 1791 414 1992 
Q 291 2194 291 2438 
Q 291 2659 392 2848 
Q 494 3038 669 3163 
Q 800 3259 1026 3326 
Q 1253 3394 1513 3394 
Q 1903 3394 2198 3281 
Q 2494 3169 2634 2976 
Q 2775 2784 2828 2463 
L 2278 2388 
Q 2241 2644 2061 2787 
Q 1881 2931 1553 2931 
Q 1166 2931 1000 2803 
Q 834 2675 834 2503 
Q 834 2394 903 2306 
Q 972 2216 1119 2156 
Q 1203 2125 1616 2013 
Q 2213 1853 2448 1751 
Q 2684 1650 2818 1456 
Q 2953 1263 2953 975 
Q 2953 694 2789 445 
Q 2625 197 2315 61 
Q 2006 -75 1616 -75 
Q 969 -75 630 194 
Q 291 463 197 991 
z
" transform="scale(0.015625)"/>
     </defs>
     <use xlink:href="#ArialMT-39"/>
     <use xlink:href="#ArialMT-48" transform="translate(61.1875 0)"/>
     <use xlink:href="#ArialMT-46" transform="translate(116.796875 0)"/>
     <use xlink:href="#ArialMT-57" transform="translate(166.796875 0)"/>
     <use xlink:href="#ArialMT-52" transform="translate(194.578125 0)"/>
     <use xlink:href="#ArialMT-55" transform="translate(250.1875 0)"/>
     <use xlink:href="#ArialMT-4c" transform="translate(283.484375 0)"/>
     <use xlink:href="#ArialMT-5d" transform="translate(305.703125 0)"/>
     <use xlink:href="#ArialMT-48" transform="translate(355.703125 0)"/>
     <use xlink:href="#ArialMT-47" transform="translate(411.3125 0)"/>
     <use xlink:href="#ArialMT-3" transform="translate(466.921875 0)"/>
     <use xlink:href="#ArialMT-55" transform="translate(494.703125 0)"/>
     <use xlink:href="#ArialMT-52" transform="translate(528 0)"/>
     <use xlink:href="#ArialMT-5a" transform="translate(583.609375 0)"/>
     <use xlink:href="#ArialMT-12" transform="translate(655.828125 0)"/>
     <use xlink:href="#ArialMT-46" transform="translate(683.609375 0)"/>
     <use xlink:href="#ArialMT-52" transform="translate(733.609375 0)"/>
     <use xlink:href="#ArialMT-4f" transform="translate(789.21875 0)"/>
     <use xlink:href="#ArialMT-3" transform="translate(811.4375 0)"/>
     <use xlink:href="#ArialMT-47" transform="translate(839.21875 0)"/>
     <use xlink:href="#ArialMT-4c" transform="translate(894.828125 0)"/>
     <use xlink:href="#ArialMT-49" transform="translate(917.046875 0)"/>
     <use xlink:href="#ArialMT-49" transform="translate(943.015625 0)"/>
     <use xlink:href="#ArialMT-48" transform="translate(970.796875 0)"/>
     <use xlink:href="#ArialMT-55" transform="translate(1026.40625 0)"/>
     <use xlink:href="#ArialMT-48" transform="translate(1059.703125 0)"/>
     <use xlink:href="#ArialMT-51" transform="translate(1115.3125 0)"/>
     <use xlink:href="#ArialMT-46" transform="translate(1170.921875 0)"/>
     <use xlink:href="#ArialMT-48" transform="translate(1220.921875 0)"/>
     <use xlink:href="#ArialMT-56" transform="translate(1276.53125 0)"/>
    </g>
   </g>
   <g id="legend_1">
    <g id="patch_48">
     <path d="M 291.378662 206.325697 
L 407.354128 206.325697 
Q 409.353328 206.325697 409.353328 204.326497 
L 409.353328 176.567878 
Q 409.353328 174.568678 407.354128 174.568678 
L 291.378662 174.568678 
Q 289.379462 174.568678 289.379462 176.567878 
L 289.379462 204.326497 
Q 289.379462 206.325697 291.378662 206.325697 
z
" style="fill: #ffffff; opacity: 0.8; stroke: #cccccc; stroke-linejoin: miter"/>
    </g>
    <g id="PathCollection_3">
     <g>
      <use xlink:href="#m7dfe9ded2b" x="303.373862" y="183.220489" style="fill: #ff0000; stroke: #ff0000; stroke-width: 1.5"/>
     </g>
    </g>
    <g id="text_16">
     <!-- Mean -->
     <g style="fill: #262626" transform="translate(321.366662 185.844439) scale(0.09996 -0.09996)">
      <defs>
       <path id="ArialMT-30" d="M 475 0 
L 475 4581 
L 1388 4581 
L 2472 1338 
Q 2622 884 2691 659 
Q 2769 909 2934 1394 
L 4031 4581 
L 4847 4581 
L 4847 0 
L 4263 0 
L 4263 3834 
L 2931 0 
L 2384 0 
L 1059 3900 
L 1059 0 
L 475 0 
z
" transform="scale(0.015625)"/>
       <path id="ArialMT-44" d="M 2588 409 
Q 2275 144 1986 34 
Q 1697 -75 1366 -75 
Q 819 -75 525 192 
Q 231 459 231 875 
Q 231 1119 342 1320 
Q 453 1522 633 1644 
Q 813 1766 1038 1828 
Q 1203 1872 1538 1913 
Q 2219 1994 2541 2106 
Q 2544 2222 2544 2253 
Q 2544 2597 2384 2738 
Q 2169 2928 1744 2928 
Q 1347 2928 1158 2789 
Q 969 2650 878 2297 
L 328 2372 
Q 403 2725 575 2942 
Q 747 3159 1072 3276 
Q 1397 3394 1825 3394 
Q 2250 3394 2515 3294 
Q 2781 3194 2906 3042 
Q 3031 2891 3081 2659 
Q 3109 2516 3109 2141 
L 3109 1391 
Q 3109 606 3145 398 
Q 3181 191 3288 0 
L 2700 0 
Q 2613 175 2588 409 
z
M 2541 1666 
Q 2234 1541 1622 1453 
Q 1275 1403 1131 1340 
Q 988 1278 909 1158 
Q 831 1038 831 891 
Q 831 666 1001 516 
Q 1172 366 1500 366 
Q 1825 366 2078 508 
Q 2331 650 2450 897 
Q 2541 1088 2541 1459 
L 2541 1666 
z
" transform="scale(0.015625)"/>
      </defs>
      <use xlink:href="#ArialMT-30"/>
      <use xlink:href="#ArialMT-48" transform="translate(83.296875 0)"/>
      <use xlink:href="#ArialMT-44" transform="translate(138.90625 0)"/>
      <use xlink:href="#ArialMT-51" transform="translate(194.515625 0)"/>
     </g>
    </g>
    <g id="line2d_14">
     <path d="M 293.377862 196.724851 
L 303.373862 196.724851 
L 313.369862 196.724851 
" style="fill: none; stroke: #ff0000; stroke-width: 2; stroke-linecap: round"/>
    </g>
    <g id="text_17">
     <!-- Main axis (-50.30°) -->
     <g style="fill: #262626" transform="translate(321.366662 200.223451) scale(0.09996 -0.09996)">
      <defs>
       <path id="ArialMT-10" d="M 203 1375 
L 203 1941 
L 1931 1941 
L 1931 1375 
L 203 1375 
z
" transform="scale(0.015625)"/>
       <path id="ArialMT-11" d="M 581 0 
L 581 641 
L 1222 641 
L 1222 0 
L 581 0 
z
" transform="scale(0.015625)"/>
       <path id="ArialMT-83" d="M 400 3794 
Q 400 4153 654 4406 
Q 909 4659 1266 4659 
Q 1628 4659 1881 4406 
Q 2134 4153 2134 3794 
Q 2134 3434 1879 3179 
Q 1625 2925 1266 2925 
Q 909 2925 654 3178 
Q 400 3431 400 3794 
z
M 741 3794 
Q 741 3575 895 3420 
Q 1050 3266 1269 3266 
Q 1484 3266 1639 3420 
Q 1794 3575 1794 3794 
Q 1794 4013 1639 4167 
Q 1484 4322 1269 4322 
Q 1050 4322 895 4167 
Q 741 4013 741 3794 
z
" transform="scale(0.015625)"/>
      </defs>
      <use xlink:href="#ArialMT-30"/>
      <use xlink:href="#ArialMT-44" transform="translate(83.296875 0)"/>
      <use xlink:href="#ArialMT-4c" transform="translate(138.90625 0)"/>
      <use xlink:href="#ArialMT-51" transform="translate(161.125 0)"/>
      <use xlink:href="#ArialMT-3" transform="translate(216.734375 0)"/>
      <use xlink:href="#ArialMT-44" transform="translate(244.515625 0)"/>
      <use xlink:href="#ArialMT-5b" transform="translate(300.125 0)"/>
      <use xlink:href="#ArialMT-4c" transform="translate(350.125 0)"/>
      <use xlink:href="#ArialMT-56" transform="translate(372.34375 0)"/>
      <use xlink:href="#ArialMT-3" transform="translate(422.34375 0)"/>
      <use xlink:href="#ArialMT-b" transform="translate(450.125 0)"/>
      <use xlink:href="#ArialMT-10" transform="translate(483.421875 0)"/>
      <use xlink:href="#ArialMT-18" transform="translate(516.71875 0)"/>
      <use xlink:href="#ArialMT-13" transform="translate(572.328125 0)"/>
      <use xlink:href="#ArialMT-11" transform="translate(627.9375 0)"/>
      <use xlink:href="#ArialMT-16" transform="translate(655.71875 0)"/>
      <use xlink:href="#ArialMT-13" transform="translate(711.328125 0)"/>
      <use xlink:href="#ArialMT-83" transform="translate(766.9375 0)"/>
      <use xlink:href="#ArialMT-c" transform="translate(806.921875 0)"/>
     </g>
    </g>
   </g>
  </g>
 </g>
 <defs>
  <clipPath id="p00789c0018">
   <rect x="50.313047" y="21.936328" width="364.038281" height="189.387369"/>
  </clipPath>
 </defs>
</svg>
